<?xml version="1.0" encoding="utf-8"?>
<!-- Generator: Adobe Illustrator 27.1.1, SVG Export Plug-In . SVG Version: 6.00 Build 0)  -->
<svg version="1.2" baseProfile="tiny" id="games_title-sp.svg"
	 xmlns="http://www.w3.org/2000/svg" xmlns:xlink="http://www.w3.org/1999/xlink" x="0px" y="0px" viewBox="0 0 279.3 119.2"
	 overflow="visible" xml:space="preserve">
<path id="GAMES" fill-rule="evenodd" fill="#FFFFFF" d="M63,26.6H27.8v12.1h17.7c-1.8,6.1-7.1,9.5-14.2,9.5
	c-10,0-16.2-7.9-16.2-17.8c0-9.5,6.6-17.2,16.2-17.2c5.4-0.1,10.5,2.9,13,7.7h17C57.9,9,45,0,31.7,0C14.5,0,0,12.6,0,30.5
	c0,17.4,13.9,31,31.4,31C51.4,61.5,63,45.9,63,30V26.6z M121,60.3L97.5,1.1H85.5L61.8,60.3H78l3.1-8.6h20.6l2.9,8.6H121L121,60.3z
	 M97.7,39.8H85.3l6.1-20.2l0.2,0.1L97.7,39.8z M188,60.3V1.1h-19.5l-11.6,39h-0.2l-11.8-39h-19.4v59.2h13.9l-0.5-44.9l12.8,44.9h10
	l12.6-44.5l0.2,0.2L174,60.3H188L188,60.3z M231.2,60.3V47h-18.4V36.9h17.8V23.6h-17.8v-9.2h18.4V1.1h-32.9v59.2H231.2L231.2,60.3z
	 M278.8,18.4c-0.1-7.9-3.1-12.6-9.4-15.9c-3.2-1.7-6.8-2.5-10.5-2.5c-10.9,0-20.6,7.4-20.6,17.4c0,7.7,4.4,12.8,14.1,16.7
	c5.4,2.2,11.9,4.2,11.9,9c0,3.1-2.5,5.7-5.6,5.7c0,0,0,0-0.1,0c-3.8,0-6.2-3.2-6.2-8.1h-15V42c0,12.7,8.5,19.4,21.4,19.4
	c12.8,0,20.6-6.7,20.6-18.2c0-7.8-3.3-12.5-16.3-18.1c-6.5-2.8-9.7-4.4-9.7-7.9c0-2.6,2.4-4.6,5.2-4.6c3,0,4.7,1.5,5.4,5.8H278.8
	L278.8,18.4z"/>
<g>
	<path fill="#FFFFFF" d="M39.3,82.3H59v27.1H39.3V82.3z M46.1,104h6.1V87.7h-6.1V104z M75.6,99.1h-5.4V119h-7V78.7h7v14.7h5.4V99.1z
		"/>
	<path fill="#FFFFFF" d="M87,104.3c5.8-0.1,10.4-0.4,15.5-1.3l0.7,5.6c-6.1,1.1-12,1.3-19.6,1.3h-3.7V92.7H92v-5.4H79.9v-5.5h19.3
		v16.2H87V104.3z M111.7,78.6v40.5h-7V78.6H111.7z"/>
	<path fill="#FFFFFF" d="M153.9,109v5.5h-36.6V109h14.8v-6c-6.9-1.1-11.8-5.2-11.8-11.2c0-6.9,6.6-11.4,15.3-11.4
		c8.7,0,15.3,4.5,15.3,11.4c0,6-4.9,10.1-11.8,11.2v6H153.9z M135.6,97.8c5.1,0,8.4-2.1,8.4-5.9c0-3.8-3.4-5.9-8.4-5.9
		c-5,0-8.4,2.1-8.4,5.9C127.2,95.7,130.6,97.8,135.6,97.8z"/>
	<path fill="#FFFFFF" d="M186.5,79.5h6.4v37.9h-6.4V99h-5.2c-2.1,4.6-5.8,8.5-11.6,11.8l-3.9-4.8c7.7-4.6,10.9-9.7,11.6-17.3h-9.1
		v-5.5h15.9c0,3.7-0.3,7.1-1,10.3h3.2V79.5z M201.7,78.7V119h-6.6V78.7H201.7z"/>
	<path fill="#FFFFFF" d="M229.1,90.2c0,5.7-4.9,9.8-11.2,9.8c-6.4,0-11.2-4.1-11.2-9.8c0-5.7,4.9-9.8,11.2-9.8
		C224.2,80.4,229.1,84.5,229.1,90.2z M240,103v15.6h-27.3V103H240z M213.4,90.2c0,2.7,1.9,4.1,4.4,4.1s4.4-1.4,4.4-4.1
		c0-2.7-1.9-4.1-4.4-4.1S213.4,87.5,213.4,90.2z M219.5,108.4v4.9h13.7v-4.9H219.5z M240,78.7v22.7h-7V78.7H240z"/>
</g>
</svg>
