<?xml version="1.0" encoding="utf-8"?>
<!-- Generator: Adobe Illustrator 27.1.1, SVG Export Plug-In . SVG Version: 6.00 Build 0)  -->
<svg version="1.2" baseProfile="tiny" id="games-title.svg"
	 xmlns="http://www.w3.org/2000/svg" xmlns:xlink="http://www.w3.org/1999/xlink" x="0px" y="0px" viewBox="0 0 210.2 82.5"
	 overflow="visible" xml:space="preserve">
<path id="GAMES" fill-rule="evenodd" fill="#FFFFFF" d="M47.3,20H20.9V29h13.3c-1.4,4.6-5.3,7.1-10.6,7.1c-7.5,0-12.2-5.9-12.2-13.3
	c0-7.1,5-12.9,12.1-12.9c4.1-0.1,7.9,2.2,9.8,5.8h12.7C43.4,6.8,33.8,0,23.7,0C10.8,0,0,9.4,0,22.9c0,12.8,10.4,23.3,23.2,23.3
	c0.1,0,0.2,0,0.3,0c14.9,0,23.7-11.7,23.7-23.6L47.3,20L47.3,20z M91,45.2L73.3,0.8h-8.9L46.6,45.2h12.2l2.3-6.4h15.4l2.2,6.4H91
	L91,45.2z M73.5,29.8h-9.3l4.6-15.2l0.2,0.1L73.5,29.8z M141.4,45.2V0.8h-14.6L118,30.1h-0.1l-8.8-29.2H94.5v44.4H105l-0.4-33.7
	l9.6,33.7h7.5l9.5-33.3l0.1,0.1l-0.4,33.2H141.4L141.4,45.2z M174,45.2v-10h-13.8v-7.6h13.4v-10h-13.4v-6.9H174v-10h-24.7v44.4
	L174,45.2L174,45.2z M209.9,13.8c-0.1-5.9-2.3-9.5-7.1-11.9c-2.4-1.2-5.1-1.9-7.9-1.9c-8.2,0-15.5,5.5-15.5,13.1
	c0,5.8,3.3,9.6,10.6,12.5c4,1.6,8.9,3.2,8.9,6.7c0,2.3-1.9,4.2-4.2,4.3c0,0,0,0,0,0c-2.8,0-4.6-2.4-4.7-6.1h-11.3v1
	c0,9.5,6.4,14.6,16,14.6c9.6,0,15.5-5,15.5-13.6c0-5.8-2.5-9.3-12.2-13.6c-4.9-2.1-7.3-3.3-7.3-5.9c0.1-2,1.9-3.6,3.9-3.5
	c2.2,0,3.5,1.1,4,4.3L209.9,13.8L209.9,13.8z"/>
<g>
	<path fill="#FFFFFF" d="M48.6,61.5h11v15.1h-11V61.5z M52.4,73.6h3.4v-9.1h-3.4V73.6z M68.9,70.9h-3V82H62V59.5h3.9v8.2h3V70.9z"/>
	<path fill="#FFFFFF" d="M75.2,73.8c3.2,0,5.8-0.2,8.6-0.7l0.4,3.1c-3.4,0.6-6.7,0.7-10.9,0.7h-2.1v-9.6H78v-3h-6.8v-3H82v9.1h-6.8
		V73.8z M89,59.5v22.6h-3.9V59.5H89z"/>
	<path fill="#FFFFFF" d="M112.6,76.4v3.1H92.2v-3.1h8.3v-3.3c-3.9-0.6-6.6-2.9-6.6-6.3c0-3.8,3.7-6.4,8.5-6.4c4.8,0,8.5,2.5,8.5,6.4
		c0,3.3-2.8,5.7-6.6,6.3v3.3H112.6z M102.4,70.1c2.8,0,4.7-1.2,4.7-3.3c0-2.1-1.9-3.3-4.7-3.3c-2.8,0-4.7,1.2-4.7,3.3
		C97.7,69,99.6,70.1,102.4,70.1z"/>
	<path fill="#FFFFFF" d="M130.8,59.9h3.6v21.1h-3.6V70.9h-2.9c-1.2,2.5-3.3,4.7-6.5,6.6l-2.2-2.7c4.3-2.6,6.1-5.4,6.5-9.6h-5.1v-3
		h8.9c0,2.1-0.2,4-0.6,5.8h1.8V59.9z M139.3,59.5V82h-3.7V59.5H139.3z"/>
	<path fill="#FFFFFF" d="M154.6,65.9c0,3.2-2.7,5.5-6.3,5.5c-3.6,0-6.3-2.3-6.3-5.5s2.7-5.5,6.3-5.5
		C151.9,60.4,154.6,62.7,154.6,65.9z M160.7,73.1v8.7h-15.2v-8.7H160.7z M145.9,65.9c0,1.5,1.1,2.3,2.5,2.3s2.5-0.8,2.5-2.3
		s-1.1-2.3-2.5-2.3S145.9,64.4,145.9,65.9z M149.3,76.1v2.7h7.6v-2.7H149.3z M160.7,59.5v12.7h-3.9V59.5H160.7z"/>
</g>
</svg>
