<?xml version="1.0" encoding="utf-8"?>
<!-- Generator: Adobe Illustrator 27.1.1, SVG Export Plug-In . SVG Version: 6.00 Build 0)  -->
<svg version="1.2" baseProfile="tiny" id="name.svg"
	 xmlns="http://www.w3.org/2000/svg" xmlns:xlink="http://www.w3.org/1999/xlink" x="0px" y="0px" viewBox="0 0 286.3 147.4"
	 overflow="visible" xml:space="preserve">
<path id="MARIO" fill-rule="evenodd" fill="#373737" d="M118,23.3l-2.7-20.4l-5.4-0.8l-3.6,5.6l-1.9-6.4l-5.7-0.8L91,19.2l7.7,3.5
	l3.2-10.7l3.1,5.3l4.5-4.3l0.1,10.9L118,23.3z M140.7,22.6l-5.6-18.3l-10.4-1.5l-5.8,18.9l7.2,1.5l0.8-4l5.3-0.5l0.9,4.6L140.7,22.6
	z M131.3,14.2l-3.3-0.4l1-4.7l1.4,0.2L131.3,14.2z M163.3,20.1l-6.4-5.3l3.6-2.4l1.6-6.9l-8-5.5l-12.8,1.8L143,23l7-0.5l-0.1-6.6
	l5.5,7.8L163.3,20.1z M153.7,11.4l-3.8,0.8l-0.1-6.3l4.8,1.5L153.7,11.4z M170.5,22.5l3.4-17.4l-8.5-1.8L164.3,23L170.5,22.5z
	 M195.1,20.5l1.3-10.3l-5.9-6.1l-9.1-1.2l-6.8,7.8l2.1,10.3l9.5,3.4L195.1,20.5z M190.2,14.5l-3.7,3.5l-4.1-1.7l-0.1-5l5.2-1.7
	L190.2,14.5z"/>
<g>
	<path fill="#E60012" d="M57.8,66.4v80H7.9v-80C7.9,66.4,57.8,66.4,57.8,66.4z M28.2,129.5h9.3V83.3h-9.3V129.5z M86.5,93.2H95v16.9
		h-8.5v37.3H66.2v-83h20.3V93.2z"/>
	<path fill="#E60012" d="M102,83.3V66.4h51.8v48.7h-31.6v14.4h33.5v16.9H102V98.3h31.6v-15H102z M183.5,147.4h-20.3v-83h20.3V147.4z
		"/>
	<path fill="#E60012" d="M198.6,94.2c0-4.8,1-9,3.1-12.6c2.1-3.6,4.8-6.6,8.3-9.1c3.5-2.4,7.6-4.2,12.2-5.4
		c4.7-1.2,9.6-1.8,14.8-1.8s10.2,0.6,14.8,1.8c4.7,1.2,8.8,3,12.3,5.4s6.3,5.4,8.4,9.1c2.1,3.6,3.1,7.8,3.1,12.6
		c0,4-0.7,7.6-2.2,10.7c-1.5,3.2-3.5,5.9-6,8.3c-2.5,2.4-5.6,4.3-9,5.8c-3.5,1.5-7.2,2.6-11.2,3.3v8.1h32.2v16.9h-84.8v-16.9H227
		v-8.1c-4.1-0.7-7.8-1.7-11.3-3.2c-3.5-1.5-6.5-3.4-9-5.8c-2.5-2.4-4.5-5.1-6-8.3C199.3,101.9,198.6,98.3,198.6,94.2z M218.9,94.2
		c0,3.9,1.6,6.9,4.9,9c3.3,2.1,7.7,3.1,13.3,3.1c5.5,0,9.9-1,13.3-3.1c3.4-2.1,5-5,5-9s-1.7-6.9-5-9c-3.4-2.1-7.8-3.1-13.3-3.1
		c-5.6,0-10,1-13.3,3.1C220.5,87.3,218.9,90.3,218.9,94.2z"/>
</g>
</svg>
