<svg xmlns="http://www.w3.org/2000/svg" xmlns:xlink="http://www.w3.org/1999/xlink" width="308.94" height="156.94" viewBox="0 0 308.94 156.94">
  <defs>
    <style>
      .cls-1 {
        fill: #fff;
        fill-rule: evenodd;
        filter: url(#filter);
      }
    </style>
    <filter id="filter" x="1295.06" y="7444.06" width="308.94" height="156.94" filterUnits="userSpaceOnUse">
      <feOffset result="offset" dx="3.536" dy="3.536" in="SourceAlpha"/>
      <feGaussianBlur result="blur"/>
      <feFlood result="flood" flood-color="#040000" flood-opacity="0.2"/>
      <feComposite result="composite" operator="in" in2="blur"/>
      <feBlend result="blend" in="SourceGraphic"/>
    </filter>
  </defs>
  <path id="POWER_UP_.svg" data-name="POWER UP!.svg" class="cls-1" d="M1310.44,7508.15l3.82-19.72h7.48c18.03,0,26.48-10.29,28.74-21.93,1.65-8.5-1.2-15.73-7.39-18.87-3.01-1.53-7.85-2.47-14.58-2.38h-21.25l-12.21,62.9h15.39Zm6.56-33.83,2.91-14.96h6.29c7.14,0,9.84,2.29,8.85,7.39-1.04,5.36-4.7,7.57-11.16,7.57H1317Zm64.35,35.02c18.02,0,35.28-14.45,38.89-33.07,3.5-18.02-8.62-32.21-26.98-32.21-19.13,0-35.99,14.62-39.77,34.08C1349.88,7496.76,1363.84,7509.34,1381.35,7509.34Zm2.23-14.11c-10.29,0-15.73-8.33-13.71-18.7,1.93-9.95,10.62-18.36,20.65-18.36,10.11,0,15.47,8.75,13.55,18.61C1402.13,7486.81,1393.52,7495.23,1383.58,7495.23Zm93.2,12.92,28.87-62.9h-16.24l-16.55,41.05h-0.17l-1.13-41.05h-12.32l-17.2,40.88h-0.17l-0.48-40.88h-16.32l4.03,62.9h14.53l17.34-40.72h0.17l1.53,40.72h14.11Zm57.54,0,2.74-14.11H1517.5l2.1-10.8h18.96l2.73-14.11h-18.95l1.9-9.77h19.55l2.73-14.11h-34.93l-12.21,62.9h34.94Zm57.97,0-12.93-21.42c10.02-1.7,17.55-9.86,19.48-19.81,1.74-8.92-1.59-16.32-7.8-19.38-3.03-1.44-7.88-2.29-14.43-2.29h-20.57l-12.2,62.9h15.38l3.94-20.32h0.17l10.6,20.32h18.36Zm-27-31.28,3.4-17.51h6.12c6.04,0,9.52,3.06,8.47,8.5-1.18,6.03-5.66,9.01-12.04,9.01h-5.95Zm-233.44,93.56c-1.72,8.84-4.8,11.56-10.24,11.56-5.69,0-7.41-3.82-5.9-11.64l7.44-38.34h-16.06l-7.49,38.59c-2.36,12.16.07,18.02,6.63,22.36,3.24,2.12,7.55,3.14,12.82,3.14a28.591,28.591,0,0,0,22.82-10.71c2.78-3.4,4.76-8.33,6.03-14.87l7.47-38.51h-16.06Zm38.49,24.48,3.83-19.72h7.48c18.02,0,26.48-10.28,28.74-21.93,1.65-8.5-1.2-15.72-7.39-18.87-3.02-1.53-7.85-2.46-14.58-2.38h-21.25l-12.21,62.9h15.38Zm6.57-33.83,2.9-14.96h6.29c7.14,0,9.84,2.3,8.85,7.4-1.03,5.35-4.69,7.56-11.15,7.56h-6.89Zm51.73,13.09,8.18-42.16h-14.53l-8.18,42.16h14.53Zm-4.02,20.74,2.8-14.45h-14.53l-2.81,14.45h14.54Z" transform="translate(-1295.06 -7444.06)"/>
</svg>
