<?xml version="1.0" encoding="utf-8"?>
<!-- Generator: Adobe Illustrator 27.1.1, SVG Export Plug-In . SVG Version: 6.00 Build 0)  -->
<svg version="1.2" baseProfile="tiny" id="characters_text.svg"
	 xmlns="http://www.w3.org/2000/svg" xmlns:xlink="http://www.w3.org/1999/xlink" x="0px" y="0px" viewBox="0 0 356.9 18.1"
	 overflow="visible" xml:space="preserve">
<g>
	<path fill="#FFFFFF" d="M51.9,0.3h6.5v2.5h-3.7v9.6h-2.7V0.3z"/>
	<path fill="#FFFFFF" d="M59.6,2.1h8.7v12h-8.7V2.1z M62.7,11.7h2.7V4.5h-2.7V11.7z M75.7,9.5h-2.4v8.8h-3.1V0.5h3.1V7h2.4V9.5z"/>
	<path fill="#FFFFFF" d="M80.7,11.8c2.5,0,4.6-0.2,6.8-0.6l0.3,2.5c-2.7,0.5-5.3,0.6-8.6,0.6h-1.6V6.7h5.4V4.3h-5.4V1.9h8.5v7.2
		h-5.4V11.8z M91.6,0.5v17.9h-3.1V0.5H91.6z"/>
	<path fill="#FFFFFF" d="M110.3,13.9v2.5H94.1v-2.5h6.5v-2.6c-3.1-0.5-5.2-2.3-5.2-5c0-3,2.9-5,6.8-5s6.8,2,6.8,5
		c0,2.6-2.2,4.5-5.2,5v2.6H110.3z M102.2,8.9c2.2,0,3.7-0.9,3.7-2.6c0-1.7-1.5-2.6-3.7-2.6c-2.2,0-3.7,0.9-3.7,2.6
		C98.5,8,100,8.9,102.2,8.9z"/>
	<path fill="#FFFFFF" d="M117.6,18.3h-6.5v-2.5h3.7V6.3h2.7V18.3z"/>
	<path fill="#FFFFFF" d="M132.7,4.1c0,3.3,1,6.6,4.3,8l-1.8,2.5c-2-0.9-3.2-2.4-4-4.4c-0.8,2.1-2.1,3.9-4.2,4.8l-1.8-2.5
		c3.3-1.4,4.4-4.8,4.4-8.4V1.8h3.1V4.1z M140.4,0.5v17.9h-3.1V0.5H140.4z"/>
	<path fill="#FFFFFF" d="M147,11.8c2.5,0,4.6-0.2,6.8-0.6l0.3,2.5c-2.7,0.5-5.3,0.6-8.6,0.6h-1.6V6.7h5.4V4.3h-5.4V1.9h8.5v7.2H147
		V11.8z M157.9,0.5v17.9h-3.1V0.5H157.9z"/>
	<path fill="#FFFFFF" d="M176.6,13.9v2.5h-16.1v-2.5H176.6z M161,9.1c4.2-0.6,5.7-2.8,5.9-4.9h-5.1V1.9h13.4v2.4h-5.1
		c0.2,2.1,1.7,4.2,6,4.8l-1.2,2.4c-3.2-0.6-5.3-1.9-6.4-3.8c-1.1,1.9-3.1,3.4-6.3,3.9L161,9.1z"/>
	<path fill="#FFFFFF" d="M186.7,0.7h2.8v16.9h-2.8V9.3h-0.9c-0.2,3.5-1.7,5.6-3.9,5.6c-2.4,0-3.9-2.5-3.9-6.6c0-4.2,1.5-6.6,3.9-6.6
		c2.1,0,3.5,1.9,3.9,5.2h1V0.7z M183.1,8.3c0-2.6-0.4-3.7-1.1-3.7c-0.7,0-1.1,1.1-1.1,3.7s0.4,3.7,1.1,3.7
		C182.7,12,183.1,10.9,183.1,8.3z M193.3,0.5v17.8h-2.9V0.5H193.3z"/>
	<path fill="#FFFFFF" d="M215.9,8.5V11h-16.2V8.5H215.9z M214,15.1c0,2.1-2.4,3.3-6.2,3.3c-3.9,0-6.3-1.2-6.3-3.3
		c0-2.1,2.4-3.3,6.2-3.3C211.6,11.7,214,12.9,214,15.1z M214.1,7.5h-12.5V0.9H214v2.4h-9.3v1.8h9.4V7.5z M210.9,15.1
		c0-0.7-1-1-3.1-1c-2.2,0-3.1,0.3-3.1,1s1,1,3.1,1C209.9,16.1,210.9,15.8,210.9,15.1z"/>
	<path fill="#FFFFFF" d="M226.5,10.7c-1.9-0.6-3.2-1.6-4-2.9c-0.8,1.6-2.1,3-4.2,3.6l-1.5-2.4c2.8-0.9,3.9-2.9,4.1-4.9h-3.3V1.6h9.7
		v2.4h-3.2c0.2,1.7,1.2,3.5,3.9,4.2L226.5,10.7z M231.6,14.8c0,2.2-2.4,3.6-6.1,3.6c-3.7,0-6.1-1.3-6.1-3.6c0-2.2,2.4-3.6,6.1-3.6
		C229.2,11.2,231.6,12.5,231.6,14.8z M228.5,14.8c0-0.9-1-1.2-3.1-1.2c-2.1,0-3.1,0.3-3.1,1.2c0,0.9,1,1.2,3.1,1.2
		C227.5,16,228.5,15.7,228.5,14.8z M233.6,4.4v2.5h-2.2V11h-3.1V0.5h3.1v3.9H233.6z"/>
	<path fill="#FFFFFF" d="M245.2,4.6h-10.5V2.2h3.7V0.5h3.1v1.7h3.7V4.6z M239.9,12.1c-2.6,0-4.4-1.4-4.4-3.5c0-2,1.9-3.5,4.4-3.5
		c2.6,0,4.4,1.5,4.4,3.5C244.4,10.6,242.5,12.1,239.9,12.1z M240.2,15.7h9.2v2.4h-12.3v-5.2h3.1V15.7z M239.9,9.7
		c0.9,0,1.5-0.4,1.5-1.2c0-0.8-0.6-1.2-1.5-1.2c-0.9,0-1.5,0.4-1.5,1.2C238.4,9.4,239.1,9.7,239.9,9.7z M251.1,5.7v2.5h-2.2v5.6
		h-3.1V0.5h3.1v5.2H251.1z"/>
	<path fill="#FFFFFF" d="M264.5,2.6c0,5.3-1.2,9.4-6.4,12.5l-1.7-2.1c2-1.2,3.3-2.5,4.1-4L257,9.3l-0.3-2.6l4.7-0.2
		c0.1-0.5,0.2-1,0.2-1.6h-4V2.6H264.5z M272,0.5v17.8h-2.9V9.5H268v8.1h-2.8V0.9h2.8v6.2h1.1V0.5H272z"/>
	<path fill="#FFFFFF" d="M285.1,10.4c-2.5,0.4-4.8,0.5-8.5,0.5h-1.6V5h5.2V3.9h-5.2V1.5h8.3v5.8H278v1.2c2.8,0,4.7-0.1,6.8-0.5
		L285.1,10.4z M276.7,12.2h12.3v6.2h-3.1v-3.8h-9.2V12.2z M288.9,0.5v11h-3.1v-11H288.9z"/>
	<path fill="#FFFFFF" d="M295.3,12c2.1,0,3.9-0.1,5.9-0.4l0.2,2.4c-2.6,0.4-4.9,0.4-7.7,0.4h-1.5V1.9h8.3v2.5h-5.2v2.5h4.7v2.4h-4.7
		V12z M306.6,0.5v17.9h-3.1V9h-2.7V6.5h2.7v-6H306.6z"/>
</g>
</svg>
