<?xml version="1.0" encoding="utf-8"?>
<!-- Generator: Adobe Illustrator 27.1.1, SVG Export Plug-In . SVG Version: 6.00 Build 0)  -->
<svg version="1.2" baseProfile="tiny" id="chara_ディディーコング.svg"
	 xmlns="http://www.w3.org/2000/svg" xmlns:xlink="http://www.w3.org/1999/xlink" x="0px" y="0px" viewBox="0 0 282 147.4"
	 overflow="visible" xml:space="preserve">
<path id="DIDDY_KONG" fill-rule="evenodd" fill="#373737" d="M55.9,22.6l5.6-5.9l0.9-9.9l-11-6.2L40.2,3.2l2.9,20.5L55.9,22.6z
	 M54,16.3l-4.2,1.6L49,7.9l6.2,2.3L54,16.3z M69.6,22.5L73,5.2l-8.5-1.8L63.4,23L69.6,22.5z M88.9,22.6l5.6-5.9l0.9-9.9L84.5,0.6
	L73.4,3.2l2.9,20.5L88.9,22.6z M87,16.3l-4.2,1.6l-0.9-10l6.2,2.3L87,16.3z M111.4,22.6l5.6-5.9l0.9-9.9L107,0.6L95.9,3.2l2.9,20.5
	L111.4,22.6z M109.5,16.3l-4.2,1.6l-0.9-10l6.2,2.3L109.5,16.3z M132.4,23.1l-0.6-7.1l9.9-10.4l-7.3-4.1l-5.3,8.3L126,0.1l-9.4,3
	l8.5,12.5l-1.5,6.9L132.4,23.1z M171.2,17.8l-8.1-6.1l6.5-6.9l-6.8-4.4l-5.1,8.2L157,1.5l-8.1,0.7l2.9,21.1l7-0.6l-0.6-6.7l6.8,6.9
	L171.2,17.8z M190.6,20.5l1.3-10.3L186,4.1l-9-1.2l-6.8,7.8l2,10.3l9.5,3.4L190.6,20.5z M185.7,14.5L182,18l-4.1-1.6l-0.1-5l5.2-1.7
	L185.7,14.5z M215.1,21.1l0.1-20.3l-8.6,0.8l1,10.8L200,1.7l-7.7,2.5l3.2,19.7l7.2-0.6l-1-8.9l7.3,8.8L215.1,21.1z M239.7,20.1
	l-0.4-10.5l-10.8,0.9l0.1,5.8l4.6-1.7l0.6,1.5l-4.1,1.6l-4.2-2.1l0.2-5.9l3.3-3.1l5.9,2.6l2.8-6.5L229.8,0L221,2.3l-4.7,7.6l3.1,11
	l9.4,3.2L239.7,20.1z"/>
<g>
	<path fill="#9A3002" d="M57,62.6v16.9H25.4v46.3H58v16.7H5.2v-80L57,62.6L57,62.6z M86.7,143.5H66.4V60.6h20.3V143.5z"/>
	<path fill="#9A3002" d="M151.1,62.6v16.9h-31.6v46.3H152v16.7H99.2v-80L151.1,62.6L151.1,62.6z M180.8,143.5h-20.3V60.6h20.3V143.5
		z"/>
	<path fill="#9A3002" d="M250.7,90.7h-12.1v5.8h38.1v14.9H192V96.5h26.4v-5.8h-20.6V77.8h52.9v-3.3h-52.9V61.6H271v32.2h-20.3V90.7z
		 M234.5,147.4c-6.2,0-11.7-0.3-16.5-0.9c-4.8-0.6-8.8-1.5-12.1-2.8s-5.8-3-7.5-5.1s-2.5-4.6-2.5-7.6s0.8-5.5,2.5-7.6s4.2-3.7,7.5-5
		s7.3-2.3,12.1-2.8c4.8-0.6,10.3-0.9,16.5-0.9c6.1,0,11.6,0.3,16.4,0.9s8.9,1.5,12.2,2.8c3.3,1.3,5.8,3,7.5,5
		c1.7,2.1,2.5,4.6,2.5,7.6s-0.9,5.6-2.5,7.6c-1.7,2.1-4.2,3.8-7.5,5.1s-7.4,2.3-12.2,2.8S240.6,147.4,234.5,147.4z M234.5,133.9
		c5.7,0,10.2-0.2,13.5-0.6c3.2-0.4,4.9-1.2,4.9-2.3s-1.6-1.9-4.9-2.3c-3.2-0.4-7.7-0.6-13.5-0.6s-10.2,0.2-13.5,0.6
		c-3.2,0.4-4.9,1.2-4.9,2.3s1.6,1.9,4.9,2.3C224.2,133.7,228.7,133.9,234.5,133.9z"/>
</g>
</svg>
