<?xml version="1.0" encoding="utf-8"?>
<!-- Generator: Adobe Illustrator 27.1.1, SVG Export Plug-In . SVG Version: 6.00 Build 0)  -->
<svg version="1.2" baseProfile="tiny" id="chara_ワリオ1.svg"
	 xmlns="http://www.w3.org/2000/svg" xmlns:xlink="http://www.w3.org/1999/xlink" x="0px" y="0px" viewBox="0 0 288.3 147.4"
	 overflow="visible" xml:space="preserve">
<path id="WARIO" fill-rule="evenodd" fill="#373737" d="M110.5,22.7l5.4-16.5l-8.1-2.1l-2.5,10.2l-3.2-5.5l-4.2,4.9l-1-13.1
	l-9.8,1.6l4.1,19.6l7.3,0.8l2.9-5l2.1,5.5L110.5,22.7z M136.5,22.6L131,4.3l-10.4-1.5l-5.8,18.9l7.2,1.5l0.8-4l5.2-0.5l0.9,4.6
	L136.5,22.6z M127.2,14.2l-3.3-0.4l1-4.7l1.4,0.2L127.2,14.2z M158.3,20.1l-6.4-5.2l3.6-2.4l1.6-6.9l-8-5.6l-12.8,1.8L138,23l7-0.5
	l-0.1-6.6l5.5,7.8L158.3,20.1z M148.7,11.3l-3.8,0.8l-0.1-6.3l4.7,1.5L148.7,11.3z M164.8,22.5l3.4-17.3l-8.5-1.8L158.6,23
	L164.8,22.5z M188.5,20.5l1.3-10.3L184,4.1l-9-1.2l-6.8,7.8l2,10.3l9.5,3.4L188.5,20.5z M183.6,14.5L180,18l-4.1-1.6l-0.1-5l5.2-1.7
	L183.6,14.5z"/>
<g>
	<path fill="#F5DA00" d="M26.5,128.6v-7.8c-5.6-1.8-9.9-5.1-12.9-9.9C10.5,106,9,100.1,9,93c0-4.5,0.6-8.6,1.9-12.2s3.1-6.7,5.4-9.3
		c2.4-2.5,5.2-4.5,8.6-5.9s7.2-2.1,11.5-2.1c4.2,0,8.1,0.7,11.5,2.1c3.4,1.4,6.3,3.3,8.7,5.9c2.4,2.5,4.2,5.6,5.5,9.3
		c1.3,3.6,2,7.7,2,12.2c0,6.9-1.5,12.8-4.6,17.5c-3.1,4.8-7.3,8.1-12.7,10v8h19.9v16.8H7.5v-16.8h19V128.6z M36.4,105.5
		c2.3,0,4.1-1.1,5.4-3.2c1.3-2.1,2-5.2,2-9.3c0-4.2-0.7-7.3-2-9.4s-3.2-3.1-5.4-3.1c-4.8,0-7.2,4.2-7.2,12.5
		C29.3,101.3,31.7,105.5,36.4,105.5z M90.8,93.2h8.5v16.9h-8.5v37.3H70.5V64.5h20.3V93.2z"/>
	<path fill="#F5DA00" d="M105.3,83.3V66.5h51.8v48.7h-31.6v14.4H159v16.9h-53.8V98.3h31.6v-15H105.3z M186.9,147.4h-20.3V64.5h20.3
		V147.4z"/>
	<path fill="#F5DA00" d="M201.9,94.3c0-4.8,1-9,3.1-12.6s4.8-6.6,8.3-9.1c3.5-2.4,7.6-4.2,12.2-5.4c4.7-1.2,9.6-1.8,14.8-1.8
		s10.2,0.6,14.8,1.8c4.7,1.2,8.8,3,12.3,5.4s6.3,5.4,8.4,9.1c2.1,3.6,3.1,7.8,3.1,12.6c0,4-0.7,7.6-2.2,10.7c-1.5,3.2-3.5,5.9-6,8.3
		s-5.6,4.3-9,5.8c-3.5,1.5-7.2,2.6-11.2,3.3v8.1h32.2v16.9h-84.8v-16.9h32.2v-8.1c-4.1-0.7-7.8-1.7-11.3-3.2s-6.5-3.4-9-5.8
		s-4.5-5.1-6-8.3C202.7,101.9,201.9,98.3,201.9,94.3z M222.2,94.3c0,3.9,1.6,6.9,4.9,9c3.3,2.1,7.7,3.1,13.3,3.1
		c5.5,0,9.9-1,13.3-3.1s5-5,5-9s-1.7-6.9-5-9c-3.4-2.1-7.8-3.1-13.3-3.1c-5.6,0-10,1-13.3,3.1C223.9,87.4,222.2,90.4,222.2,94.3z"/>
</g>
</svg>
