<?xml version="1.0" encoding="utf-8"?>
<!-- Generator: Adobe Illustrator 27.1.1, SVG Export Plug-In . SVG Version: 6.00 Build 0)  -->
<svg version="1.2" baseProfile="tiny" id="chara_キノピオ.svg"
	 xmlns="http://www.w3.org/2000/svg" xmlns:xlink="http://www.w3.org/1999/xlink" x="0px" y="0px" viewBox="0 0 382.7 147.4"
	 overflow="visible" xml:space="preserve">
<path id="KINOPIO" fill-rule="evenodd" fill="#373737" d="M147.8,17.8l-8.1-6.1l6.5-6.9l-6.8-4.4l-5.1,8.2l-0.6-7.1l-8.1,0.7
	l2.9,21.1l7-0.6l-0.6-6.7l6.8,6.9L147.8,17.8z M154,22.5l3.4-17.3l-8.5-1.8L147.8,23L154,22.5z M180.4,21l0.1-20.3l-8.6,0.8l1,10.8
	l-7.6-10.7L157.5,4l3.2,19.7l7.2-0.6l-1-8.9l7.3,8.8L180.4,21z M202.3,20.5l1.3-10.3l-5.9-6.1l-9-1.2l-6.8,7.8l2,10.3l9.5,3.4
	L202.3,20.5z M197.4,14.5l-3.7,3.5l-4.1-1.6l-0.1-5l5.2-1.7L197.4,14.5z M223.4,13.1l1.6-7.6L217.1,0l-12.8,1.8L206,23l7-0.5
	l-0.1-6.1l5.7,0.6L223.4,13.1z M216.7,11.6l-3.8,0.5l-0.1-6.4l4.7,1.5L216.7,11.6z M231.4,22.5l3.4-17.3l-8.5-1.8L225.2,23
	L231.4,22.5z M255.2,20.5l1.3-10.3l-5.9-6.1l-9-1.2l-6.8,7.8l2,10.3l9.5,3.4L255.2,20.5z M250.3,14.5l-3.7,3.5l-4.1-1.6l-0.1-5
	l5.2-1.7L250.3,14.5z"/>
<g>
	<path fill="#16419B" d="M40.4,102.1V83.2H8.8V66.4h51.8v80H40.4v-27.3H8.8v-17H40.4z M90.3,147.3H70.1V64.4h20.3L90.3,147.3
		L90.3,147.3z"/>
	<path fill="#16419B" d="M126.7,105.3h54.9v16.9h-27.4v8.3h32.2v16.9h-84.8v-16.9h32.2v-8.3h-27.4V66.4h20.3V105.3z"/>
	<path fill="#16419B" d="M252.7,146.3H193v-16.9h5.9V83.2H193V66.4h59.7v16.9h-5.9v46.3h5.9V146.3z M218.2,129.5h9.3V83.2h-9.3
		V129.5z M278.5,147.3h-20.3V64.4h20.3V147.3z"/>
	<path fill="#16419B" d="M293.6,94.2c0-4.8,1-9,3.1-12.6s4.8-6.6,8.3-9.1c3.5-2.4,7.6-4.2,12.2-5.4c4.7-1.2,9.6-1.8,14.8-1.8
		c5.2,0,10.2,0.6,14.8,1.8c4.7,1.2,8.8,3,12.3,5.4s6.3,5.4,8.4,9.1c2.1,3.6,3.1,7.8,3.1,12.6c0,4-0.7,7.6-2.2,10.7
		c-1.5,3.2-3.5,5.9-6,8.3s-5.6,4.3-9,5.8c-3.5,1.5-7.2,2.6-11.2,3.3v8.1h32.2v16.9h-84.8v-16.9H322v-8.1c-4.1-0.7-7.8-1.7-11.3-3.2
		s-6.5-3.4-9-5.8s-4.5-5.1-6-8.3C294.3,101.8,293.6,98.2,293.6,94.2z M313.9,94.2c0,3.9,1.6,6.9,4.9,9s7.7,3.1,13.3,3.1
		c5.5,0,9.9-1,13.3-3.1s5-5,5-9s-1.7-6.9-5-9c-3.4-2.1-7.8-3.1-13.3-3.1c-5.6,0-10,1-13.3,3.1S313.9,90.3,313.9,94.2z"/>
</g>
</svg>
