<?xml version="1.0" encoding="utf-8"?>
<!-- Generator: Adobe Illustrator 27.1.1, SVG Export Plug-In . SVG Version: 6.00 Build 0)  -->
<svg version="1.2" baseProfile="tiny" id="chara_ルイージ.svg"
	 xmlns="http://www.w3.org/2000/svg" xmlns:xlink="http://www.w3.org/1999/xlink" x="0px" y="0px" viewBox="0 0 381.6 147.4"
	 overflow="visible" xml:space="preserve">
<path id="LUIGI" fill-rule="evenodd" fill="#373737" d="M161.3,22.1l0.2-8.8l-9.8,2.9l-0.3-14.8l-9,1.1l3,20.7L161.3,22.1z
	 M178.3,22.7l4.1-5L184,7.3l-8-1.4L175.4,16l-4.9,0.8l1.8-13L163.2,3l-0.9,15.4l4.9,4.3H178.3L178.3,22.7z M191.3,22.5l3.4-17.3
	l-8.5-1.8L185.1,23L191.3,22.5z M217.9,20.1l-0.4-10.5l-10.8,0.9l0.1,5.8l4.6-1.7l0.6,1.5l-4.1,1.6l-4.2-2.1l0.2-5.9l3.3-3.1
	l5.9,2.6l2.8-6.5L208,0l-8.8,2.3l-4.7,7.6l3.1,11l9.4,3.2L217.9,20.1z M225.5,22.5l3.4-17.3l-8.5-1.8L219.3,23L225.5,22.5z"/>
<g>
	<path fill="#02AA35" d="M54.3,117.5H139v16.8h-32.2v13.1H86.5v-13.1H54.3V117.5z M59.1,77.4V63.5h75.2v31.4H79.4v3.6h55.9v13.9
		H59.1V80.9h54.8v-3.5H59.1z"/>
	<path fill="#02AA35" d="M204.5,103.5c0,7.9-0.8,14.5-2.5,19.7c-1.7,5.3-3.9,9.5-6.6,12.6c-2.7,3.1-5.8,5.4-9.3,6.7s-7,2-10.6,2
		c-3.7,0-7.2-0.7-10.7-2s-6.6-3.5-9.3-6.7c-2.7-3.1-4.9-7.3-6.5-12.6s-2.5-11.8-2.5-19.7s0.8-14.5,2.5-19.7
		c1.6-5.3,3.8-9.5,6.5-12.6s5.8-5.4,9.3-6.7c3.5-1.3,7-2,10.7-2c3.6,0,7.1,0.7,10.6,2c3.5,1.3,6.6,3.5,9.3,6.7
		c2.7,3.1,4.9,7.3,6.6,12.6C203.7,89,204.5,95.5,204.5,103.5z M166.9,103.5c0,5,0.2,9.1,0.7,12.2s1.1,5.6,1.9,7.3
		c0.8,1.8,1.7,3,2.8,3.6c1,0.6,2.2,0.9,3.3,0.9s2.2-0.3,3.2-0.9s2-1.8,2.7-3.5c0.8-1.7,1.4-4.2,1.9-7.3c0.5-3.2,0.7-7.3,0.7-12.4
		c0-5-0.2-9.1-0.7-12.2s-1.1-5.6-1.9-7.3c-0.8-1.7-1.7-2.9-2.7-3.5s-2.1-0.9-3.2-0.9c-1.2,0-2.3,0.3-3.3,0.9s-2,1.8-2.8,3.6
		c-0.8,1.8-1.5,4.2-1.9,7.4C167.1,94.3,166.9,98.4,166.9,103.5z M231.2,144.4h-20.3V61.5h20.3V144.4z"/>
	<path fill="#02AA35" d="M298.8,63.5v16.8h-19v18.3c0,4.4-0.4,8.5-1.3,12.2l23.1,17.3l-10.1,15l-20.4-15.6
		c-2.7,3.7-6.2,6.8-10.2,9.5c-4.1,2.6-8.9,4.7-14.5,6.1l-8.7-14.8c7.4-2.1,12.9-5.5,16.5-10.2c3.5-4.7,5.3-11.3,5.3-19.6V80.3h-18
		V63.5H298.8z M325.2,144.4H305V61.5h20.3L325.2,144.4L325.2,144.4z"/>
</g>
</svg>
