<?xml version="1.0" encoding="utf-8"?>
<!-- Generator: Adobe Illustrator 27.1.1, SVG Export Plug-In . SVG Version: 6.00 Build 0)  -->
<svg version="1.2" baseProfile="tiny" id="chara_ドンキーコング.svg"
	 xmlns="http://www.w3.org/2000/svg" xmlns:xlink="http://www.w3.org/1999/xlink" x="0px" y="0px" viewBox="0 0 284 147.4"
	 overflow="visible" xml:space="preserve">
<path id="DONKEY_KONG" fill-rule="evenodd" fill="#373737" d="M41.6,22.6l5.6-5.9l0.9-9.9l-11-6.2L26,3.2l2.9,20.5L41.6,22.6z
	 M39.7,16.3l-4.2,1.6l-0.9-10l6.2,2.3L39.7,16.3z M68.7,20.5L70,10.2l-5.9-6.1l-9-1.2l-6.8,7.8l2,10.3l9.5,3.4L68.7,20.5z
	 M63.8,14.5L60.1,18L56,16.4l-0.1-5l5.2-1.7L63.8,14.5z M93.2,21.1l0.1-20.3l-8.6,0.8l1,10.8L78,1.6l-7.7,2.5l3.2,19.7l7.2-0.6
	l-1-8.9l7.3,8.8L93.2,21.1z M117.2,17.8l-8.1-6.1l6.5-6.9l-6.8-4.4l-5.1,8.2L103,1.5l-8.1,0.7l2.9,21.1l7-0.6l-0.6-6.7l6.8,6.9
	L117.2,17.8z M134.1,23.3l-0.8-5.9l-8.2,0.7l-0.4-2.5l6,0.9l1.1-4.9l-6.8-0.3l0.8-2.4L134,11l1.2-6l-16-2.3L116.4,15l2.4,7.5
	L134.1,23.3z M150.2,23.1l-0.6-7.1l9.9-10.4l-7.3-4.1l-5.3,8.3L143.8,0l-9.4,3l8.5,12.5l-1.5,6.9L150.2,23.1z M189,17.8l-8.1-6.1
	l6.5-6.9l-6.8-4.4l-5.1,8.2l-0.6-7.1l-8.1,0.7l2.9,21.1l7-0.6l-0.6-6.7l6.8,6.9L189,17.8z M208.4,20.5l1.3-10.3l-5.9-6.1l-9-1.2
	l-6.8,7.8l2,10.3l9.5,3.4L208.4,20.5z M203.5,14.5l-3.7,3.5l-4.1-1.6l-0.1-5l5.2-1.7L203.5,14.5z M232.8,21.1l0.1-20.3l-8.6,0.8
	l1,10.8l-7.6-10.7L210,4.2l3.2,19.7l7.2-0.6l-1-8.9l7.3,8.8L232.8,21.1z M257.4,20.1L257,9.6l-10.8,0.9l0.1,5.8l4.6-1.7l0.6,1.5
	l-4.1,1.6l-4.2-2.1l0.2-5.9l3.3-3.1l5.9,2.6l2.8-6.5L247.6,0l-8.8,2.3l-4.7,7.6l3.1,11l9.4,3.2L257.4,20.1z"/>
<g>
	<path fill="#762505" d="M2.3,94.5h33.1v-3.6H8.2V59.1h75.3v13.8H28V77h56.5v13.8H56.3v3.6h33.1v15.3H2.3V94.5z M45.9,147.4
		c-6.4,0-12-0.3-17-0.9c-4.9-0.6-9.1-1.6-12.5-3c-3.4-1.3-6-3.2-7.7-5.4c-1.7-2.3-2.6-4.9-2.6-8.1c0-3.2,0.8-6,2.6-8.1
		c1.7-2.2,4.3-4,7.7-5.4s7.5-2.4,12.5-3c4.9-0.6,10.6-0.9,17-0.9c6.3,0,11.9,0.3,16.9,0.9c4.9,0.6,9.2,1.6,12.6,3
		c3.4,1.3,6,3.2,7.7,5.4c1.7,2.2,2.6,4.9,2.6,8.1c0,3.2-0.8,6-2.6,8.1c-1.7,2.3-4.3,4-7.7,5.4c-3.4,1.3-7.6,2.4-12.6,3
		S52.2,147.4,45.9,147.4z M45.9,133.5c5.9,0,10.5-0.3,13.9-0.8c3.3-0.6,5-1.4,5-2.7c0-1.2-1.6-2.1-5-2.7c-3.3-0.6-7.9-0.8-13.9-0.8
		s-10.5,0.3-13.9,0.8c-3.3,0.6-5,1.4-5,2.7c0,1.2,1.6,2.1,5,2.7C35.3,133.2,40,133.5,45.9,133.5z"/>
	<path fill="#762505" d="M132.9,96.9V77.4h-32.5V60h53.3v82.3h-20.9v-28.1h-32.5V96.9H132.9z M184.2,143.4h-20.9V58.1h20.9V143.4z"
		/>
	<path fill="#762505" d="M256.2,89.1h-12.5v6H283v15.3h-87.3V95h27.2v-6h-21.2V75.7h54.4v-3.3h-54.4V59.1H277v33.1h-20.9v-3.1H256.2
		z M239.5,147.4c-6.4,0-12-0.3-17-0.9c-4.9-0.6-9.1-1.5-12.5-2.9s-6-3.1-7.7-5.2c-1.7-2.2-2.6-4.7-2.6-7.8s0.8-5.7,2.6-7.8
		c1.7-2.2,4.3-3.8,7.7-5.1c3.4-1.3,7.5-2.4,12.5-2.9c4.9-0.6,10.6-0.9,17-0.9c6.3,0,11.9,0.3,16.9,0.9c4.9,0.6,9.2,1.5,12.6,2.9
		c3.4,1.3,6,3.1,7.7,5.1c1.7,2.2,2.6,4.7,2.6,7.8c0,3.1-0.9,5.8-2.6,7.8c-1.7,2.2-4.3,3.9-7.7,5.2c-3.4,1.3-7.6,2.4-12.6,2.9
		C251.4,147,245.9,147.4,239.5,147.4z M239.5,133.5c5.9,0,10.5-0.2,13.9-0.6c3.3-0.4,5-1.2,5-2.4c0-1.1-1.6-2-5-2.4
		c-3.3-0.4-7.9-0.6-13.9-0.6s-10.5,0.2-13.9,0.6c-3.3,0.4-5,1.2-5,2.4c0,1.1,1.6,2,5,2.4C229,133.3,233.6,133.5,239.5,133.5z"/>
</g>
</svg>
