<?xml version="1.0" encoding="utf-8"?>
<!-- Generator: Adobe Illustrator 27.1.1, SVG Export Plug-In . SVG Version: 6.00 Build 0)  -->
<svg version="1.2" baseProfile="tiny" id="chara_ロゼッタ.svg"
	 xmlns="http://www.w3.org/2000/svg" xmlns:xlink="http://www.w3.org/1999/xlink" x="0px" y="0px" viewBox="0 0 391.9 147.4"
	 overflow="visible" xml:space="preserve">
<path id="ROSETTA" fill-rule="evenodd" fill="#373737" d="M142.3,20.1l-6.4-5.2l3.6-2.4l1.6-6.9l-8-5.6l-12.8,1.8L122,23l7-0.5
	l-0.1-6.6l5.5,7.8L142.3,20.1z M132.7,11.3l-3.8,0.8l-0.1-6.3l4.7,1.5L132.7,11.3z M162,20.5l1.3-10.3l-5.9-6.1l-9-1.2l-6.8,7.8
	l2,10.3l9.5,3.4L162,20.5z M157.1,14.5l-3.7,3.5l-4.1-1.6l-0.1-5l5.2-1.7L157.1,14.5z M181.4,22.4l4.3-8.2l-11.9-5.8l1.5-2.4
	l6.2,3.8l3.1-5.8l-7.2-3.6L167.9,2l-4.3,7.5l11.6,5.6l-1.8,2.6l-6.9-4.3l-3.3,5.4l7.2,4.7L181.4,22.4z M203.1,23.2l-0.8-5.9
	l-8.2,0.7l-0.4-2.5l6,0.9l1.1-4.9l-6.8-0.3l0.8-2.4l8.3,2.2l1.2-6l-16-2.3L185.5,15l2.4,7.5L203.1,23.2z M221.4,22.4l-2.5-13.7
	l7.5-1.1l-0.6-6.7L204,2l0.8,8.8l7.8-1.2l0.2,13.5L221.4,22.4z M243.4,22.4l-2.5-13.7l7.5-1.1l-0.6-6.7L226.1,2l0.8,8.8l7.8-1.2
	l0.2,13.5L243.4,22.4z M268.1,22.6l-5.6-18.2l-10.4-1.6l-5.8,18.9l7.2,1.5l0.8-4l5.2-0.5l0.9,4.6L268.1,22.6z M258.8,14.2l-3.3-0.4
	l1-4.7l1.4,0.2L258.8,14.2z"/>
<g>
	<path fill="#12D5B7" d="M10.5,79.4V64.5h75.2v35.3H30.8v5.6h55.9v14.9H58.2v8.3h32.2v16.9H5.7v-16.9h32.2v-8.3H10.5V84.8h54.8v-5.5
		L10.5,79.4L10.5,79.4z"/>
	<path fill="#12D5B7" d="M144.4,63.5v16.9h-14.1c-0.1,0.5-0.1,1-0.1,1.5s-0.1,0.9-0.2,1.5l17.2,8.2l-10,13l-14.5-8.7
		c-2.4,2.3-5.2,4.2-8.5,5.6c-3.2,1.5-6.7,2.5-10.4,3l-8.2-12.8c2.8-0.6,5.2-1.3,7.1-2c1.9-0.8,3.5-1.6,4.7-2.5s2.1-2,2.7-3.1
		s0.9-2.4,1.1-3.7H98.8V63.5H144.4z M173.5,121.7v-2.9h-68.3v-11.4h88.6v25.7h-68.3v2.9h69.3v11.4h-89.6v-25.7L173.5,121.7
		L173.5,121.7z M154.4,104V85.9l-7.6,2.1V70.4l7.6-2.1v-5.9h18v41.5L154.4,104L154.4,104z M193.8,104h-18.1V62.5h18.1V104z"/>
	<path fill="#12D5B7" d="M204.9,81.3V64.5h51.8v48.7h-31.6v14.4h33.5v16.9h-53.8V96.3h31.6v-15H204.9z M286.5,145.4h-20.3V62.5h20.3
		V145.4z"/>
	<path fill="#12D5B7" d="M319.3,64.5v63.1h29.6v16.9H299v-80C299,64.5,319.3,64.5,319.3,64.5z M377.6,91.2h8.5v16.9h-8.5v37.3h-20.3
		V62.5h20.3V91.2z"/>
</g>
</svg>
