<?xml version="1.0" encoding="utf-8"?>
<!-- Generator: Adobe Illustrator 27.1.1, SVG Export Plug-In . SVG Version: 6.00 Build 0)  -->
<svg version="1.2" baseProfile="tiny" id="Layer_1" xmlns="http://www.w3.org/2000/svg" xmlns:xlink="http://www.w3.org/1999/xlink"
	 x="0px" y="0px" viewBox="0 0 43 24.4" overflow="visible" xml:space="preserve">
<g>
	<path fill="#5A1D0C" d="M13.8,12.3C11.2,12.8,8.7,13,3.5,13H1.6V2.4h10.1v3H5.4v4.4c3.8,0,5.8-0.2,8-0.6L13.8,12.3z M7.6,20.3h11.6
		v3H3.8v-8.8h15.1v3H7.6V20.3z M21.5,5.8V9h-2.8v4.7h-3.9V1.1h3.9v4.8H21.5z"/>
	<path fill="#5A1D0C" d="M35.1,3.4c0,7.1-2,12.7-10.2,16.6l-2-3c5.6-2.7,7.8-5.8,8.3-10.6h-7v-3H35.1z M41.9,1.1v22.5H38V1.1H41.9z"
		/>
</g>
</svg>
