<?xml version="1.0" encoding="utf-8"?>
<!-- Generator: Adobe Illustrator 27.1.1, SVG Export Plug-In . SVG Version: 6.00 Build 0)  -->
<svg version="1.2" baseProfile="tiny" id="Layer_1" xmlns="http://www.w3.org/2000/svg" xmlns:xlink="http://www.w3.org/1999/xlink"
	 x="0px" y="0px" viewBox="0 0 134.4 14.8" overflow="visible" xml:space="preserve">
<g>
	<path fill="#FFFFFF" d="M9,3.4H0.5V2.1h3.4V0.4h1.6v1.7H9V3.4z M4.7,9.5c-2.1,0-3.5-1.1-3.5-2.7s1.4-2.7,3.5-2.7s3.5,1.1,3.5,2.7
		C8.2,8.5,6.8,9.5,4.7,9.5z M4.2,13.3h8.1v1.3H2.6v-4.2h1.7v2.9H4.2z M4.7,8.3c1.2,0,1.9-0.5,1.9-1.5c0-0.9-0.8-1.5-1.9-1.5
		S2.8,5.8,2.8,6.8C2.8,7.7,3.6,8.3,4.7,8.3z M13.8,5v1.4h-2v4.9h-1.6V0.4h1.6V5H13.8z"/>
	<path fill="#FFFFFF" d="M22.5,7.5v2.4h4.2v5H25v-3.7h-8.5V9.9h4.4V7.5h-5.7V6.2h9.5C25,4.6,25,3.5,25,2.4h-8.2V1.1h9.8v1.1
		c0,1.1,0,2.3-0.3,4h2v1.3H22.5z"/>
	<path fill="#FFFFFF" d="M39,7.6c-2.4,0.5-4.5,0.6-7,0.6h-1.2V1.5h1.6v5.4c2.2,0,4.2-0.2,6.4-0.6L39,7.6z M42.2,13.3v1.3h-9.9V9.8
		h1.6v3.5H42.2z M41.8,10.9h-1.6V0.4h1.6V10.9z"/>
	<path fill="#FFFFFF" d="M51.4,8.7c-1.6,0.3-3,0.4-5.3,0.4h-0.9V1.6h5.5v1.3h-3.9v1.7h3.3v1.3h-3.3v1.8c1.8,0,3-0.1,4.5-0.4
		L51.4,8.7z M57.2,13.3v1.3h-9.9v-4.5H49v3.2H57.2z M52.5,5.8h-1.7V4.5h1.7V0.7H54v10.2h-1.5V5.8z M56.8,11.3h-1.6V0.4h1.6V11.3z"/>
	<path fill="#FFFFFF" d="M72.4,11.8v1.4H59.3v-1.4H65V8.4h-4.1V1.5h9.9v1.3h-8.2V7H71v1.3h-4.3v3.4L72.4,11.8L72.4,11.8z"/>
	<path fill="#FFFFFF" d="M90.7,8.3v1.3H77.6V8.3h5.7V7.4c-2.5-0.1-3.9-0.8-3.9-2c0-1.4,1.7-2.1,4.8-2.1c3,0,4.7,0.7,4.7,2.1
		c0,1.2-1.4,1.9-3.9,2v0.9C85,8.3,90.7,8.3,90.7,8.3z M90,2.8H78.3V1.6h5.1V0.3H85v1.3h5V2.8z M79.2,10.6h9.9v4.2h-9.9V10.6z
		 M80.8,13.5h6.7v-1.7h-6.7V13.5z M84.2,6.3c2,0,3-0.3,3-0.9s-1-0.9-3-0.9s-3,0.3-3,0.9S82.2,6.3,84.2,6.3z"/>
	<path fill="#FFFFFF" d="M98,9.9c0.5,0,0.9-0.1,1.3-0.2l0.1,1.2c-2.3,0.4-5.2,0.5-7.1,0.5L92.1,10c0.4,0,0.8,0,1.3,0V3.5h-1V2.2H99
		v1.3h-1V9.9z M95,10.1c0.5,0,1,0,1.5-0.1V3.5H95V10.1z M100.4,0.8h1.6v13.4h-1.6V7.3h-1.7V5.8h1.7V0.8z M104.8,0.4v14.5h-1.6V0.4
		H104.8z"/>
	<path fill="#FFFFFF" d="M115,6.6c0,3.1-1.6,5.1-3.7,5.1s-3.7-2-3.7-5.1s1.6-5.1,3.7-5.1S115,3.5,115,6.6z M109.1,6.6
		c0,2.3,0.9,3.6,2.1,3.6c1.3,0,2.1-1.4,2.1-3.6S112.4,3,111.2,3S109.1,4.3,109.1,6.6z M119,0.4v14.5h-1.7V0.4H119z"/>
	<path fill="#FFFFFF" d="M127.1,4.6c0,2.4,1.5,4.9,3.7,5.9l-0.9,1.3c-1.7-0.7-3-2.3-3.6-4.2c-0.6,2-1.9,3.7-3.6,4.5l-0.9-1.3
		c2.2-1,3.7-3.7,3.7-6.2V3.2h-3.2V1.9h8.1v1.4h-3.2v1.3H127.1z M133.7,0.4v14.5H132V0.4H133.7z"/>
</g>
</svg>
