<?xml version="1.0" encoding="utf-8"?>
<!-- Generator: Adobe Illustrator 27.1.1, SVG Export Plug-In . SVG Version: 6.00 Build 0)  -->
<svg version="1.2" baseProfile="tiny" id="Layer_1" xmlns="http://www.w3.org/2000/svg" xmlns:xlink="http://www.w3.org/1999/xlink"
	 x="0px" y="0px" viewBox="0 0 116.3 15.7" overflow="visible" xml:space="preserve">
<g>
	<path fill="#FFFFFF" d="M7,2.3c0,4.1-1.2,7.5-5.3,9.9l-1.2-1.5C3.5,9,4.7,6.8,5,3.9H1.2V2.3H7z M13.2,0.5v14.7h-2V7.7H9.9v6.9h-2
		V0.9h2v5.2h1.3V0.5H13.2z"/>
	<path fill="#FFFFFF" d="M19.6,8.9c-2.3,0-4-1.6-4-3.7c0-2.2,1.8-3.7,4-3.7s4,1.6,4,3.7S21.8,8.9,19.6,8.9z M19.6,7.1
		c1.1,0,1.9-0.7,1.9-1.9s-0.8-1.9-1.9-1.9s-2,0.7-2,1.9S18.5,7.1,19.6,7.1z M27.9,13.3V15H17.8v-4.9h2.1v3.2
		C19.9,13.3,27.9,13.3,27.9,13.3z M27.6,11.1h-2.1V0.5h2.1V11.1z"/>
	<path fill="#FFFFFF" d="M37.9,8.9c-1.6-0.5-2.7-1.6-3.3-2.9c-0.6,1.5-1.8,2.7-3.5,3.3L30,7.6c2.3-0.8,3.4-2.7,3.5-4.5h-2.9V1.4h7.9
		v1.7h-2.9c0.1,1.7,1.1,3.4,3.3,4.1L37.9,8.9z M42.4,12.4c0,1.8-1.9,2.8-5,2.8s-5.1-1-5.1-2.8s1.9-2.8,5.1-2.8
		C40.5,9.6,42.4,10.6,42.4,12.4z M40.3,12.4c0-0.8-1-1.2-2.9-1.2s-2.9,0.4-2.9,1.2s1,1.2,2.9,1.2C39.3,13.7,40.3,13.2,40.3,12.4z
		 M40.3,4V0.5h2.1v8.8h-2.1V5.8h-2.2V4H40.3z"/>
	<path fill="#FFFFFF" d="M58.1,11.8v1.7H44.8v-1.7h5.6V9.1h-4.2V1.4h2.1v2.3h6.3V1.4h2.1v7.7h-4.2v2.7
		C52.5,11.8,58.1,11.8,58.1,11.8z M48.3,7.4h6.3v-2h-6.3V7.4z"/>
	<path fill="#FFFFFF" d="M65,5.1c0,2.1,1.1,4.5,3.5,5.6l-1.1,1.6c-1.6-0.7-2.8-2.1-3.4-3.8c-0.6,1.8-1.8,3.2-3.4,4l-1.1-1.6
		C61.9,9.8,63,7.3,63,5.1V4.6h-3V2.9h3v-2h2.1v2H68v1.7h-2.9L65,5.1L65,5.1z M71.9,0.5v14.8h-2.1V7.8h-2.6V6.1h2.6V0.5H71.9z"/>
	<path fill="#FFFFFF" d="M77.2,10.1c2.2,0,4.1-0.1,6.2-0.5l0.2,1.7c-2.4,0.4-4.6,0.5-7.2,0.5h-1.3v-6h4.8V3.4h-4.8V1.7h7v5.7h-4.8
		L77.2,10.1L77.2,10.1z M86.5,0.5v14.8h-2.1V0.5H86.5z"/>
	<path fill="#FFFFFF" d="M96.4,8.4h-7.1v-7h2.1v1.8h2.9V1.4h2.1V8.4z M100.7,12.4c0,1.8-1.9,2.9-5,2.9s-5-1.1-5-2.9s1.9-2.9,5-2.9
		C98.8,9.5,100.7,10.6,100.7,12.4z M94.3,4.9h-2.9v1.8h2.9V4.9z M98.6,12.4c0-0.8-1-1.2-2.9-1.2s-2.9,0.4-2.9,1.2s1,1.2,2.9,1.2
		S98.6,13.2,98.6,12.4z M102.5,3.9v1.7h-2v3.6h-2.1V0.5h2.1v3.4H102.5z"/>
	<path fill="#FFFFFF" d="M111.9,8.8c-1.7-0.4-2.8-1.4-3.5-2.6c-0.7,1.3-1.9,2.4-3.6,2.8l-1-1.6c2.3-0.6,3.4-2.2,3.5-3.8h-3V1.9h3
		V0.4h2.1v1.5h3v1.7h-3c0.1,1.5,1.2,3,3.5,3.6L111.9,8.8z M106.1,9.8h9.8v5.3h-9.8V9.8z M108.2,13.4h5.7v-2h-5.7V13.4z M115.9,0.5
		v8.6h-2.1V0.5H115.9z"/>
</g>
</svg>
