<?xml version="1.0" encoding="utf-8"?>
<!-- Generator: Adobe Illustrator 27.1.1, SVG Export Plug-In . SVG Version: 6.00 Build 0)  -->
<svg version="1.2" baseProfile="tiny" id="Layer_1" xmlns="http://www.w3.org/2000/svg" xmlns:xlink="http://www.w3.org/1999/xlink"
	 x="0px" y="0px" viewBox="0 0 65.3 23.7" overflow="visible" xml:space="preserve">
<g>
	<path fill="#5A1D0C" d="M5.3,15.3c2.8,0,5.3-0.2,7.9-0.6l0.4,3.1c-3.3,0.6-6.5,0.7-10.2,0.7H1.4V8.9H8v-3H1.4v-3h10.5v9.1H5.3V15.3
		z M21.3,12.4h-3v11.2h-3.9V1h3.9v8.3h3V12.4z"/>
	<path fill="#5A1D0C" d="M29.1,14c-3.5,0-6.3-2.5-6.3-5.8c0-3.4,2.8-5.8,6.3-5.8s6.3,2.4,6.3,5.8C35.3,11.5,32.6,14,29.1,14z
		 M42,20.2v3H26.1v-7.7H30v4.7H42z M29.1,10.7c1.4,0,2.5-0.8,2.5-2.5c0-1.7-1.1-2.5-2.5-2.5s-2.5,0.8-2.5,2.5
		C26.6,9.8,27.7,10.7,29.1,10.7z M41.4,17.1h-3.9V1h3.9V17.1z"/>
	<path fill="#5A1D0C" d="M63.7,1v12.1h-3.9V8.9h-3.1c-0.7,2.4-3,4-5.8,4c-3.4,0-6-2.3-6-5.5c0-3.1,2.6-5.4,6-5.4
		c2.8,0,5.1,1.6,5.8,3.9h3.1V1H63.7z M59.8,14.1h3.8v9.3H48.4v-9.3h3.8v1.8h7.6V14.1z M53.2,7.4c0-1.5-1-2.3-2.3-2.3
		c-1.3,0-2.3,0.8-2.3,2.3c0,1.5,1,2.3,2.3,2.3C52.3,9.6,53.2,8.8,53.2,7.4z M59.8,18.7h-7.6v1.5h7.6V18.7z"/>
</g>
</svg>
