<?xml version="1.0" encoding="utf-8"?>
<!-- Generator: Adobe Illustrator 27.1.1, SVG Export Plug-In . SVG Version: 6.00 Build 0)  -->
<svg version="1.2" baseProfile="tiny" id="Layer_1" xmlns="http://www.w3.org/2000/svg" xmlns:xlink="http://www.w3.org/1999/xlink"
	 x="0px" y="0px" viewBox="0 0 68 22.7" overflow="visible" xml:space="preserve">
<g>
	<path fill="#E51E26" d="M12.8,3.3c0,6.5-1.4,11.3-7.8,15.1l-2-2.6c2.4-1.4,4-3,5-4.8l-4.3,0.5L3.2,8.4l5.7-0.3
		c0.1-0.6,0.2-1.2,0.3-1.9H4.3V3.3H12.8z M21.8,0.9v21.6h-3.5V11.8h-1.3v9.8h-3.4V1.3h3.4v7.5h1.3V0.9H21.8z"/>
	<path fill="#E51E26" d="M37.7,12.8c-3,0.5-5.9,0.6-10.3,0.6h-2V6.3h6.3V4.9h-6.3V2h10v7H29v1.5c3.4,0,5.7-0.1,8.2-0.6L37.7,12.8z
		 M27.4,15h14.9v7.5h-3.7v-4.6H27.4V15z M42.3,0.8v13.3h-3.7V0.8H42.3z"/>
	<path fill="#E51E26" d="M50.1,14.8c2.5,0,4.7-0.1,7.2-0.5l0.3,2.9c-3.1,0.5-6,0.5-9.4,0.5h-1.8V2.5h10v3h-6.3v3h5.7v2.9h-5.7V14.8z
		 M63.7,0.8v21.7H60V11.1h-3.3v-3H60V0.8H63.7z"/>
</g>
</svg>
