<?xml version="1.0" encoding="utf-8"?>
<!-- Generator: Adobe Illustrator 27.1.1, SVG Export Plug-In . SVG Version: 6.00 Build 0)  -->
<svg version="1.2" baseProfile="tiny" id="Layer_1" xmlns="http://www.w3.org/2000/svg" xmlns:xlink="http://www.w3.org/1999/xlink"
	 x="0px" y="0px" viewBox="0 0 84.5 22.7" overflow="visible" xml:space="preserve">
<g>
	<path fill="#373737" d="M2.5,3.6H7V0.8h3.9v2.8h4.5v3H2.5V3.6z M9,7.4c3.3,0,5.7,2.2,5.7,5.3c0,3.1-2.5,5.3-5.7,5.3
		c-3.3,0-5.7-2.2-5.7-5.3C3.2,9.6,5.7,7.4,9,7.4z M9,14.9c1.3,0,2.1-0.7,2.1-2.3c0-1.5-0.8-2.2-2.1-2.3c-1.3,0-2.1,0.8-2.1,2.3
		C6.8,14.2,7.7,14.9,9,14.9z M20.4,22.2h-3.8V0.4h3.8V22.2z"/>
	<path fill="#373737" d="M22.9,16.6h19.9v3.1H22.9V16.6z M42.2,10.3l-1.6,3.1c-4-0.7-6.6-2.7-7.9-5.2c-1.4,2.5-4,4.5-7.9,5.2
		l-1.6-3.1c5.5-1,7.5-4.4,7.5-7.2V1.6h4.1v1.5C34.7,6,36.6,9.4,42.2,10.3z"/>
	<path fill="#373737" d="M61.5,13.9h-6V17h8v3H43.7v-3h8v-3.1h-5.8V1.8h15.5v3H49.7v1.6h11.1v2.9H49.7v1.6h11.8V13.9z"/>
	<path fill="#373737" d="M65.6,8h6.6V5.2h-6.6v-3h10.5V11h-6.6v3.3c3.1,0,5.7-0.2,8.4-0.7l0.3,3c-3.3,0.6-6.5,0.7-10.6,0.7h-2V8z
		 M82.9,22.3h-3.8V0.4h3.8V22.3z"/>
</g>
</svg>
