<?xml version="1.0" encoding="utf-8"?>
<!-- Generator: Adobe Illustrator 27.1.1, SVG Export Plug-In . SVG Version: 6.00 Build 0)  -->
<svg version="1.2" baseProfile="tiny" id="Layer_1" xmlns="http://www.w3.org/2000/svg" xmlns:xlink="http://www.w3.org/1999/xlink"
	 x="0px" y="0px" viewBox="0 0 84.8 22.7" overflow="visible" xml:space="preserve">
<g>
	<path fill="#E51E26" d="M2.9,3.8h4.5V1h3.8v2.8h4.5v3H2.9V3.8z M9.3,7.6c3.3,0,5.7,2.2,5.7,5.3c0,3.1-2.5,5.3-5.7,5.3
		c-3.3,0-5.7-2.2-5.7-5.3C3.6,9.8,6,7.5,9.3,7.6z M9.3,15.1c1.3,0,2.1-0.7,2.1-2.2c0-1.5-0.8-2.2-2.1-2.2c-1.3,0-2.1,0.8-2.1,2.2
		C7.2,14.3,8,15.1,9.3,15.1z M20.7,22.3h-3.8V0.6h3.8V22.3z"/>
	<path fill="#E51E26" d="M23.1,16.8H43v3.1H23.1V16.8z M42.4,10.5l-1.6,3.1c-4-0.7-6.5-2.7-7.9-5.2c-1.4,2.5-4,4.5-7.9,5.2l-1.6-3.1
		c5.5-0.9,7.4-4.4,7.5-7.2V1.8h4.1v1.5C34.9,6.2,36.8,9.6,42.4,10.5z"/>
	<path fill="#E51E26" d="M61.6,14h-6v3.1h8v3H43.9v-3h8V14h-5.8V2h15.4v3H49.9v1.6H61v2.9H49.9v1.6h11.7V14z"/>
	<path fill="#E51E26" d="M65.7,8.2h6.6V5.4h-6.6v-3h10.4v8.8h-6.5v3.2c3.1,0,5.6-0.2,8.4-0.7l0.3,3c-3.3,0.6-6.4,0.7-10.5,0.7h-2
		V8.2z M83,22.4h-3.8V0.6H83V22.4z"/>
</g>
</svg>
