<?xml version="1.0" encoding="utf-8"?>
<!-- Generator: Adobe Illustrator 27.1.1, SVG Export Plug-In . SVG Version: 6.00 Build 0)  -->
<svg version="1.2" baseProfile="tiny" id="Layer_1" xmlns="http://www.w3.org/2000/svg" xmlns:xlink="http://www.w3.org/1999/xlink"
	 x="0px" y="0px" viewBox="0 0 249.9 119.3" overflow="visible" xml:space="preserve">
<path fill-rule="evenodd" fill="#FFFFFF" d="M62.5,60.3V1.1H42.9l-11.6,39h-0.2l-11.8-39H0v59.2h13.9l-0.5-44.9l12.8,44.9h10
	l12.6-44.5L49,16l-0.5,44.3H62.5z M101.8,61.4c17,0,30.6-13.6,30.6-31.1c0-17-14-30.3-31.3-30.3c-18,0-31.2,13.8-31.2,32.1
	C69.9,49.6,85.3,61.4,101.8,61.4L101.8,61.4z M101.3,48.2c-9.7,0-16.3-7.8-16.3-17.6c0-9.4,6.6-17.3,16.1-17.3s16.2,8.2,16.2,17.5
	C117.2,40.2,110.7,48.2,101.3,48.2z M167.2,60.3L187,1.1h-15.6l-12,41.5h-0.2L147.4,1.1h-15.5l19.8,59.2H167.2z M206.9,60.3V1.1
	h-15.1v59.2H206.9z M249.9,60.3V47h-18.4V36.9h17.8V23.6h-17.8v-9.2h18.4V1.1H217v59.2H249.9z"/>
<g>
	<path fill="#FFFFFF" d="M54.2,111.5H38.1v-22h16.1V111.5z M48.5,107.1V93.9h-4.9v13.1H48.5z M57.6,86.6h5.7v11.9h4.4v4.7h-4.4v16.1
		h-5.7V86.6z"/>
	<path fill="#FFFFFF" d="M70.2,97.9h9.9v-4.3h-9.9v-4.5h15.7v13.2h-9.9v4.9c4.7-0.1,8.5-0.3,12.7-1l0.5,4.6c-5,0.9-9.7,1.1-15.9,1.1
		h-3.1V97.9z M96.2,119.4h-5.7V86.6h5.7V119.4z"/>
	<path fill="#FFFFFF" d="M127.3,97.2c0,5-4.1,8.3-9.7,9.2v4.8h12.2v4.6H99.8v-4.6h12.1v-4.8c-5.7-0.8-9.7-4.2-9.7-9.1
		c0-5.5,5.4-9.2,12.5-9.2C121.8,88,127.3,91.7,127.3,97.2z M114.8,102c4.1,0,6.9-1.6,6.9-4.8c0-3-2.8-4.7-6.9-4.7
		c-4.1,0-6.9,1.7-6.9,4.7C107.9,100.4,110.6,102,114.8,102z"/>
	<path fill="#FFFFFF" d="M154.5,90.6h6.7v-4.1h5.7v19.1h-5.7v-3.4h-6.8c-1.6,1.5-3.8,2.4-6.2,2.3c-5,0-8.9-3.5-8.8-8.1
		c0-4.7,3.9-8.2,8.8-8.2C150.7,88.2,152.9,89.1,154.5,90.6z M155.5,106.2c7,0,11.5,2.4,11.5,6.5c0,4.1-4.4,6.6-11.5,6.6
		c-7,0-11.4-2.5-11.4-6.6C144.1,108.6,148.5,106.2,155.5,106.2z M148.2,99.7c2,0,3.4-1.2,3.4-3.4c0-2.3-1.4-3.4-3.4-3.4
		c-2.1,0-3.5,1.1-3.5,3.4C144.7,98.6,146.2,99.8,148.2,99.7z M155.5,115c4,0,5.9-0.6,5.9-2.2c0-1.6-1.9-2.2-5.9-2.3
		c-3.9,0-5.9,0.7-5.8,2.3C149.6,114.3,151.6,115,155.5,115z M161.2,97.7v-2.7h-4.3c0.1,0.4,0.1,0.9,0.1,1.3c0,0.5,0,0.9-0.1,1.3
		H161.2z"/>
	<path fill="#FFFFFF" d="M177.4,109.7v-2.3c-3.3-0.8-5.4-3-5.3-5.9c0-3.6,3.4-6.2,8.2-6.2c4.7,0,8.2,2.5,8.2,6.2
		c0,2.9-2.2,5.1-5.4,5.9v2.1c2.3-0.1,4.6-0.3,6.8-0.6l0.4,4.1c-6.9,1.3-14.2,1.4-19.6,1.3l-0.7-4.6
		C172.2,109.7,174.7,109.7,177.4,109.7z M170.6,90h6.8v-3.1h5.7V90h6.7v4.4h-19.2V90z M180.3,103.4c1.6,0,2.8-0.6,2.8-1.9
		c0-1.3-1.1-1.9-2.8-1.9c-1.7,0-2.9,0.6-2.8,1.9C177.4,102.8,178.6,103.4,180.3,103.4z M197,99.5h3.7v4.7H197v15.1h-5.7V86.6h5.7
		V99.5z"/>
</g>
</svg>
