<?xml version="1.0" encoding="utf-8"?>
<!-- Generator: Adobe Illustrator 27.1.1, SVG Export Plug-In . SVG Version: 6.00 Build 0)  -->
<svg version="1.2" baseProfile="tiny" id="Layer_1" xmlns="http://www.w3.org/2000/svg" xmlns:xlink="http://www.w3.org/1999/xlink"
	 x="0px" y="0px" viewBox="0 0 188.2 82.7" overflow="visible" xml:space="preserve">
<path fill-rule="evenodd" fill="#FFFFFF" d="M47.7,46.2V1.8H33L24.3,31h-0.1L15.4,1.8H0.8v44.4h10.4l-0.4-33.7l9.6,33.7h7.5
	l9.5-33.3l0.1,0.1l-0.4,33.2C37.1,46.2,47.7,46.2,47.7,46.2z M77.3,47.1c12.7,0,22.9-10.3,22.9-22.9c0-0.1,0-0.3,0-0.4
	C100.3,11,89.8,1,76.8,1C63.3,1,53.4,11.3,53.4,25.1C53.4,38.2,65,47.1,77.3,47.1L77.3,47.1z M77,37.1c-7.3,0-12.2-5.9-12.2-13.2
	c0-7,5-13,12.1-13C84,10.9,89,17.1,89,24C88.9,31.2,84,37.1,77,37.1L77,37.1z M126.7,46.2l14.9-44.4h-11.8l-9,31.2h-0.1l-8.9-31.2
	h-11.7l14.8,44.4H126.7z M156.6,46.2V1.8h-11.3v44.4H156.6z M189,46.2v-10h-13.8v-7.6h13.4v-10h-13.4v-6.9H189v-10h-24.7v44.4
	L189,46.2z"/>
<g>
	<path fill="#FFFFFF" d="M48.5,76.3H37V60.6h11.6V76.3z M44.5,73.1v-9.4H41v9.4H44.5z M51,58.4h4.1v8.5h3.2v3.4h-3.2v11.6H51V58.4z"
		/>
	<path fill="#FFFFFF" d="M60,66.6h7.1v-3.1H60v-3.2h11.3v9.5h-7.1v3.5c3.4,0,6.1-0.2,9.1-0.7l0.3,3.3c-3.6,0.7-7,0.8-11.4,0.8H60
		V66.6z M78.7,82h-4.1V58.4h4.1V82z"/>
	<path fill="#FFFFFF" d="M101,66c0,3.6-2.9,6-7,6.6V76h8.7v3.3H81.3V76H90v-3.4c-4.1-0.6-6.9-3-6.9-6.6c0-3.9,3.9-6.6,9-6.6
		C97.1,59.4,101,62.1,101,66z M92,69.5c3,0,4.9-1.1,5-3.5c0-2.1-2-3.4-5-3.4c-3,0-4.9,1.2-4.9,3.4C87.1,68.4,89.1,69.5,92,69.5z"/>
	<path fill="#FFFFFF" d="M120.6,61.3h4.8v-2.9h4.1v13.7h-4.1v-2.5h-4.8c-1.1,1.1-2.7,1.7-4.5,1.7c-3.6,0-6.4-2.5-6.3-5.8
		c0-3.4,2.8-5.9,6.3-5.9C117.8,59.6,119.4,60.2,120.6,61.3z M121.3,72.5c5,0,8.2,1.7,8.2,4.7s-3.2,4.7-8.2,4.7c-5,0-8.2-1.8-8.2-4.7
		C113.1,74.3,116.3,72.5,121.3,72.5z M116.1,67.9c1.4,0,2.4-0.9,2.4-2.4c0-1.6-1-2.4-2.4-2.4c-1.5,0-2.5,0.8-2.5,2.4
		C113.5,67,114.6,67.9,116.1,67.9z M121.3,78.8c2.9,0,4.2-0.4,4.2-1.6c0-1.2-1.3-1.6-4.2-1.6c-2.8,0-4.2,0.5-4.2,1.6
		C117.1,78.3,118.5,78.8,121.3,78.8z M125.4,66.4v-1.9h-3.1c0.1,0.3,0.1,0.6,0.1,0.9c0,0.3,0,0.6-0.1,1H125.4z"/>
	<path fill="#FFFFFF" d="M137,75v-1.7c-2.3-0.6-3.8-2.2-3.8-4.2c0-2.6,2.4-4.4,5.9-4.4c3.4,0,5.9,1.8,5.9,4.4c0,2.1-1.5,3.7-3.9,4.2
		v1.5c1.7-0.1,3.3-0.2,4.8-0.4l0.3,2.9c-4.9,1-10.2,1-14.1,1l-0.5-3.3C133.2,75,135.1,75,137,75z M132.1,60.9h4.9v-2.3h4.1v2.3h4.8
		V64h-13.8V60.9z M139.1,70.5c1.2,0,2-0.4,2-1.4c0-0.9-0.8-1.4-2-1.4c-1.2,0-2.1,0.5-2,1.4C137,70.1,137.8,70.5,139.1,70.5z
		 M151,67.7h2.6V71H151v10.9h-4.1V58.4h4.1V67.7z"/>
</g>
</svg>
