<?xml version="1.0" encoding="utf-8"?>
<!-- Generator: Adobe Illustrator 27.1.1, SVG Export Plug-In . SVG Version: 6.00 Build 0)  -->
<svg version="1.2" baseProfile="tiny" id="chara_クッパ.svg"
	 xmlns="http://www.w3.org/2000/svg" xmlns:xlink="http://www.w3.org/1999/xlink" x="0px" y="0px" viewBox="0 0 297.5 147.4"
	 overflow="visible" xml:space="preserve">
<path id="KOOPA" fill-rule="evenodd" fill="#373737" d="M115.4,17.8l-8.1-6.1l6.5-6.9L107,0.4l-5.1,8.2l-0.6-7.1l-8.1,0.7l2.8,21
	l7-0.6l-0.6-6.7l6.8,6.9L115.4,17.8z M134.8,20.5l1.3-10.3l-5.9-6.1l-9-1.2l-6.8,7.8l2,10.3l9.5,3.4L134.8,20.5z M129.9,14.5
	l-3.7,3.5l-4.1-1.6l-0.1-5l5.2-1.7L129.9,14.5z M156.8,20.5l1.3-10.3l-5.9-6.1l-9-1.2l-6.8,7.8l2,10.3l9.5,3.4L156.8,20.5z
	 M151.9,14.5l-3.7,3.5l-4.1-1.6l-0.1-5l5.2-1.7L151.9,14.5z M178,13.1l1.6-7.6L171.7,0l-12.8,1.8l1.7,21.2l7-0.5l-0.1-6.1l5.7,0.6
	L178,13.1z M171.3,11.6l-3.8,0.5l-0.1-6.4l4.7,1.5L171.3,11.6z M200,22.6l-5.6-18.2L184,2.9l-5.8,18.9l7.2,1.5l0.8-4l5.2-0.5
	l0.9,4.6L200,22.6z M190.7,14.2l-3.3-0.4l1-4.7l1.4,0.2L190.7,14.2z"/>
<g>
	<path fill="#FABE09" d="M57.1,115.4h84.8v16.9h-32.2v15.1H89.3v-15.1H57.1V115.4z M116.8,102.8H61.9V85.9h54.9v-5.7H61.9V63.4H137
		v45.4h-20.3v-6H116.8z"/>
	<path fill="#FABE09" d="M206.2,143.3h-57.7v-16.9h5.9V80.2h-5.9V63.4h57.7v16.9h-5.9v46.3h5.9V143.3z M173.7,126.5h7.3V80.2h-7.3
		V126.5z M231,90.1h8.5V107H231v37.3h-20.3V61.4H231V90.1z"/>
</g>
</svg>
