<?xml version="1.0" encoding="utf-8"?>
<!-- Generator: Adobe Illustrator 27.1.1, SVG Export Plug-In . SVG Version: 6.00 Build 0)  -->
<svg version="1.2" baseProfile="tiny" id="p_キャラクター名.svg"
	 xmlns="http://www.w3.org/2000/svg" xmlns:xlink="http://www.w3.org/1999/xlink" x="0px" y="0px" viewBox="0 0 193.3 127.4"
	 overflow="visible" xml:space="preserve">
<path id="DIDDY_KONG" fill-rule="evenodd" fill="#FFFFFF" d="M30.2,74.7L41,63.3l1.7-19.1l-21.2-12L0,37.2l5.6,39.6L30.2,74.7z
	 M26.6,62.5l-8.1,3.1l-1.7-19.4l12,4.5L26.6,62.5z M56.1,74.5L62.6,41l-16.4-3.5l-2.1,38L56.1,74.5z M92.7,74.7l10.8-11.4l1.7-19.1
	L84,32.2l-21.5,5l5.6,39.6L92.7,74.7z M89.1,62.5l-8.1,3.1l-1.7-19.4l12,4.5L89.1,62.5z M135.5,74.7l10.8-11.4l1.7-19.1l-21.2-12
	l-21.5,5l5.6,39.6L135.5,74.7z M131.9,62.5l-8.1,3.1l-1.7-19.4l12,4.5L131.9,62.5z M175.5,75.6l-1.2-13.7l19.1-20.1l-14-7.9
	L169,50.1l-6-18.9L144.9,37l16.5,24.2l-2.8,13.3L175.5,75.6z M43.5,114.7L27.8,103l12.6-13.3l-13.2-8.5L17.2,97L16,83.2L0.4,84.5
	l5.7,40.8l13.5-1.2l-1.1-12.9l13.1,13.3L43.5,114.7z M80.3,120l2.6-19.9L71.5,88.4L54,86l-13.2,15l3.9,19.9l18.4,6.5L80.3,120z
	 M70.8,108.4l-7.1,6.8l-8-3.2l-0.2-9.6l10.1-3.3L70.8,108.4z M126.9,121.1l0.1-39.3l-16.5,1.5l1.9,20.9L97.6,83.3l-15,4.9l6.3,38.1
	l13.9-1.2l-1.9-17.2l14,17L126.9,121.1z M173.8,119.2l-0.9-20.4l-20.9,1.8l0.1,11.2l8.9-3.3l1.1,2.8l-7.9,3.1l-8.1-4.1l0.5-11.4
	l6.3-6l11.4,5l5.3-12.6l-14.9-5.1l-16.9,4.4l-9.1,14.7l5.9,21.2l18.2,6.2L173.8,119.2z"/>
<g>
	<path fill="#FFFFFF" d="M4,12.7c3.1,0,5-0.1,7.1-0.5l0.3,2.7c-2.4,0.5-4.7,0.5-8.9,0.5H0.8V2.5H10v2.6H4V12.7z M15.4,0.9v18.9h-3.2
		V0.9H15.4z"/>
	<path fill="#FFFFFF" d="M22.4,12.7c3.1,0,5-0.1,7.1-0.5l0.3,2.7c-2.4,0.5-4.7,0.5-8.9,0.5h-1.7V2.5h9.2v2.6h-6V12.7z M33.8,0.9
		v18.9h-3.2V0.9H33.8z"/>
	<path fill="#FFFFFF" d="M53.5,9.7v2.5H36.6V9.7h5.9V7.8h3.2v1.9H53.5z M48.4,4.7c0-0.3,0-0.5,0-0.8H38.4V1.4h13.3V3
		c0,1.7,0,3.5-0.4,5.9L48,8.7c0.1-0.6,0.2-1.2,0.3-1.7L38.2,7.4l-0.4-2.6L48.4,4.7z M51.5,16.3c0,2.2-2.5,3.4-6.6,3.4
		c-4.1,0-6.6-1.2-6.6-3.4c0-2.2,2.5-3.4,6.6-3.4C49,12.9,51.5,14.1,51.5,16.3z M48.2,16.3c0-0.7-1-1-3.3-1c-2.3,0-3.3,0.2-3.3,1
		c0,0.7,1,1,3.3,1C47.2,17.3,48.2,17.1,48.2,16.3z"/>
</g>
</svg>
