<?xml version="1.0" encoding="utf-8"?>
<!-- Generator: Adobe Illustrator 27.1.1, SVG Export Plug-In . SVG Version: 6.00 Build 0)  -->
<svg version="1.2" baseProfile="tiny" id="_14.svg" xmlns="http://www.w3.org/2000/svg" xmlns:xlink="http://www.w3.org/1999/xlink"
	 x="0px" y="0px" viewBox="0 0 205.1 131" overflow="visible" xml:space="preserve">
<path id="DIDDY_KONG" fill-rule="evenodd" fill="#FFFFFF" d="M32.3,76.1L43.9,64l1.8-20.4L23,30.8L0,36.1l6,42.3L32.3,76.1z
	 M28.5,63.2l-8.6,3.4l-1.8-20.8l12.8,4.8L28.5,63.2z M59.6,76l6.9-35.8L49,36.5l-2.2,40.6L59.6,76z M98.4,76.1L110,64l1.8-20.4
	L89.1,30.8l-23,5.3l6,42.3L98.4,76.1z M94.6,63.2l-8.6,3.4l-1.8-20.8L97,50.6L94.6,63.2z M143.8,76.1L155.3,64l1.8-20.4l-22.7-12.8
	l-23,5.3l6,42.3L143.8,76.1z M139.9,63.2l-8.6,3.4l-1.8-20.8l12.8,4.8L139.9,63.2z M186,77.1l-1.3-14.6L205.1,41l-15-8.4l-11,17.2
	l-6.4-20.2l-19.4,6.3l17.6,25.9l-3,14.3L186,77.1z M61.1,117.4l-16.8-12.5l13.5-14.3l-14.2-9.1L33,98.4l-1.3-14.8L15,85.1l6.1,43.6
	l14.5-1.2l-1.2-13.8l14,14.3L61.1,117.4z M100,123l2.7-21.3L90.6,89.2l-18.7-2.6l-14.2,16.1L62,124l19.7,7L100,123z M89.9,110.6
	l-7.6,7.3l-8.6-3.4l-0.2-10.3l10.8-3.5L89.9,110.6z M149.4,124.2l0.1-42l-17.7,1.6l2,22.3l-15.8-22.2l-16,5.2l6.7,40.7l14.8-1.2
	l-2-18.4l15,18.2L149.4,124.2z M199.2,122.1l-0.9-21.8l-22.4,1.9l0.1,12l9.5-3.5l1.2,3l-8.5,3.4l-8.6-4.4l0.5-12.1l6.8-6.4l12.2,5.4
	l5.7-13.5l-15.9-5.4l-18.1,4.7l-9.8,15.8l6.3,22.7l19.4,6.6L199.2,122.1z"/>
<g>
	<path fill="#FFFFFF" d="M155.1,12.2c3.1,0,5-0.1,7.1-0.5l0.3,2.7c-2.4,0.5-4.7,0.5-8.9,0.5h-1.7V2h9.2v2.6h-6V12.2z M166.5,0.4
		v18.9h-3.2V0.4H166.5z"/>
	<path fill="#FFFFFF" d="M173.5,12.2c3.1,0,5-0.1,7.1-0.5l0.3,2.7c-2.4,0.5-4.7,0.5-8.9,0.5h-1.7V2h9.2v2.6h-6V12.2z M184.9,0.4
		v18.9h-3.2V0.4H184.9z"/>
	<path fill="#FFFFFF" d="M204.6,9.1v2.5h-16.9V9.1h5.9V7.3h3.2v1.9H204.6z M199.6,4.1c0-0.3,0-0.5,0-0.8h-10.1V0.8h13.3v1.6
		c0,1.7,0,3.5-0.4,5.9l-3.2-0.2c0.1-0.6,0.2-1.2,0.3-1.7l-10.1,0.4L189,4.3L199.6,4.1z M202.7,15.8c0,2.2-2.5,3.4-6.6,3.4
		c-4.1,0-6.6-1.2-6.6-3.4c0-2.2,2.5-3.4,6.6-3.4C200.2,12.4,202.7,13.6,202.7,15.8z M199.4,15.8c0-0.7-1-1-3.3-1
		c-2.3,0-3.3,0.2-3.3,1c0,0.7,1,1,3.3,1C198.4,16.7,199.4,16.5,199.4,15.8z"/>
</g>
</svg>
