<?xml version="1.0" encoding="utf-8"?>
<!-- Generator: Adobe Illustrator 27.1.1, SVG Export Plug-In . SVG Version: 6.00 Build 0)  -->
<svg version="1.2" baseProfile="tiny" id="title-pc.svg"
	 xmlns="http://www.w3.org/2000/svg" xmlns:xlink="http://www.w3.org/1999/xlink" x="0px" y="0px" viewBox="0 0 396.3 79.4"
	 overflow="visible" xml:space="preserve">
<path id="GAME_ARCHIVES_" fill-rule="evenodd" fill="#FFFFFF" d="M129.4,6.5h-8.8v3h4.4c-0.5,1.5-1.9,2.5-3.5,2.4
	c-2.5,0-4.1-2-4.1-4.4c-0.1-2.3,1.6-4.2,3.9-4.3c0.1,0,0.1,0,0.2,0c1.4,0,2.6,0.7,3.3,1.9h4.2c-1.1-3.1-4.1-5.3-7.4-5.2
	c-4.2-0.1-7.8,3.2-7.9,7.4c0,0.1,0,0.2,0,0.2c0.1,4.4,3.7,7.8,8,7.8c4.3-0.1,7.8-3.6,7.8-7.9L129.4,6.5L129.4,6.5z M145,15
	l-5.9-14.8h-3L130.2,15h4.1l0.8-2.1h5.1l0.7,2.1H145z M139.1,9.8H136l1.5-5.1h0.1L139.1,9.8z M162.1,15V0.2h-4.9l-2.9,9.7l0,0
	l-2.9-9.7h-4.9V15h3.5l-0.1-11.2l3.2,11.2h2.5l3.2-11.1l0,0L158.7,15H162.1L162.1,15z M173,15v-3.3h-4.6V9.1h4.5V5.8h-4.5V3.5h4.6
	V0.2h-8.2V15H173L173,15z M195.2,15l-5.9-14.8h-3L180.4,15h4.1l0.8-2.1h5.1l0.7,2.1H195.2L195.2,15z M189.3,9.8h-3.1l1.5-5.1h0.1
	L189.3,9.8z M208.1,15l-4-5c2.2-0.4,3.8-2.4,3.7-4.7c0.1-1.9-1-3.7-2.7-4.6c-1.1-0.4-2.3-0.6-3.5-0.5h-4.8V15h3.6v-4.8l0,0l3.4,4.8
	H208.1L208.1,15z M200.3,7.6V3.5h1.4c1.4,0,2.4,0.7,2.4,2c0,1.4-0.9,2.1-2.4,2.1H200.3L200.3,7.6z M224.4,5.8
	c-0.3-1.6-1.2-3.1-2.5-4.1c-1.4-1.2-3.3-1.9-5.2-1.8c-4.1,0-7.5,3.3-7.6,7.5c-0.1,2.1,0.7,4.2,2.3,5.7c3.1,3,8,2.9,11-0.1
	c0.9-1,1.6-2.2,2-3.5h-4c-0.6,1.5-2,2.5-3.6,2.5c-2.4-0.2-4.2-2.4-4-4.8c0.2-2.1,1.8-3.8,3.9-4c1.6,0,3,1.1,3.6,2.6
	C220.3,5.8,224.4,5.8,224.4,5.8z M238.8,15V0.2H235v5.6h-4.8V0.2h-3.8V15h3.8V9h4.8v5.9h3.8V15z M245.2,15V0.2h-3.8V15H245.2z
	 M255.7,15l5-14.8h-3.9l-3,10.4l0,0l-3-10.4h-3.9l4.9,14.8H255.7z M270.6,15v-3.3H266V9.1h4.5V5.8H266V3.5h4.6V0.2h-8.2V15H270.6
	L270.6,15z M282.5,4.5c0.1-1.7-0.8-3.3-2.4-4c-0.8-0.4-1.7-0.6-2.6-0.6c-2.7,0-5.2,1.8-5.2,4.4c0,1.9,1.1,3.2,3.5,4.2
	c1.3,0.5,3,1.1,3,2.2c0,0.8-0.6,1.4-1.4,1.4l0,0c-0.9,0-1.5-0.8-1.6-2H272v0.3c0,3.2,2.1,4.9,5.3,4.9c3.2,0,5.2-1.7,5.2-4.5
	c0-1.9-0.8-3.1-4.1-4.5c-1.6-0.7-2.4-1.1-2.4-2c0-0.7,0.6-1.2,1.3-1.2c0.7,0,1.2,0.4,1.3,1.4L282.5,4.5L282.5,4.5z"/>
<g>
	<path fill="#FFFFFF" d="M108.8,37.6h10v-6.2h8.6v6.2h10v6.6h-28.6V37.6z M123.2,46.1c7.3,0,12.7,4.9,12.8,11.8
		c0,6.9-5.5,11.8-12.8,11.8c-7.3,0-12.7-4.9-12.8-11.8C110.4,51,115.9,46,123.2,46.1z M123.2,62.9c2.8,0,4.7-1.6,4.7-5
		c0-3.2-1.9-5-4.7-5c-2.8,0-4.8,1.8-4.8,5C118.4,61.2,120.3,62.9,123.2,62.9z M148.6,79h-8.5V30.7h8.5V79z"/>
	<path fill="#FFFFFF" d="M154.1,66.7h44.2v6.8h-44.2V66.7z M197.1,52.7l-3.6,7c-8.9-1.6-14.6-6-17.6-11.7c-3.1,5.6-8.9,10-17.6,11.7
		l-3.6-7c12.3-2.1,16.6-9.9,16.6-16.1v-3.3h9v3.3C180.3,42.9,184.6,50.6,197.1,52.7z"/>
	<path fill="#FFFFFF" d="M239.9,60.5h-13.3v6.9h17.9V74h-44.2v-6.6h17.9v-6.9h-13V33.6h34.4v6.6h-25.9v3.6h24.7v6.5h-24.7v3.6h26.1
		V60.5z"/>
	<path fill="#FFFFFF" d="M249.1,47.5h14.7v-6.3h-14.7v-6.7h23.3V54h-14.6v7.2c6.9-0.1,12.6-0.5,18.7-1.5l0.7,6.7
		c-7.3,1.4-14.4,1.6-23.5,1.6h-4.5V47.5z M287.5,79.2h-8.4V30.7h8.4V79.2z"/>
</g>
</svg>
