<?xml version="1.0" encoding="utf-8"?>
<!-- Generator: Adobe Illustrator 27.1.1, SVG Export Plug-In . SVG Version: 6.00 Build 0)  -->
<svg version="1.2" baseProfile="tiny" id="title-sp.svg"
	 xmlns="http://www.w3.org/2000/svg" xmlns:xlink="http://www.w3.org/1999/xlink" x="0px" y="0px" viewBox="0 0 443.8 93.8"
	 overflow="visible" xml:space="preserve">
<path id="GAME_ARCHIVES_" fill-rule="evenodd" fill="#FFFFFF" d="M146.6,7.8h-10.4v3.5h5.2c-0.6,1.8-2.2,3-4.1,2.8
	c-3,0-4.8-2.4-4.8-5.2c-0.1-2.7,1.9-5,4.6-5.1c0.1,0,0.1,0,0.2,0c1.7,0,3.1,0.8,3.9,2.2h5c-1.3-3.7-4.8-6.3-8.8-6.2
	c-5-0.1-9.2,3.8-9.3,8.8c0,0.1,0,0.2,0,0.2c0.1,5.2,4.4,9.2,9.5,9.2c5.1-0.1,9.2-4.3,9.2-9.3L146.6,7.8L146.6,7.8z M165,17.9
	l-7-17.5h-3.5l-7,17.5h4.8l0.9-2.5h6l0.8,2.5H165z M158,11.7h-3.7l1.8-6h0.1L158,11.7z M185.3,17.9V0.4h-5.8L176,11.8l0,0l-3.4-11.5
	h-5.8v17.5h4.1l-0.1-13.2l3.8,13.2h3l3.8-13.1l0,0l-0.1,13.1H185.3L185.3,17.9z M198.1,17.9V14h-5.4v-3.1h5.3V7h-5.3V4.3h5.4V0.4
	h-9.7v17.5H198.1L198.1,17.9z M224.4,17.9l-7-17.5h-3.5l-7,17.5h4.8l0.9-2.5h6l0.8,2.5H224.4L224.4,17.9z M217.4,11.7h-3.7l1.8-6
	h0.1L217.4,11.7z M239.7,17.9l-4.7-5.9c2.6-0.5,4.5-2.8,4.4-5.6c0.1-2.2-1.2-4.4-3.2-5.4c-1.3-0.5-2.7-0.7-4.1-0.6h-5.7v17.5h4.3
	v-5.7l0,0l4,5.7H239.7L239.7,17.9z M230.4,9.1V4.3h1.7c1.7,0,2.8,0.8,2.8,2.4c0,1.7-1.1,2.5-2.8,2.5H230.4L230.4,9.1z M258.9,7
	c-0.4-1.9-1.4-3.7-3-4.8c-1.7-1.4-3.9-2.2-6.2-2.1c-4.8,0-8.9,3.9-9,8.9c-0.1,2.5,0.8,5,2.7,6.7c3.7,3.5,9.5,3.4,13-0.1
	c1.1-1.2,1.9-2.6,2.4-4.1h-4.7c-0.7,1.8-2.4,3-4.3,3c-2.8-0.2-5-2.8-4.7-5.7c0.2-2.5,2.1-4.5,4.6-4.7c1.9,0,3.5,1.3,4.3,3.1
	C254.1,7,258.9,7,258.9,7z M276,17.9V0.4h-4.5V7h-5.7V0.4h-4.5v17.5h4.5v-7.1h5.7v7h4.5V17.9z M283.6,17.9V0.4h-4.5v17.5H283.6z
	 M296,17.9l5.9-17.5h-4.6l-3.5,12.3l0,0l-3.5-12.3h-4.6l5.8,17.5H296z M313.6,17.9V14h-5.4v-3.1h5.3V7h-5.3V4.3h5.4V0.4h-9.7v17.5
	H313.6L313.6,17.9z M327.7,5.5c0.1-2-0.9-3.9-2.8-4.7c-0.9-0.5-2-0.7-3.1-0.7c-3.2,0-6.2,2.1-6.2,5.2c0,2.2,1.3,3.8,4.1,5
	c1.5,0.6,3.5,1.3,3.5,2.6c0,0.9-0.7,1.7-1.7,1.7l0,0c-1.1,0-1.8-0.9-1.9-2.4h-4.5v0.4c0,3.8,2.5,5.8,6.3,5.8c3.8,0,6.2-2,6.2-5.3
	c0-2.2-0.9-3.7-4.8-5.3c-1.9-0.8-2.8-1.3-2.8-2.4c0-0.8,0.7-1.4,1.5-1.4c0.8,0,1.4,0.5,1.5,1.7L327.7,5.5L327.7,5.5z"/>
<g>
	<path fill="#FFFFFF" d="M122.1,44.6H134v-7.3h10.1v7.3H156v7.9h-33.8V44.6z M139.2,54.7c8.6,0,15.1,5.8,15.1,13.9
		c0,8.2-6.5,13.9-15.1,14c-8.6,0-15.1-5.8-15.1-14C124.1,60.4,130.6,54.6,139.2,54.7z M139.2,74.5c3.3,0,5.6-1.9,5.6-5.9
		c0-3.8-2.2-5.9-5.6-5.9c-3.3,0-5.6,2.1-5.6,5.9C133.5,72.6,135.8,74.5,139.2,74.5z M169.3,93.6h-10V36.4h10V93.6z"/>
	<path fill="#FFFFFF" d="M175.7,79H228v8.1h-52.3V79z M226.6,62.4l-4.3,8.2c-10.5-1.9-17.2-7.1-20.8-13.8
		c-3.7,6.6-10.5,11.8-20.8,13.8l-4.2-8.2c14.5-2.5,19.6-11.7,19.7-19v-3.9h10.7v3.9C206.8,50.9,211.8,60,226.6,62.4z"/>
	<path fill="#FFFFFF" d="M277.3,71.7h-15.7v8.2h21.2v7.9h-52.3v-7.9h21.2v-8.2h-15.3V39.9H277v7.9h-30.6V52h29.2v7.7h-29.2v4.3h30.9
		V71.7z"/>
	<path fill="#FFFFFF" d="M288.1,56.3h17.4v-7.5h-17.4v-7.9h27.5v23.1h-17.3v8.6c8.2-0.1,14.9-0.6,22.1-1.8l0.8,8
		c-8.7,1.6-17,1.9-27.8,1.9h-5.4V56.3z M333.5,93.8h-9.9V36.4h9.9V93.8z"/>
</g>
</svg>
