<?xml version="1.0" encoding="utf-8"?>
<!-- Generator: Adobe Illustrator 27.1.1, SVG Export Plug-In . SVG Version: 6.00 Build 0)  -->
<svg version="1.2" baseProfile="tiny" id="chara_クッパjr.svg"
	 xmlns="http://www.w3.org/2000/svg" xmlns:xlink="http://www.w3.org/1999/xlink" x="0px" y="0px" viewBox="0 0 478 147.4"
	 overflow="visible" xml:space="preserve">
<path id="KOOPA_Jr." fill-rule="evenodd" fill="#373737" d="M178.6,17.8l-8.1-6.1l6.5-6.9l-6.8-4.4L165,8.6l-0.6-7.1l-8.1,0.7
	l2.9,21.1l7-0.6l-0.6-6.7l6.8,6.9L178.6,17.8z M197.9,20.5l1.3-10.3l-5.9-6.1l-9-1.2l-6.8,7.8l2,10.3l9.5,3.4L197.9,20.5z
	 M193.1,14.5l-3.7,3.5l-4.1-1.6l-0.1-5l5.2-1.7L193.1,14.5z M220,20.5l1.3-10.3l-5.9-6.1l-9-1.2l-6.8,7.8l2,10.3l9.5,3.4L220,20.5z
	 M215.1,14.5l-3.7,3.5l-4.1-1.6l-0.1-5l5.2-1.7L215.1,14.5z M241.2,13.1l1.6-7.6L234.9,0l-12.8,1.8l1.7,21.2l7-0.5l-0.1-6.1l5.7,0.6
	L241.2,13.1z M234.5,11.6l-3.8,0.5l-0.1-6.4l4.7,1.5L234.5,11.6z M263.2,22.6l-5.6-18.2l-10.4-1.5l-5.8,18.9l7.2,1.5l0.8-4l5.2-0.5
	l0.9,4.6L263.2,22.6z M253.9,14.2l-3.3-0.4l1-4.7l1.4,0.2L253.9,14.2z M290.1,18.7l-0.2-16.8l-9.5-0.6l2.6,14.3l-4.3,2.4l-1-6.2
	l-7.9,3.6l4,7l9,2L290.1,18.7z M300.3,22.4l-0.5-6.3l2.8-3.1l2.9,2.6l3.1-6.9l-4.9-3l-4.3,5.2l-0.2-4.3l-8,1.7l2.7,15.2L300.3,22.4z
	 M313.2,22.6l0.5-5.7l-6.5-0.2l0.4,6.3L313.2,22.6z"/>
<g>
	<path fill="#F7CE00" d="M8.4,115.4h84.8v16.9H60.9v15.1H40.6v-15.1H8.4V115.4z M68.1,102.8H13.2V85.9h54.9v-5.7H13.2V63.4h75.2
		v45.4H68.1V102.8z"/>
	<path fill="#F7CE00" d="M157.5,143.3H99.8v-16.9h5.9V80.2h-5.9V63.4h57.7v16.9h-5.9v46.3h5.9V143.3z M125,126.5h7.3V80.2H125V126.5
		z M182.3,90.1h8.5V107h-8.5v37.3H162V61.4h20.3V90.1z"/>
	<path fill="#F7CE00" d="M278.4,63.4v16.9h-29.5c-0.1,1-0.3,2.1-0.5,3.1s-0.5,2-0.8,2.9l35.2,8.5l-10,15l-36.7-9.4
		c-3.9,2.7-8.6,5-14.1,6.8s-11.7,3-18.6,3.6L195.1,95c9.8-0.7,17.6-2.3,23.4-4.8c5.8-2.5,9.1-5.8,9.9-9.9h-29.1V63.4H278.4z
		 M196.5,115.4h84.8v16.9H249v15.1h-20.3v-15.1h-32.2V115.4z"/>
	<path fill="#F7CE00" d="M312.2,63.4v63.1h31.6v16.9H292v-80C292,63.4,312.2,63.4,312.2,63.4z M373.4,144.3h-20.3V61.4h20.3V144.3z"
		/>
	<path fill="#F7CE00" d="M467.5,144.3h-20.3v-34.8l-8.8,2.9c-0.7,6.1-1.9,11.2-3.7,15.2c-1.8,4.1-4,7.4-6.5,9.8
		c-2.5,2.5-5.3,4.2-8.3,5.2s-6,1.6-9,1.6c-3.4,0-6.8-0.7-10.1-2c-3.3-1.3-6.3-3.5-9-6.7c-2.6-3.1-4.8-7.3-6.4-12.6
		s-2.4-11.8-2.4-19.7s0.8-14.5,2.4-19.7c1.6-5.3,3.8-9.5,6.4-12.6s5.6-5.4,9-6.7c3.3-1.3,6.7-2,10.1-2c2.9,0,5.9,0.5,8.9,1.6
		c3,1,5.8,2.8,8.3,5.2c2.5,2.5,4.7,5.7,6.5,9.7s3.1,9,3.7,15l8.8-2.9V61.4h20.3v82.9H467.5z M403.2,103.3c0,5,0.2,9.1,0.7,12.2
		s1,5.6,1.8,7.3c0.7,1.8,1.6,3,2.5,3.6s1.9,0.9,2.8,0.9c0.8,0,1.7-0.3,2.6-0.9s1.7-1.8,2.5-3.5s1.4-4.2,1.8-7.3
		c0.5-3.2,0.7-7.3,0.7-12.4c0-5-0.2-9.1-0.7-12.2s-1.1-5.6-1.8-7.3c-0.8-1.7-1.6-2.9-2.5-3.5s-1.8-0.9-2.6-0.9
		c-0.9,0-1.8,0.3-2.8,0.9c-0.9,0.6-1.8,1.8-2.5,3.6c-0.7,1.8-1.3,4.2-1.8,7.4C403.5,94.2,403.2,98.3,403.2,103.3z"/>
</g>
</svg>
