<?xml version="1.0" encoding="utf-8"?>
<!-- Generator: Adobe Illustrator 27.1.1, SVG Export Plug-In . SVG Version: 6.00 Build 0)  -->
<svg version="1.2" baseProfile="tiny" id="chara_テレサ.svg"
	 xmlns="http://www.w3.org/2000/svg" xmlns:xlink="http://www.w3.org/1999/xlink" x="0px" y="0px" viewBox="0 0 390 147.4"
	 overflow="visible" xml:space="preserve">
<path id="TERESA" fill-rule="evenodd" fill="#373737" d="M156,22.4l-2.5-13.7l7.5-1.1l-0.6-6.7L138.6,2l0.8,8.8l7.8-1.2l0.2,13.5
	L156,22.4z M177.6,23.2l-0.8-5.9l-8.1,0.7l-0.4-2.5l6,0.9l1-4.9l-6.8-0.3l0.8-2.4l8.1,2.1l1.2-6l-16-2.3L160,15l2.4,7.5L177.6,23.2z
	 M201.2,20.1l-6.4-5.2l3.6-2.4l1.6-6.9L192.1,0l-12.8,1.8L181,23l7-0.5l-0.1-6.6l5.5,7.8L201.2,20.1z M191.7,11.3l-3.8,0.8l-0.1-6.3
	l4.7,1.5L191.7,11.3z M218.4,23.2l-0.8-5.9l-8.2,0.7l-0.4-2.5l6,0.9l1.1-4.9l-6.8-0.3l0.8-2.4l8.2,2.1l1.2-6l-16-2.3L200.8,15
	l2.4,7.5L218.4,23.2z M237.3,22.4l4.3-8.2l-11.9-5.8l1.5-2.4l6.2,3.8l3.1-5.8l-7.2-3.6L223.9,2l-4.3,7.5l11.6,5.6l-1.8,2.6l-6.9-4.3
	l-3.3,5.4l7.2,4.7L237.3,22.4z M262.4,22.6l-5.6-18.2l-10.4-1.5l-5.8,18.9l7.2,1.5l0.8-4l5.2-0.5l0.9,4.6L262.4,22.6z M253.1,14.2
	l-3.3-0.4l1-4.7l1.4,0.2L253.1,14.2z"/>
<g>
	<path fill="#95A4AE" d="M11.9,115.4h84.8v16.9H64.4v15.1H44.1v-15.1H11.9V115.4z M16.7,108.8V63.4H37v5.8h34.6v-5.8h20.3v45.5
		L16.7,108.8L16.7,108.8z M71.5,92v-6H37v6H71.5z"/>
	<path fill="#95A4AE" d="M105.9,127.5h84.8v16.9h-84.8C105.9,144.4,105.9,127.5,105.9,127.5z M126.4,83.2h-17.6V66.3h36.9v52.8
		h-19.3C126.4,119.1,126.4,83.2,126.4,83.2z M166.6,80.2H149V63.4h36.9v55.8h-19.3L166.6,80.2L166.6,80.2z"/>
	<path fill="#95A4AE" d="M200,115.4h84.8v16.9h-32.2v15.1h-20.3v-15.1H200V115.4z M204.8,108.8V63.4h20.3v5.8h34.6v-5.8H280v45.5
		L204.8,108.8L204.8,108.8z M259.7,92v-6h-34.6v6H259.7z"/>
	<path fill="#95A4AE" d="M294.1,127.5h84.8v16.9h-84.8L294.1,127.5L294.1,127.5z M314.6,83.2H297V66.3h36.9v52.8h-19.3V83.2z
		 M354.8,80.2h-17.6V63.4h36.9v55.8h-19.3V80.2z"/>
</g>
</svg>
