<?xml version="1.0" encoding="utf-8"?>
<!-- Generator: Adobe Illustrator 22.0.1, SVG Export Plug-In . SVG Version: 6.00 Build 0)  -->
<svg version="1.1" id="artwork" xmlns="http://www.w3.org/2000/svg" xmlns:xlink="http://www.w3.org/1999/xlink" x="0px" y="0px"
	 viewBox="0 0 136 41.2" style="enable-background:new 0 0 136 41.2;" xml:space="preserve">
<style type="text/css">
	.st0{fill:#FFFFFF;fill-opacity:0;}
	.st1{fill:#A6A6A6;}
	.st2{fill:#FFFFFF;}
	.st3{fill:url(#SVGID_1_);}
	.st4{fill:url(#SVGID_2_);}
	.st5{fill:url(#SVGID_3_);}
	.st6{fill:url(#SVGID_4_);}
	.st7{opacity:0.2;enable-background:new    ;}
	.st8{opacity:0.12;enable-background:new    ;}
	.st9{opacity:0.25;fill:#FFFFFF;enable-background:new    ;}
	.st10{fill:#FFFFFF;stroke:#FFFFFF;stroke-width:0.2;stroke-miterlimit:10;}
</style>
<title>google-play-badge-ko</title>
<rect x="-9.5" y="-9.2" class="st0" width="155" height="60"/>
<path d="M5.5,0.8h125c2.8,0,5,2.2,5,5v30c0,2.8-2.2,5-5,5H5.5c-2.8,0-5-2.2-5-5v-30C0.5,3,2.7,0.8,5.5,0.8z"/>
<path class="st1" d="M130.5,1.6c2.3,0,4.2,1.9,4.2,4.2v30c0,2.3-1.9,4.2-4.2,4.2H5.5c-2.3,0-4.2-1.9-4.2-4.2l0,0v-30
	c0-2.3,1.9-4.2,4.2-4.2l0,0H130.5 M130.5,0.8H5.5c-2.8,0-5,2.2-5,5v30c0,2.8,2.2,5,5,5h125c2.8,0,5-2.2,5-5v-30
	C135.5,3,133.3,0.8,130.5,0.8z"/>
<path class="st2" d="M68.6,22.5c-2.3,0-4.2,1.9-4.2,4.3c0,2.3,1.9,4.2,4.3,4.2c2.3,0,4.2-1.9,4.2-4.2c0-2.3-1.8-4.2-4.1-4.3
	C68.7,22.5,68.7,22.5,68.6,22.5z M68.6,29.3c-1.4,0.1-2.7-1-2.8-2.4c-0.1-1.4,1-2.7,2.4-2.8c1.4-0.1,2.7,1,2.8,2.4
	c0,0.1,0,0.1,0,0.2C71.1,28.1,70.1,29.3,68.6,29.3C68.7,29.3,68.7,29.3,68.6,29.3z M59.3,22.5c-2.3,0-4.2,1.9-4.2,4.3
	c0,2.3,1.9,4.2,4.3,4.2c2.3,0,4.2-1.9,4.2-4.2c0-2.3-1.8-4.2-4.1-4.3C59.4,22.5,59.4,22.5,59.3,22.5L59.3,22.5z M59.3,29.3
	c-1.4,0.1-2.7-1-2.8-2.4c-0.1-1.4,1-2.7,2.4-2.8c1.4-0.1,2.7,1,2.8,2.4c0,0.1,0,0.1,0,0.2C61.8,28.1,60.7,29.3,59.3,29.3
	C59.4,29.3,59.3,29.3,59.3,29.3L59.3,29.3z M48.2,23.8v1.8h4.3c-0.1,0.8-0.4,1.6-1,2.3c-0.9,0.9-2.1,1.4-3.3,1.3
	c-2.7,0-4.8-2.1-4.8-4.8s2.1-4.8,4.8-4.8c1.2,0,2.4,0.4,3.3,1.3l1.3-1.3c-1.2-1.2-2.8-1.9-4.5-1.9c-3.6-0.1-6.7,2.7-6.9,6.3
	c-0.1,3.6,2.7,6.7,6.3,6.9c0.2,0,0.3,0,0.5,0c1.7,0.1,3.4-0.6,4.6-1.8c1-1.2,1.6-2.7,1.6-4.2c0-0.4,0-0.8-0.1-1.1L48.2,23.8z
	 M93.6,25.2c-0.5-1.6-2-2.6-3.6-2.7c-2.2,0-4,1.8-4,4c0,0.1,0,0.2,0,0.3c0,2.3,1.8,4.2,4.1,4.2c0.1,0,0.1,0,0.2,0
	c1.4,0,2.8-0.7,3.5-1.9l-1.4-1c-0.4,0.7-1.2,1.2-2.1,1.2c-0.9,0-1.7-0.5-2.1-1.3l5.7-2.3L93.6,25.2z M87.8,26.6
	c-0.1-1.3,0.9-2.4,2.2-2.5c0,0,0,0,0,0c0.7,0,1.3,0.3,1.6,0.9L87.8,26.6z M83.1,30.8H85V18.2h-1.9V30.8z M80.1,23.5L80.1,23.5
	c-0.6-0.6-1.5-1-2.3-1c-2.3,0.1-4.2,2.1-4,4.5c0.1,2.2,1.9,3.9,4,4c0.9,0,1.7-0.4,2.2-1h0.1v0.6c0,1.6-0.9,2.5-2.3,2.5
	c-1,0-1.8-0.6-2.1-1.5L74,32.2c0.6,1.5,2.1,2.5,3.8,2.5c2.2,0,4-1.3,4-4.4v-7.6h-1.7V23.5z M77.9,29.3c-1.4-0.1-2.5-1.4-2.4-2.8
	c0.1-1.3,1.1-2.2,2.4-2.4c1.3,0.1,2.3,1.2,2.3,2.5c0,0,0,0,0,0.1c0.1,1.3-0.9,2.5-2.2,2.6C78,29.3,78,29.3,77.9,29.3L77.9,29.3z
	 M102.3,18.2h-4.5v12.5h1.9V26h2.6c2.1,0.2,4-1.5,4.2-3.6c0.2-2.1-1.5-4-3.6-4.2C102.7,18.2,102.5,18.2,102.3,18.2L102.3,18.2z
	 M102.3,24.2h-2.6V20h2.7c1.2,0,2.1,1,2.1,2.1S103.5,24.3,102.3,24.2L102.3,24.2z M113.8,22.5c-1.4-0.1-2.7,0.7-3.3,1.9l1.7,0.7
	c0.3-0.6,1-1,1.7-0.9c1-0.1,1.9,0.6,2,1.6c0,0,0,0,0,0v0.1c-0.6-0.3-1.3-0.5-1.9-0.5c-1.8,0-3.6,1-3.6,2.8c0.1,1.6,1.4,2.8,3,2.8
	c0,0,0.1,0,0.1,0c1,0.1,1.9-0.4,2.4-1.2h0.1v1h1.8v-4.8C117.7,23.8,116,22.5,113.8,22.5L113.8,22.5z M113.6,29.3
	c-0.6,0-1.5-0.3-1.5-1.1c0-1,1.1-1.3,2-1.3c0.6,0,1.2,0.1,1.7,0.4C115.7,28.4,114.8,29.3,113.6,29.3L113.6,29.3z M124.2,22.8
	l-2.1,5.4H122l-2.2-5.4h-2l3.3,7.6l-1.9,4.2h1.9l5.1-11.8H124.2z M107.4,30.8h1.9V18.2h-1.9V30.8z"/>
<linearGradient id="SVGID_1_" gradientUnits="userSpaceOnUse" x1="22.3025" y1="599.4625" x2="5.5225" y2="616.2425" gradientTransform="matrix(1 0 0 1 0 -590)">
	<stop  offset="0" style="stop-color:#00A0FF"/>
	<stop  offset="1.000000e-02" style="stop-color:#00A1FF"/>
	<stop  offset="0.26" style="stop-color:#00BEFF"/>
	<stop  offset="0.51" style="stop-color:#00D2FF"/>
	<stop  offset="0.76" style="stop-color:#00DFFF"/>
	<stop  offset="1" style="stop-color:#00E3FF"/>
</linearGradient>
<path class="st3" d="M10.9,8.3c-0.3,0.4-0.5,0.9-0.5,1.4v22.1c0,0.5,0.1,1,0.5,1.4l0.1,0.1l12.4-12.4v-0.3L10.9,8.3L10.9,8.3z"/>
<linearGradient id="SVGID_2_" gradientUnits="userSpaceOnUse" x1="34.33" y1="610.75" x2="10.14" y2="610.75" gradientTransform="matrix(1 0 0 1 0 -590)">
	<stop  offset="0" style="stop-color:#FFE000"/>
	<stop  offset="0.41" style="stop-color:#FFBD00"/>
	<stop  offset="0.78" style="stop-color:#FFA500"/>
	<stop  offset="1" style="stop-color:#FF9C00"/>
</linearGradient>
<path class="st4" d="M27.5,25l-4.1-4.1v-0.3l4.1-4.1l0.1,0l4.9,2.8c1.4,0.8,1.4,2.1,0,2.9L27.6,25L27.5,25z"/>
<linearGradient id="SVGID_3_" gradientUnits="userSpaceOnUse" x1="25.3275" y1="613.0475" x2="2.5675" y2="635.7975" gradientTransform="matrix(1 0 0 1 0 -590)">
	<stop  offset="0" style="stop-color:#FF3A44"/>
	<stop  offset="1" style="stop-color:#C31162"/>
</linearGradient>
<path class="st5" d="M27.6,25l-4.2-4.2L10.9,33.2c0.6,0.5,1.5,0.5,2.1,0.1L27.6,25"/>
<linearGradient id="SVGID_4_" gradientUnits="userSpaceOnUse" x1="7.7975" y1="590.9325" x2="17.9575" y2="601.0925" gradientTransform="matrix(1 0 0 1 0 -590)">
	<stop  offset="0" style="stop-color:#32A071"/>
	<stop  offset="7.000000e-02" style="stop-color:#2DA771"/>
	<stop  offset="0.48" style="stop-color:#15CF74"/>
	<stop  offset="0.8" style="stop-color:#06E775"/>
	<stop  offset="1" style="stop-color:#00F076"/>
</linearGradient>
<path class="st6" d="M27.6,16.5L13,8.2c-0.6-0.5-1.5-0.5-2.1,0.1l12.5,12.5L27.6,16.5z"/>
<path class="st7" d="M27.5,24.9L13,33.1c-0.6,0.4-1.4,0.4-2,0l0,0l-0.1,0.1l0,0l0.1,0.1l0,0c0.6,0.4,1.4,0.4,2,0L27.6,25L27.5,24.9z
	"/>
<path class="st8" d="M10.9,33.1c-0.3-0.4-0.5-0.9-0.5-1.4v0.2c0,0.5,0.1,1,0.5,1.4V33.1L10.9,33.1z"/>
<path class="st8" d="M32.5,22l-5,2.8l0.1,0.1l4.9-2.8c0.6-0.3,0.9-0.8,1-1.4l0,0C33.4,21.3,33,21.8,32.5,22z"/>
<path class="st9" d="M13,8.4l19.5,11.1c0.5,0.3,0.9,0.7,1,1.3l0,0c-0.1-0.6-0.4-1.2-1-1.4L13,8.2c-1.4-0.8-2.5-0.1-2.5,1.5v0.1
	C10.5,8.2,11.6,7.6,13,8.4z"/>
<path class="st10" d="M42.5,12.1c1.3,0,2.7-0.1,4-0.3l0.1,0.7c-1.4,0.2-2.8,0.4-4.2,0.3h-0.7V7h4.2v0.7h-3.3V12.1z M49.7,10.3h-1.4
	v4.8h-0.8v-9h0.8v3.6h1.5L49.7,10.3z"/>
<path class="st10" d="M58.8,10.7v0.7h-3.6v1.8h-0.8v-1.8h-3.7v-0.7H58.8z M51.6,8.1c0-1.1,1.2-1.8,3.1-1.8c1.9,0,3.1,0.7,3.1,1.8
	s-1.2,1.8-3.1,1.8S51.6,9.2,51.6,8.1z M52.6,14.2H58v0.7h-6.2v-2.6h0.8V14.2z M52.5,8.1c0,0.7,0.9,1.1,2.3,1.1
	c1.4,0,2.3-0.4,2.3-1.1S56.2,7,54.8,7S52.5,7.4,52.5,8.1z"/>
<path class="st10" d="M67.7,13.3V14h-8.2v-0.7h3.7v-1.7h-2.6V8.8h5.3V7.4h-5.3V6.8h6.1v2.7h-5.3V11h5.5v0.7h-2.9v1.7L67.7,13.3z"/>
<path class="st10" d="M77.1,13.2v0.7h-8.1v-0.7H77.1z M76.1,11.1H70V6.9H76v0.7h-5.3v2.8h5.3V11.1z"/>
<path class="st10" d="M80.8,7.5H83v0.7h-5.3V7.5H80V6.2h0.8L80.8,7.5z M82.6,11c0.1,1.2-0.9,2.2-2.1,2.3c-1.2,0.1-2.2-0.9-2.3-2.1
	C78.2,10,79.1,9,80.3,9c0,0,0.1,0,0.1,0c1.1-0.1,2.1,0.7,2.2,1.8C82.6,10.8,82.6,10.9,82.6,11z M81.8,11c0-0.8-0.6-1.4-1.4-1.4
	c-0.8,0-1.4,0.6-1.4,1.4c0,0.8,0.6,1.4,1.4,1.4c0,0,0,0,0,0C81.2,12.4,81.8,11.9,81.8,11C81.9,11.1,81.9,11.1,81.8,11z M86.2,10.5
	h-1.5v4.6h-0.8v-9h0.8v3.7h1.5V10.5z"/>
<path class="st10" d="M91.2,7.1c0,2.8-1.6,5.3-4.2,6.3l-0.4-0.7c2.1-0.8,3.6-2.7,3.8-5H87V7.1L91.2,7.1z M93.9,6.1v9H93v-9H93.9z"/>
</svg>
