<svg xmlns="http://www.w3.org/2000/svg" width="176.812" height="37.94" viewBox="0 0 176.812 37.94">
  <defs>
    <style>
      .cls-1 {
        fill: #fff;
        fill-rule: evenodd;
      }
    </style>
  </defs>
  <path id="amiibo.svg" class="cls-1" d="M741.053,4822.93v-27.76h-8.3v2.95h-0.1c-1.6-2.55-4.75-3.9-8.15-3.9-7.95,0-13.9,6.6-13.9,14.8,0,8.41,5.7,14.86,13.9,14.86,3.65,0,6.95-1.5,8.15-3.95h0.1v3h8.3Zm-15.251-6.8a7.084,7.084,0,0,1-.1-14.16,7.043,7.043,0,0,1,7.051,7.05A6.942,6.942,0,0,1,725.8,4816.13Zm63.9,6.8v-17.16c0-7.75-4.1-11.55-10.3-11.55a10.049,10.049,0,0,0-8.8,4.95,8.762,8.762,0,0,0-8-4.95c-3.55,0-6.2,1.3-7.651,3.9h-0.1v-2.95H747.1v27.76h8.3v-14.96c0-3.85,1.451-5.95,4.7-5.95,2.85,0,4.15,2,4.15,5.6v15.31h8.3v-15.36c0-3.65,1.45-5.55,4.6-5.55,2.85,0,4.25,1.6,4.25,5.95v14.96h8.3Zm14.147-30.71v-6.3h-8.3v6.3h8.3Zm0,30.71v-27.76h-8.3v27.76h8.3Zm14.3-30.71v-6.3h-8.3v6.3h8.3Zm0,30.71v-27.76h-8.3v27.76h8.3Zm13.95,0v-2.95h0.1c1.25,2.35,4.6,3.9,7.95,3.9,8.551,0,14-6.45,14-15.01,0-9.25-6.6-14.65-13.8-14.65a10.327,10.327,0,0,0-7.9,3.15v-11.45h-8.3v37.01H832.1Zm6.8-6.8c-3.85,0-6.75-3.05-6.75-7.16A6.856,6.856,0,1,1,838.9,4816.13Zm48.5-7.21c0-8.4-6.6-14.65-14.951-14.65-8.3,0-14.951,6.15-14.951,14.75,0,8.51,6.5,14.76,14.951,14.76A14.539,14.539,0,0,0,887.4,4808.92Zm-14.951,7.11a7.013,7.013,0,1,1,6.65-7.01A6.826,6.826,0,0,1,872.451,4816.03Z" transform="translate(-710.594 -4785.94)"/>
</svg>
