<?xml version="1.0" encoding="utf-8"?>
<!-- Generator: Adobe Illustrator 27.1.1, SVG Export Plug-In . SVG Version: 6.00 Build 0)  -->
<svg version="1.2" baseProfile="tiny" id="title-pc.svg"
	 xmlns="http://www.w3.org/2000/svg" xmlns:xlink="http://www.w3.org/1999/xlink" x="0px" y="0px" viewBox="0 0 544 79.4"
	 overflow="visible" xml:space="preserve">
<path id="GAMES" fill-rule="evenodd" fill="#FFFFFF" d="M240.4,6.7h-8.8v3h4.4c-0.5,1.5-1.9,2.5-3.5,2.4c-2.5,0-4.1-2-4.1-4.4
	c-0.1-2.3,1.6-4.2,3.9-4.3c0.1,0,0.1,0,0.2,0c1.4,0,2.6,0.7,3.3,1.9h4.2c-1.1-3.1-4.1-5.3-7.4-5.2c-4.2-0.1-7.8,3.2-7.9,7.4
	c0,0.1,0,0.2,0,0.2c0.1,4.4,3.7,7.8,8,7.8c4.3-0.1,7.8-3.6,7.8-7.9L240.4,6.7L240.4,6.7z M256,15.2l-5.9-14.8h-3l-5.9,14.8h4.1
	l0.8-2.1h5.1l0.7,2.1H256z M250.2,10h-3.1l1.5-5.1h0.1L250.2,10z M273.1,15.2V0.4h-4.9l-2.9,9.7l0,0l-2.9-9.7h-4.9v14.8h3.5L260.9,4
	l3.2,11.2h2.5l3.2-11.1l0,0l-0.1,11.1H273.1L273.1,15.2z M284,15.2v-3.3h-4.6V9.3h4.5V6h-4.5V3.7h4.6V0.4h-8.2v14.8H284L284,15.2z
	 M295.9,4.7c0.1-1.7-0.8-3.3-2.4-4c-0.8-0.4-1.7-0.6-2.6-0.6c-2.7,0-5.2,1.8-5.2,4.4c0,1.9,1.1,3.2,3.5,4.2c1.3,0.5,3,1.1,3,2.2
	c0,0.8-0.6,1.4-1.4,1.4l0,0c-0.9,0-1.5-0.8-1.6-2h-3.8v0.3c0,3.2,2.1,4.9,5.3,4.9c3.2,0,5.2-1.7,5.2-4.5c0-1.9-0.8-3.1-4.1-4.5
	c-1.6-0.7-2.4-1.1-2.4-2c0-0.7,0.6-1.2,1.3-1.2c0.7,0,1.2,0.4,1.3,1.4L295.9,4.7L295.9,4.7z"/>
<g>
	<path fill="#FFFFFF" d="M11.9,34.5h15.6v6h-9.1v23.2h-6.6V34.5H11.9z"/>
	<path fill="#FFFFFF" d="M30.7,38.9h21.1v29H30.7V38.9z M38.1,62.2h6.5V44.7h-6.5V62.2z M69.6,56.9h-5.8v21.3h-7.5V35.1h7.5v15.7
		h5.8V56.9z"/>
	<path fill="#FFFFFF" d="M81.8,62.5C88,62.4,93,62,98.4,61.1l0.7,6c-6.5,1.2-12.8,1.4-20.9,1.4h-4V50.1h13v-5.8h-13v-5.8h20.6v17.4
		h-13C81.8,55.9,81.8,62.5,81.8,62.5z M108.2,35v43.4h-7.5V35H108.2z"/>
	<path fill="#FFFFFF" d="M153.4,67.5v5.9h-39.2v-5.9H130v-6.4c-7.4-1.2-12.7-5.6-12.7-12c0-7.4,7.1-12.2,16.4-12.2
		s16.4,4.8,16.4,12.2c0,6.4-5.3,10.9-12.7,12v6.4H153.4z M133.8,55.5c5.4,0,9-2.2,9-6.3c0-4.1-3.6-6.3-9-6.3s-9,2.3-9,6.3
		S128.4,55.5,133.8,55.5z"/>
	<path fill="#FFFFFF" d="M171.1,78.2h-15.6v-6h9.1V49h6.6v29.2H171.1z"/>
	<path fill="#FFFFFF" d="M207.7,43.6c0,8.1,2.4,16,10.4,19.3l-4.3,6c-4.8-2.1-7.9-5.8-9.8-10.6c-1.8,5.2-5.1,9.4-10.2,11.7l-4.4-6.2
		c8.1-3.4,10.8-11.7,10.8-20.2v-5.4h7.5V43.6z M226.2,35v43.4h-7.5V35H226.2z"/>
	<path fill="#FFFFFF" d="M242.3,62.5c6.2-0.1,11.2-0.4,16.6-1.4l0.7,6c-6.5,1.2-12.8,1.4-20.9,1.4h-4V50.1h13v-5.8h-13v-5.8h20.6
		v17.4h-13L242.3,62.5L242.3,62.5z M268.7,35v43.4h-7.5V35H268.7z"/>
	<path fill="#FFFFFF" d="M313.9,67.4v5.9h-39.1v-5.9H313.9z M276.1,55.9c10.1-1.5,13.7-6.7,14.2-11.8H278v-5.8h32.5v5.8h-12.3
		c0.5,5.1,4.1,10.1,14.5,11.6l-2.9,5.9c-7.9-1.3-12.9-4.7-15.5-9.2c-2.6,4.6-7.6,8.1-15.4,9.5L276.1,55.9z"/>
	<path fill="#FFFFFF" d="M366.8,67.5v5.9h-39.1v-5.9h15.6v-9.2h7.5v9.2H366.8z M362.7,60.1c-7.9-1.3-13-5.1-15.7-10
		c-2.8,4.9-7.8,8.6-15.7,10l-3-6.2c11-1.7,14.7-8.5,14.7-13.8v-3h8v3c0,5.5,3.6,12.1,14.8,13.8L362.7,60.1z"/>
	<path fill="#FFFFFF" d="M409,67.5v6h-39v-6H409z M378.2,44.3h-5.4v-5.8h33.4v5.8h-5.4v11.8h5.2v5.8h-33v-5.8h5.2V44.3z M393.3,44.3
		h-7.7v11.8h7.7V44.3z"/>
	<path fill="#FFFFFF" d="M451.4,67.6v5.9h-39.1v-5.9H451.4z M447.4,62.5h-30.8V37.9h30.5v5.8h-22.9v3.5h21.9v5.7h-21.9v3.7h23.2
		L447.4,62.5L447.4,62.5z"/>
	<path fill="#FFFFFF" d="M475.8,60c-2.3,0.5-4.7,0.7-7.1,1v14h-7V61.4c-2.6,0.1-5,0.1-7,0.1l-0.7-5.9c5.7,0,14.8-0.1,21.4-1
		L475.8,60z M455.5,45.6c0-4.8,4.1-8.3,9.7-8.3s9.7,3.5,9.7,8.3s-4.1,8.3-9.7,8.3S455.5,50.4,455.5,45.6z M462.1,45.6
		c0,1.9,1.3,2.9,3.1,2.9s3.1-0.9,3.1-2.9c0-1.9-1.3-2.9-3.1-2.9S462.1,43.6,462.1,45.6z M477.1,35.6h6.9v40.8h-6.9v-8.3H471v-5.5
		h6.1V35.6z M493,35v43.2h-7V35H493z"/>
	<path fill="#FFFFFF" d="M533.6,34.9v43.4h-7.5V56h-5.9c-0.8,8.1-5.3,13.1-11.3,13.1c-6.5,0-11.4-6-11.4-15.7
		c0-9.6,4.8-15.6,11.4-15.6c5.8,0,10.2,4.6,11.2,12.2h6V34.9H533.6z M513.2,53.4c0-6-1.7-8.8-4.3-8.8c-2.6,0-4.3,2.8-4.3,8.8
		c0,6.1,1.7,8.9,4.3,8.9C511.5,62.4,513.2,59.6,513.2,53.4z"/>
</g>
</svg>
