<?xml version="1.0" encoding="utf-8"?>
<!-- Generator: Adobe Illustrator 27.1.1, SVG Export Plug-In . SVG Version: 6.00 Build 0)  -->
<svg version="1.2" baseProfile="tiny" id="p_見出し.svg"
	 xmlns="http://www.w3.org/2000/svg" xmlns:xlink="http://www.w3.org/1999/xlink" x="0px" y="0px" viewBox="0 0 539 93.4"
	 overflow="visible" xml:space="preserve">
<path id="GAMES" fill-rule="evenodd" fill="#FFFFFF" d="M243.9,8h-10.6v3.6h5.3c-0.6,1.8-2.3,3-4.2,2.9c-3,0-4.9-2.4-4.9-5.3
	c-0.1-2.7,1.9-5,4.6-5.2c0.1,0,0.1,0,0.2,0c1.6,0,3.1,0.9,3.9,2.3h5.1c-1-3.6-4.9-6.3-8.9-6.3c-5.1-0.2-9.3,3.8-9.5,8.9
	c0,0.1,0,0.2,0,0.3c0.1,5.2,4.4,9.4,9.6,9.3c5.1-0.1,9.2-4.3,9.3-9.4L243.9,8L243.9,8z M262.7,18.1l-7.1-17.8H252l-7.1,17.8h4.9
	l0.9-2.6h6.2l0.9,2.6H262.7L262.7,18.1z M255.7,11.9H252l1.8-6.1l0.1,0L255.7,11.9z M283.2,18.1V0.3h-5.9L273.9,12h0l-3.5-11.7h-5.8
	v17.8h4.2l-0.1-13.5l3.8,13.5h3l3.8-13.3l0,0L279,18.1L283.2,18.1L283.2,18.1z M296.3,18.1v-4h-5.5v-3h5.4v-4h-5.4V4.3h5.5v-4h-9.9
	v17.8L296.3,18.1L296.3,18.1z M310.6,5.5c0.1-2-1-3.9-2.8-4.8c-1-0.5-2.1-0.8-3.1-0.7c-3.3,0-6.2,2.2-6.2,5.2c0,2.3,1.3,3.8,4.2,5
	c1.6,0.6,3.6,1.3,3.6,2.7c0,0.9-0.8,1.7-1.7,1.7h0c-1.1,0-1.8-1-1.9-2.4h-4.5v0.4c0,3.8,2.5,5.8,6.4,5.8c3.8,0,6.2-2,6.2-5.4
	c0-2.3-1-3.7-4.9-5.4c-1.9-0.8-2.9-1.3-2.9-2.4c0-0.8,0.7-1.4,1.6-1.4c0.9,0,1.4,0.5,1.6,1.7L310.6,5.5L310.6,5.5z"/>
<g>
	<path fill="#FFFFFF" d="M9,47.4h15.6v6h-9.1v23.2H9V47.4z"/>
	<path fill="#FFFFFF" d="M27.8,51.8h21.1v29H27.8V51.8z M35.1,75h6.5V57.6h-6.5V75z M66.7,69.7h-5.8V91h-7.5V47.9h7.5v15.7h5.8V69.7
		z"/>
	<path fill="#FFFFFF" d="M78.9,75.3c6.2-0.1,11.2-0.4,16.6-1.4l0.7,6c-6.5,1.2-12.8,1.4-20.9,1.4h-4V62.9h13v-5.8h-13v-5.8h20.6
		v17.4h-13V75.3z M105.3,47.9v43.4h-7.5V47.9H105.3z"/>
	<path fill="#FFFFFF" d="M150.5,80.4v5.9h-39.2v-5.9h15.8V74c-7.4-1.2-12.7-5.6-12.7-12c0-7.4,7.1-12.2,16.4-12.2
		s16.4,4.8,16.4,12.2c0,6.4-5.3,10.9-12.7,12v6.4H150.5z M130.9,68.3c5.4,0,9-2.2,9-6.3c0-4.1-3.6-6.3-9-6.3c-5.4,0-9,2.3-9,6.3
		C121.9,66.1,125.5,68.3,130.9,68.3z"/>
	<path fill="#FFFFFF" d="M168.2,91.1h-15.6v-6h9.1V61.9h6.6V91.1z"/>
	<path fill="#FFFFFF" d="M204.8,56.5c0,8.1,2.4,16,10.4,19.3l-4.3,6c-4.8-2.1-7.9-5.8-9.8-10.6c-1.8,5.2-5.1,9.4-10.2,11.7l-4.4-6.2
		c8.1-3.4,10.8-11.7,10.8-20.2v-5.4h7.5V56.5z M223.3,47.9v43.4h-7.5V47.9H223.3z"/>
	<path fill="#FFFFFF" d="M239.4,75.3c6.2-0.1,11.2-0.4,16.6-1.4l0.7,6c-6.5,1.2-12.8,1.4-20.9,1.4h-4V62.9h13v-5.8h-13v-5.8h20.6
		v17.4h-13V75.3z M265.8,47.9v43.4h-7.5V47.9H265.8z"/>
	<path fill="#FFFFFF" d="M310.9,80.2v5.9h-39.1v-5.9H310.9z M273.2,68.8c10.1-1.5,13.7-6.7,14.2-11.8h-12.3v-5.8h32.5V57h-12.3
		c0.5,5.1,4.1,10.1,14.5,11.6l-2.9,5.9c-7.9-1.3-12.9-4.7-15.5-9.2c-2.6,4.6-7.6,8.1-15.4,9.5L273.2,68.8z"/>
	<path fill="#FFFFFF" d="M363.8,80.3v5.9h-39.1v-5.9h15.6v-9.2h7.5v9.2H363.8z M359.8,73c-7.9-1.3-13-5.1-15.7-10
		c-2.8,4.9-7.8,8.6-15.7,10l-3-6.2c11-1.7,14.7-8.5,14.7-13.8v-3h8v3c0,5.5,3.6,12.1,14.8,13.8L359.8,73z"/>
	<path fill="#FFFFFF" d="M406.1,80.4v6h-39.1v-6H406.1z M375.2,57.1h-5.4v-5.8h33.4v5.8h-5.4V69h5.2v5.8h-32.9V69h5.2V57.1z
		 M390.3,57.1h-7.7V69h7.7V57.1z"/>
	<path fill="#FFFFFF" d="M448.5,80.5v5.9h-39.1v-5.9H448.5z M444.5,75.4h-30.8V50.8h30.5v5.8h-22.9v3.5h21.9v5.7h-21.9v3.7h23.2
		V75.4z"/>
	<path fill="#FFFFFF" d="M472.9,72.8c-2.3,0.5-4.7,0.7-7.1,1v14h-7V74.3c-2.6,0.1-5,0.1-7,0.1l-0.7-5.9c5.7,0,14.8-0.1,21.4-1
		L472.9,72.8z M452.6,58.4c0-4.8,4.1-8.3,9.7-8.3s9.7,3.5,9.7,8.3c0,4.8-4.1,8.3-9.7,8.3S452.6,63.3,452.6,58.4z M459.2,58.4
		c0,1.9,1.3,2.9,3.1,2.9s3.1-0.9,3.1-2.9c0-1.9-1.3-2.9-3.1-2.9S459.2,56.5,459.2,58.4z M474.2,48.5h6.9v40.8h-6.9v-8.4h-6.1v-5.5
		h6.1V48.5z M490.1,47.9V91h-7V47.9H490.1z"/>
	<path fill="#FFFFFF" d="M530.6,47.8v43.4h-7.5V68.9h-5.9C516.5,77,512,82,506,82c-6.5,0-11.4-6-11.4-15.7c0-9.6,4.8-15.6,11.4-15.6
		c5.8,0,10.2,4.6,11.2,12.2h6V47.8H530.6z M510.3,66.3c0-6-1.7-8.8-4.3-8.8c-2.6,0-4.3,2.8-4.3,8.8c0,6.1,1.7,8.9,4.3,8.9
		C508.6,75.2,510.3,72.4,510.3,66.3z"/>
</g>
</svg>
