<?xml version="1.0" encoding="utf-8"?>
<!-- Generator: Adobe Illustrator 27.1.1, SVG Export Plug-In . SVG Version: 6.00 Build 0)  -->
<svg version="1.2" baseProfile="tiny" id="Layer_1" xmlns="http://www.w3.org/2000/svg" xmlns:xlink="http://www.w3.org/1999/xlink"
	 x="0px" y="0px" viewBox="0 0 520.3 91.5" overflow="visible" xml:space="preserve">
<g>
	<path fill="#373737" d="M4.5,6.2h7.1l7.2,13.9l2.9,6.5H22c-0.4-3.1-0.9-7.3-0.9-10.8V6.2h6.7v29.1h-7.1l-7.2-14.1l-2.9-6.4h-0.2
		c0.3,3.3,0.9,7.2,0.9,10.8v9.7H4.5V6.2z"/>
	<path fill="#373737" d="M31.1,6.4c0-2.1,1.6-3.6,4-3.6c2.3,0,4,1.5,4,3.6c0,2.1-1.6,3.6-4,3.6C32.7,10,31.1,8.5,31.1,6.4z
		 M31.6,13.1h6.9v22.3h-6.9V13.1z"/>
	<path fill="#373737" d="M41.8,13.1h5.7l0.5,2.8h0.2c1.8-1.8,4.1-3.3,7.1-3.3c4.9,0,6.9,3.5,6.9,9v13.8h-7V22.5c0-3.1-0.8-4-2.6-4
		c-1.6,0-2.5,0.7-3.9,2v14.9h-6.9V13.1z"/>
	<path fill="#373737" d="M66.1,27.1v-8.6h-3v-5.2l3.4-0.3l0.8-5.9h5.8v5.9h5.2v5.4h-5.2V27c0,2.5,1.2,3.4,2.8,3.4
		c0.7,0,1.5-0.2,2-0.4l1.1,5c-1.2,0.4-2.8,0.8-5.1,0.8C68.4,35.9,66.1,32.4,66.1,27.1z"/>
	<path fill="#373737" d="M78.2,24.3c0-7.2,5.2-11.7,10.6-11.7c6.4,0,9.6,4.7,9.6,10.8c0,1.2-0.2,2.5-0.3,3H84.9
		c0.6,3.1,2.7,4.3,5.6,4.3c1.6,0,3.1-0.5,4.7-1.4l2.3,4.2c-2.3,1.6-5.4,2.5-8,2.5C83.1,35.9,78.2,31.6,78.2,24.3z M92.4,21.7
		c0-2.2-1-3.9-3.5-3.9c-1.9,0-3.6,1.2-4.1,3.9H92.4z"/>
	<path fill="#373737" d="M100.4,13.1h5.7l0.5,2.8h0.2c1.8-1.8,4.1-3.3,7.1-3.3c4.9,0,6.9,3.5,6.9,9v13.8h-7V22.5c0-3.1-0.8-4-2.6-4
		c-1.6,0-2.5,0.7-3.9,2v14.9h-6.9V13.1z"/>
	<path fill="#373737" d="M122.7,24.3c0-7.3,4.6-11.7,9.2-11.7c2.5,0,3.9,0.9,5.4,2.3l-0.3-3.3V4.1h7v31.3h-5.7l-0.5-2.2h-0.2
		c-1.6,1.6-3.7,2.7-5.8,2.7C126.3,35.9,122.7,31.5,122.7,24.3z M137,28.3v-8.8c-1.1-1-2.3-1.3-3.4-1.3c-1.9,0-3.7,1.8-3.7,5.9
		c0,4.3,1.4,6.1,3.8,6.1C135,30.2,136.1,29.8,137,28.3z"/>
	<path fill="#373737" d="M146,24.3c0-7.4,5.2-11.7,10.9-11.7c5.6,0,10.9,4.3,10.9,11.7c0,7.4-5.2,11.7-10.9,11.7
		C151.3,35.9,146,31.6,146,24.3z M160.7,24.3c0-3.7-1.2-6.1-3.8-6.1c-2.6,0-3.8,2.4-3.8,6.1c0,3.7,1.2,6,3.8,6
		C159.5,30.3,160.7,27.9,160.7,24.3z"/>
	<path fill="#373737" d="M175.2,31.7l4-4.8c2.1,1.8,4.8,3,7.1,3c2.6,0,3.8-1,3.8-2.5c0-1.7-1.6-2.2-4.1-3.3l-3.7-1.6
		c-3.1-1.2-5.9-3.8-5.9-8c0-4.9,4.4-8.8,10.6-8.8c3.4,0,6.9,1.3,9.5,3.8l-3.5,4.4c-1.9-1.4-3.7-2.2-6-2.2c-2.2,0-3.5,0.9-3.5,2.4
		c0,1.6,1.8,2.2,4.4,3.3l3.6,1.4c3.6,1.4,5.8,3.9,5.8,8c0,4.9-4.1,9.1-11.1,9.1C182.3,35.9,178.2,34.5,175.2,31.7z"/>
	<path fill="#373737" d="M197.4,13.1h6.9l2,10c0.4,2.2,0.6,4.4,0.9,6.7h0.2c0.4-2.2,0.7-4.5,1.3-6.7l2.3-10h6l2.4,10
		c0.5,2.2,0.9,4.4,1.4,6.7h0.2c0.4-2.2,0.5-4.5,1-6.7l1.9-10h6.5l-5.2,22.3H217l-1.9-8.5c-0.4-2.1-0.8-4.1-1.2-6.5h-0.2
		c-0.4,2.4-0.7,4.5-1.1,6.5l-1.8,8.5h-8L197.4,13.1z"/>
	<path fill="#373737" d="M231.4,6.4c0-2.1,1.6-3.6,4-3.6c2.3,0,4,1.5,4,3.6c0,2.1-1.6,3.6-4,3.6C233.1,10,231.4,8.5,231.4,6.4z
		 M231.9,13.1h6.9v22.3h-6.9V13.1z"/>
	<path fill="#373737" d="M243.1,27.1v-8.6h-3v-5.2l3.4-0.3l0.8-5.9h5.8v5.9h5.2v5.4H250V27c0,2.5,1.2,3.4,2.8,3.4
		c0.7,0,1.5-0.2,2-0.4l1.1,5c-1.2,0.4-2.8,0.8-5.1,0.8C245.3,35.9,243.1,32.4,243.1,27.1z"/>
	<path fill="#373737" d="M255.1,24.3c0-7.4,5.5-11.7,11.7-11.7c2.7,0,4.8,0.9,6.5,2.4l-3.3,4.5c-1-0.9-1.9-1.2-2.9-1.2
		c-3.1,0-5,2.4-5,6.1c0,3.7,2,6,4.7,6c1.4,0,2.7-0.7,3.9-1.6l2.7,4.6c-2.2,1.9-5,2.6-7.3,2.6C259.9,35.9,255.1,31.6,255.1,24.3z"/>
	<path fill="#373737" d="M275.1,4.1h6.9v7.5l-0.3,4c1.6-1.5,3.8-3,6.8-3c4.9,0,6.9,3.5,6.9,9v13.8h-7V22.5c0-3.1-0.8-4-2.6-4
		c-1.6,0-2.5,0.7-3.9,2v14.9h-6.9V4.1z"/>
	<path fill="#373737" d="M330.3,30.2v5.1h-33.3v-5.1h13.4v-4.8h-9.8V12.5h19.8v-3h-19.9v-5h26.1v12.8H307v3.1h20.6v5h-10.8v4.8
		H330.3z"/>
	<path fill="#373737" d="M370.6,16.8v4.9h-33.3v-4.9H370.6z M338.6,11.6c6.3-0.4,9.4-1.8,10.7-3.4h-9V3.3h27.3v4.8h-9
		c1.3,1.6,4.3,3,10.7,3.4l-1.9,4.7c-7-0.4-11.3-2.4-13.5-5.1c-2.1,2.7-6.3,4.7-13.4,5.1L338.6,11.6z M347.3,34.3h20.3v4.7h-26.6
		V28.8h19.4v-1.2H341V23h25.7v10h-19.4V34.3z"/>
	<path fill="#373737" d="M390.7,3.5c0,10.4-5,15.6-17,17.9l-2.2-5c8.9-1.4,11.6-4.4,12.1-7.9h-10.1v-5H390.7z M402.6,33.9v4.8h-25.7
		V28.1h18.5v-1.3h-18.6V22h25v10.5h-18.5v1.4H402.6z M401.8,20.6h-6.3V2.3h6.3V20.6z"/>
	<path fill="#373737" d="M444.7,27H431v12.1h-6.3V27h-13.3v-5.1h33.3L444.7,27z M441.3,19.9c-6.6-0.9-10.9-3.8-13.2-7.4
		c-2.3,3.7-6.6,6.5-13.2,7.4l-2.4-5.1c9.4-1.3,12.3-6.2,12.3-10V3.3h6.7v1.6c0,3.8,2.9,8.8,12.3,10L441.3,19.9z"/>
	<path fill="#373737" d="M452,13c0-5.2,4.4-8.9,10.2-8.9c5.8,0,10.2,3.8,10.2,8.9s-4.4,8.9-10.2,8.9C456.4,21.9,452,18.2,452,13z
		 M479,25.3c0,3.8,1.6,7.2,6.5,8.7l-3.1,4.5c-3.3-1.1-5.5-3.1-6.7-5.8c-1.3,2.7-3.3,4.9-6.5,6.1c-3.3-1.2-5.3-3.4-6.6-6
		c-1.3,2.5-3.4,4.5-6.6,5.6l-3.1-4.5c4.9-1.6,6.5-5.1,6.5-8.7v-0.8h6.1v0.8c0,2.7,0.9,5.5,3.5,7.5c2.6-2.1,3.6-4.9,3.6-7.5v-0.8h6.3
		V25.3z M458.2,13c0,2.5,1.7,3.7,4,3.7c2.3,0,4-1.3,4-3.7s-1.7-3.7-4-3.7C459.9,9.3,458.2,10.5,458.2,13z M482.4,23h-6.3V2.4h6.3V23
		z"/>
	<path fill="#373737" d="M518.6,19.8v5h-33.3v-5H518.6z M495.2,33.4h20.1v5h-26.4v-11h6.3V33.4z M515,16.6h-25.8v-13h6.3v8H515V16.6
		z"/>
	<path fill="#373737" d="M56.2,52.5h13.3v5.1h-7.7v19.8h-5.6V52.5z"/>
	<path fill="#373737" d="M69.8,56.2h18v24.7h-18V56.2z M76.1,76h5.5V61.2h-5.5V76z M102.9,71.5H98v18.1h-6.3V52.9H98v13.4h4.9V71.5z
		"/>
	<path fill="#373737" d="M111,76.2c5.2-0.1,9.5-0.4,14.1-1.2l0.6,5.1c-5.6,1-10.9,1.2-17.8,1.2h-3.4V65.7h11v-4.9h-11.1v-5H122v14.8
		h-11V76.2z M133.4,52.9v36.9h-6.3V52.9H133.4z"/>
	<path fill="#373737" d="M169.6,80.6v5.1h-33.3v-5.1h13.5v-5.4c-6.3-1-10.8-4.8-10.8-10.2c0-6.3,6-10.4,13.9-10.4
		c7.9,0,13.9,4.1,13.9,10.4c0,5.4-4.5,9.2-10.8,10.2v5.4H169.6z M152.9,70.3c4.6,0,7.7-1.9,7.7-5.4c0-3.5-3.1-5.4-7.7-5.4
		c-4.6,0-7.7,1.9-7.7,5.4C145.2,68.4,148.3,70.3,152.9,70.3z"/>
	<path fill="#373737" d="M182.3,89.7H169v-5.1h7.7V64.8h5.6V89.7z"/>
	<path fill="#373737" d="M208.8,60.2c0,6.9,2.1,13.6,8.8,16.4l-3.6,5.1c-4.1-1.8-6.7-5-8.3-9c-1.6,4.4-4.3,8-8.7,10l-3.7-5.2
		c6.9-2.9,9.2-10,9.2-17.2v-4.6h6.4V60.2z M224.5,52.9v36.9h-6.3V52.9H224.5z"/>
	<path fill="#373737" d="M235.9,76.2c5.2-0.1,9.5-0.4,14.1-1.2l0.6,5.1c-5.6,1-10.9,1.2-17.8,1.2h-3.4V65.7h11v-4.9h-11.1v-5h17.5
		v14.8h-11V76.2z M258.3,52.9v36.9H252V52.9H258.3z"/>
	<path fill="#373737" d="M294.5,80.4v5.1h-33.3v-5.1H294.5z M262.3,70.7c8.6-1.3,11.7-5.7,12.1-10.1h-10.5v-4.9h27.7v4.9h-10.5
		c0.4,4.3,3.5,8.6,12.3,9.9l-2.4,5c-6.7-1.1-11-4-13.2-7.9c-2.2,4-6.5,6.9-13.1,8.1L262.3,70.7z"/>
	<path fill="#373737" d="M334.8,80.5v5.1h-33.3v-5.1h13.3v-7.8h6.3v7.8H334.8z M331.3,74.3c-6.7-1.1-11-4.3-13.4-8.5
		c-2.4,4.2-6.7,7.4-13.4,8.5L302,69c9.4-1.4,12.5-7.2,12.5-11.8v-2.6h6.8v2.6c0,4.7,3.1,10.3,12.6,11.8L331.3,74.3z"/>
	<path fill="#373737" d="M368.4,80.6v5.1h-33.3v-5.1H368.4z M342.2,60.8h-4.6v-5h28.4v5h-4.6v10.1h4.5v5h-28v-5h4.4V60.8z M355,60.8
		h-6.5v10.1h6.5V60.8z"/>
	<path fill="#373737" d="M402.2,80.7v5.1h-33.3v-5.1H402.2z M398.8,76.3h-26.2V55.4h26v5H379v3h18.6v4.8H379v3.2h19.7V76.3z"/>
	<path fill="#373737" d="M420.6,74.1c-1.9,0.4-4,0.6-6.1,0.8v11.9h-6V75.3c-2.2,0.1-4.3,0.1-6,0.1l-0.6-5.1c4.9,0,12.6-0.1,18.3-0.8
		L420.6,74.1z M403.3,61.9c0-4.1,3.5-7.1,8.2-7.1s8.2,3,8.2,7.1c0,4.1-3.5,7.1-8.2,7.1S403.3,66,403.3,61.9z M408.9,61.9
		c0,1.6,1.1,2.4,2.7,2.4s2.7-0.8,2.7-2.4c0-1.6-1.1-2.4-2.7-2.4S408.9,60.2,408.9,61.9z M421.7,53.4h5.9v34.7h-5.9V81h-5.2v-4.7h5.2
		V53.4z M435.3,52.9v36.7h-6V52.9H435.3z"/>
	<path fill="#373737" d="M467.4,52.8v37h-6.3v-19H456c-0.7,6.9-4.5,11.2-9.6,11.2c-5.6,0-9.7-5.1-9.7-13.4c0-8.2,4.1-13.3,9.7-13.3
		c4.9,0,8.7,3.9,9.5,10.4h5.1V52.8H467.4z M450.1,68.6c0-5.1-1.4-7.5-3.6-7.5c-2.2,0-3.6,2.4-3.6,7.5c0,5.2,1.4,7.6,3.6,7.6
		C448.7,76.2,450.1,73.8,450.1,68.6z"/>
</g>
</svg>
