<svg xmlns="http://www.w3.org/2000/svg" width="247.5" height="53.13" viewBox="0 0 247.5 53.13">
  <defs>
    <style>
      .cls-1 {
        fill: #fff;
        fill-rule: evenodd;
      }
    </style>
  </defs>
  <path id="amiibo.svg" class="cls-1" d="M293.777,9267.93v-38.86H282.156v4.13h-0.14c-2.24-3.57-6.651-5.46-11.411-5.46-11.131,0-19.462,9.24-19.462,20.72,0,11.76,7.981,20.8,19.462,20.8,5.11,0,9.731-2.1,11.411-5.53h0.14v4.2h11.621Zm-21.352-9.53a9.91,9.91,0,0,1-.14-19.81,9.859,9.859,0,0,1,9.871,9.87A9.714,9.714,0,0,1,272.425,9258.4Zm89.464,9.53v-24.02c0-10.85-5.741-16.17-14.422-16.17a14.067,14.067,0,0,0-12.321,6.93c-2.45-4.41-6.161-6.93-11.2-6.93-4.971,0-8.681,1.82-10.711,5.46h-0.14v-4.13H302.243v38.86h11.621v-20.94c0-5.39,2.03-8.33,6.581-8.33,3.99,0,5.81,2.8,5.81,7.84v21.43h11.621v-21.5c0-5.11,2.031-7.77,6.441-7.77,3.991,0,5.951,2.24,5.951,8.33v20.94h11.621Zm19.8-42.99v-8.82H370.072v8.82h11.621Zm0,42.99v-38.86H370.072v38.86h11.621Zm20.02-42.99v-8.82H390.092v8.82h11.621Zm0,42.99v-38.86H390.092v38.86h11.621Zm19.53,0v-4.13h0.14c1.75,3.29,6.441,5.46,11.131,5.46,11.971,0,19.6-9.04,19.6-21.01,0-12.95-9.241-20.51-19.322-20.51a14.46,14.46,0,0,0-11.061,4.41v-16.03H410.112v51.81h11.131Zm9.521-9.53c-5.391,0-9.451-4.27-9.451-10.01A9.6,9.6,0,1,1,430.764,9258.4Zm67.9-10.08c0-11.76-9.241-20.51-20.932-20.51-11.621,0-20.932,8.61-20.932,20.65,0,11.9,9.1,20.66,20.932,20.66C489.424,9269.12,498.665,9260.51,498.665,9248.32Zm-20.932,9.94a9.553,9.553,0,0,1-9.311-9.8c0-5.32,4.131-9.8,9.241-9.8a9.562,9.562,0,0,1,9.381,9.8C487.044,9253.64,483.194,9258.26,477.733,9258.26Z" transform="translate(-251.156 -9216.12)"/>
</svg>
