<?xml version="1.0" encoding="utf-8"?>
<!-- Generator: Adobe Illustrator 27.1.1, SVG Export Plug-In . SVG Version: 6.00 Build 0)  -->
<svg version="1.2" baseProfile="tiny" id="Layer_1" xmlns="http://www.w3.org/2000/svg" xmlns:xlink="http://www.w3.org/1999/xlink"
	 x="0px" y="0px" viewBox="0 0 576.5 27.4" overflow="visible" xml:space="preserve">
<g>
	<path fill="#373737" d="M1.4,4.9h4.4l4.4,8.5l1.7,4h0.1c-0.2-1.9-0.6-4.5-0.6-6.6V4.9h4.1v17.8h-4.4l-4.4-8.6L5,10.3H4.9
		c0.2,2,0.6,4.4,0.6,6.6v5.9H1.4V4.9z"/>
	<path fill="#373737" d="M17.6,5.1c0-1.3,1-2.2,2.4-2.2c1.4,0,2.4,0.9,2.4,2.2c0,1.3-1,2.2-2.4,2.2C18.6,7.2,17.6,6.3,17.6,5.1z
		 M17.9,9.1h4.2v13.6h-4.2V9.1z"/>
	<path fill="#373737" d="M24.2,9.1h3.5l0.3,1.7H28c1.1-1.1,2.5-2,4.4-2c3,0,4.2,2.1,4.2,5.5v8.4h-4.3v-7.9c0-1.9-0.5-2.4-1.6-2.4
		c-1,0-1.5,0.4-2.4,1.2v9.1h-4.2V9.1z"/>
	<path fill="#373737" d="M39,17.7v-5.2h-1.8V9.3l2.1-0.2l0.5-3.6h3.5v3.6h3.2v3.3h-3.2v5.2c0,1.5,0.7,2.1,1.7,2.1
		c0.4,0,0.9-0.1,1.2-0.2l0.7,3.1c-0.7,0.2-1.7,0.5-3.1,0.5C40.4,23.1,39,20.9,39,17.7z"/>
	<path fill="#373737" d="M46.4,16c0-4.4,3.2-7.2,6.5-7.2c3.9,0,5.8,2.9,5.8,6.6c0,0.7-0.1,1.5-0.2,1.8h-8c0.4,1.9,1.7,2.6,3.4,2.6
		c1,0,1.9-0.3,2.9-0.9l1.4,2.6c-1.4,1-3.3,1.6-4.9,1.6C49.4,23.1,46.4,20.5,46.4,16z M55.1,14.4c0-1.4-0.6-2.4-2.2-2.4
		c-1.2,0-2.2,0.7-2.5,2.4H55.1z"/>
	<path fill="#373737" d="M60,9.1h3.5l0.3,1.7h0.1c1.1-1.1,2.5-2,4.4-2c3,0,4.2,2.1,4.2,5.5v8.4h-4.3v-7.9c0-1.9-0.5-2.4-1.6-2.4
		c-1,0-1.5,0.4-2.4,1.2v9.1H60V9.1z"/>
	<path fill="#373737" d="M73.7,16c0-4.5,2.8-7.2,5.6-7.2c1.5,0,2.4,0.6,3.3,1.4l-0.2-2V3.6h4.3v19.1h-3.5l-0.3-1.3h-0.1
		c-1,1-2.3,1.7-3.6,1.7C75.8,23.1,73.7,20.4,73.7,16z M82.4,18.5v-5.4c-0.6-0.6-1.4-0.8-2.1-0.8c-1.2,0-2.3,1.1-2.3,3.6
		c0,2.6,0.9,3.7,2.3,3.7C81.2,19.6,81.8,19.3,82.4,18.5z"/>
	<path fill="#373737" d="M87.9,16c0-4.5,3.2-7.2,6.7-7.2c3.4,0,6.7,2.6,6.7,7.2c0,4.5-3.2,7.1-6.7,7.1C91.1,23.1,87.9,20.5,87.9,16z
		 M96.9,16c0-2.3-0.7-3.7-2.3-3.7c-1.6,0-2.3,1.4-2.3,3.7c0,2.3,0.7,3.7,2.3,3.7C96.2,19.7,96.9,18.2,96.9,16z"/>
	<path fill="#373737" d="M105.8,20.5l2.4-2.9c1.3,1.1,2.9,1.8,4.3,1.8c1.6,0,2.3-0.6,2.3-1.6c0-1-1-1.4-2.5-2l-2.3-1
		c-1.9-0.7-3.6-2.3-3.6-4.9c0-3,2.7-5.4,6.5-5.4c2.1,0,4.2,0.8,5.8,2.3l-2.1,2.7c-1.2-0.9-2.3-1.4-3.7-1.4c-1.3,0-2.1,0.5-2.1,1.5
		c0,1,1.1,1.4,2.7,2l2.2,0.9c2.2,0.9,3.5,2.4,3.5,4.9c0,3-2.5,5.6-6.8,5.6C110.1,23.1,107.6,22.2,105.8,20.5z"/>
	<path fill="#373737" d="M119.4,9.1h4.2l1.2,6.1c0.2,1.3,0.4,2.7,0.6,4.1h0.1c0.2-1.4,0.5-2.8,0.8-4.1l1.4-6.1h3.7l1.5,6.1
		c0.3,1.3,0.6,2.7,0.8,4.1h0.1c0.2-1.4,0.3-2.7,0.6-4.1l1.2-6.1h4l-3.2,13.6h-5l-1.1-5.2c-0.3-1.3-0.5-2.5-0.7-4h-0.1
		c-0.2,1.5-0.4,2.7-0.6,4l-1.1,5.2h-4.9L119.4,9.1z"/>
	<path fill="#373737" d="M140.2,5.1c0-1.3,1-2.2,2.4-2.2c1.4,0,2.4,0.9,2.4,2.2c0,1.3-1,2.2-2.4,2.2C141.2,7.2,140.2,6.3,140.2,5.1z
		 M140.5,9.1h4.2v13.6h-4.2V9.1z"/>
	<path fill="#373737" d="M147.3,17.7v-5.2h-1.8V9.3l2.1-0.2l0.5-3.6h3.5v3.6h3.2v3.3h-3.2v5.2c0,1.5,0.7,2.1,1.7,2.1
		c0.4,0,0.9-0.1,1.2-0.2l0.7,3.1c-0.7,0.2-1.7,0.5-3.1,0.5C148.7,23.1,147.3,20.9,147.3,17.7z"/>
	<path fill="#373737" d="M154.6,16c0-4.5,3.4-7.2,7.2-7.2c1.7,0,2.9,0.6,4,1.5l-2,2.7c-0.6-0.5-1.1-0.7-1.7-0.7c-1.9,0-3,1.4-3,3.7
		c0,2.3,1.2,3.7,2.9,3.7c0.9,0,1.7-0.4,2.4-1l1.6,2.8c-1.3,1.2-3,1.6-4.5,1.6C157.6,23.1,154.6,20.5,154.6,16z"/>
	<path fill="#373737" d="M166.8,3.6h4.2v4.6l-0.2,2.4c1-0.9,2.3-1.8,4.2-1.8c3,0,4.2,2.1,4.2,5.5v8.4H175v-7.9
		c0-1.9-0.5-2.4-1.6-2.4c-1,0-1.5,0.4-2.4,1.2v9.1h-4.2V3.6z"/>
	<path fill="#373737" d="M200.6,19.6v3.1h-20.3v-3.1h8.2v-2.9h-6V8.8h12.1V6.9h-12.1v-3h16v7.9h-12.1v1.9H199v3h-6.6v2.9H200.6z"/>
	<path fill="#373737" d="M225.3,11.4v3h-20.4v-3H225.3z M205.7,8.2c3.9-0.2,5.8-1.1,6.6-2.1h-5.5V3.2h16.7v2.9h-5.5
		c0.8,1,2.6,1.8,6.6,2.1l-1.2,2.9c-4.3-0.3-6.9-1.5-8.2-3.1c-1.3,1.7-3.9,2.9-8.2,3.1L205.7,8.2z M211,22.1h12.4v2.9h-16.2v-6.2
		h11.9V18h-11.9v-2.8h15.7v6.1H211V22.1z"/>
	<path fill="#373737" d="M237.5,3.2c0,6.3-3,9.6-10.4,10.9l-1.3-3.1c5.4-0.9,7.1-2.7,7.4-4.8h-6.2v-3H237.5z M244.8,21.9v2.9h-15.7
		v-6.5h11.3v-0.8h-11.4v-2.9h15.3V21H233v0.8H244.8z M244.4,13.7h-3.9V2.6h3.9V13.7z"/>
	<path fill="#373737" d="M270.6,17.6h-8.3v7.4h-3.9v-7.4h-8.1v-3.1h20.3L270.6,17.6z M268.5,13.3c-4-0.6-6.7-2.3-8.1-4.6
		c-1.4,2.3-4,4-8.1,4.6l-1.5-3.1c5.7-0.8,7.5-3.8,7.5-6.1v-1h4.1v1c0,2.3,1.8,5.4,7.5,6.1L268.5,13.3z"/>
	<path fill="#373737" d="M275.1,9.1c0-3.2,2.7-5.5,6.3-5.5s6.3,2.3,6.3,5.5c0,3.2-2.7,5.5-6.3,5.5S275.1,12.3,275.1,9.1z
		 M291.5,16.6c0,2.3,1,4.4,4,5.3l-1.9,2.8c-2-0.7-3.4-1.9-4.1-3.5c-0.8,1.6-2,3-4,3.8c-2-0.7-3.3-2.1-4-3.7c-0.8,1.6-2.1,2.8-4,3.5
		l-1.9-2.8c3-1,4-3.1,4-5.3v-0.5h3.8v0.5c0,1.7,0.6,3.4,2.1,4.6c1.6-1.3,2.2-3,2.2-4.6v-0.5h3.8V16.6z M278.8,9.1
		c0,1.5,1.1,2.3,2.5,2.3s2.5-0.8,2.5-2.3s-1.1-2.3-2.5-2.3S278.8,7.6,278.8,9.1z M293.6,15.2h-3.9V2.6h3.9V15.2z"/>
	<path fill="#373737" d="M315.8,13.3v3h-20.4v-3H315.8z M301.5,21.5h12.3v3h-16.1v-6.8h3.9V21.5z M313.6,11.3h-15.8v-8h3.9v4.9h11.9
		V11.3z"/>
	<path fill="#373737" d="M322.8,2.3h8.1v3.1h-4.7v12.1h-3.4V2.3z"/>
	<path fill="#373737" d="M331.2,4.6h11v15.1h-11V4.6z M335,16.7h3.4V7.6H335V16.7z M351.4,13.9h-3V25h-3.9V2.6h3.9v8.2h3V13.9z"/>
	<path fill="#373737" d="M356.3,16.8c3.2,0,5.8-0.2,8.6-0.7l0.4,3.1c-3.4,0.6-6.7,0.7-10.9,0.7h-2.1v-9.6h6.8v-3h-6.8v-3h10.7v9.1
		h-6.8V16.8z M370.1,2.5v22.6h-3.9V2.5H370.1z"/>
	<path fill="#373737" d="M392.2,19.5v3.1h-20.4v-3.1h8.2v-3.3c-3.9-0.6-6.6-2.9-6.6-6.3c0-3.8,3.7-6.3,8.5-6.3
		c4.8,0,8.5,2.5,8.5,6.3c0,3.3-2.8,5.7-6.6,6.3v3.3H392.2z M382,13.2c2.8,0,4.7-1.1,4.7-3.3c0-2.1-1.9-3.3-4.7-3.3
		c-2.8,0-4.7,1.2-4.7,3.3C377.3,12,379.2,13.2,382,13.2z"/>
	<path fill="#373737" d="M400,25h-8.1v-3.1h4.7V9.8h3.4V25z"/>
	<path fill="#373737" d="M416.1,7c0,4.2,1.3,8.3,5.4,10l-2.2,3.1c-2.5-1.1-4.1-3-5.1-5.5c-1,2.7-2.6,4.9-5.3,6.1l-2.3-3.2
		c4.2-1.7,5.6-6.1,5.6-10.5V4.2h3.9V7z M425.8,2.5v22.6h-3.9V2.5H425.8z"/>
	<path fill="#373737" d="M432.7,16.8c3.2,0,5.8-0.2,8.6-0.7l0.4,3.1c-3.4,0.6-6.7,0.7-10.9,0.7h-2.1v-9.6h6.8v-3h-6.8v-3h10.7v9.1
		h-6.8V16.8z M446.5,2.5v22.6h-3.9V2.5H446.5z"/>
	<path fill="#373737" d="M468.6,19.4v3.1h-20.3v-3.1H468.6z M448.9,13.4c5.2-0.8,7.1-3.5,7.4-6.2h-6.4v-3h16.9v3h-6.4
		c0.3,2.7,2.2,5.3,7.5,6l-1.5,3.1c-4.1-0.7-6.7-2.4-8.1-4.8c-1.4,2.4-4,4.2-8,4.9L448.9,13.4z"/>
	<path fill="#373737" d="M493.2,19.4v3.1h-20.4v-3.1h8.1v-4.8h3.9v4.8H493.2z M491.1,15.6c-4.1-0.7-6.8-2.7-8.2-5.2
		c-1.4,2.5-4.1,4.5-8.2,5.2l-1.6-3.2c5.7-0.9,7.7-4.4,7.7-7.2V3.7h4.1v1.6c0,2.9,1.9,6.3,7.7,7.2L491.1,15.6z"/>
	<path fill="#373737" d="M513.8,19.5v3.1h-20.3v-3.1H513.8z M497.7,7.4h-2.8v-3h17.4v3h-2.8v6.2h2.7v3H495v-3h2.7V7.4z M505.6,7.4
		h-4v6.2h4V7.4z"/>
	<path fill="#373737" d="M534.4,19.5v3.1h-20.4v-3.1H534.4z M532.3,16.9h-16V4.1h15.9v3h-11.9v1.8h11.4v2.9h-11.4v1.9h12.1V16.9z"/>
	<path fill="#373737" d="M545.7,15.5c-1.2,0.2-2.4,0.4-3.7,0.5v7.3h-3.7v-7.1c-1.4,0-2.6,0.1-3.7,0.1l-0.4-3.1c3,0,7.7,0,11.2-0.5
		L545.7,15.5z M535.1,8c0-2.5,2.1-4.3,5-4.3c2.9,0,5,1.8,5,4.3c0,2.5-2.1,4.3-5,4.3C537.3,12.4,535.1,10.6,535.1,8z M538.5,8
		c0,1,0.7,1.5,1.6,1.5c1,0,1.6-0.5,1.6-1.5c0-1-0.7-1.5-1.6-1.5C539.2,6.6,538.5,7,538.5,8z M546.4,2.9h3.6v21.2h-3.6v-4.4h-3.2
		v-2.9h3.2V2.9z M554.7,2.6V25H551V2.6H554.7z"/>
	<path fill="#373737" d="M574.3,2.5v22.6h-3.9V13.5h-3.1c-0.4,4.2-2.8,6.8-5.9,6.8c-3.4,0-5.9-3.1-5.9-8.2c0-5,2.5-8.1,5.9-8.1
		c3,0,5.3,2.4,5.8,6.4h3.1V2.5H574.3z M563.7,12.1c0-3.1-0.9-4.6-2.2-4.6c-1.4,0-2.2,1.5-2.2,4.6c0,3.2,0.9,4.6,2.2,4.6
		C562.9,16.8,563.7,15.3,563.7,12.1z"/>
</g>
</svg>
