<?xml version="1.0" encoding="utf-8"?>
<!-- Generator: Adobe Illustrator 27.3.1, SVG Export Plug-In . SVG Version: 6.00 Build 0)  -->
<svg version="1.1" id="Layer_1" xmlns="http://www.w3.org/2000/svg" xmlns:xlink="http://www.w3.org/1999/xlink" x="0px" y="0px"
	 viewBox="0 0 472 91.8" style="enable-background:new 0 0 472 91.8;" xml:space="preserve">
<style type="text/css">
	.st0{fill:#373737;}
</style>
<path class="st0" d="M34.4,30.8v5.1H1.2v-5.1C1.2,30.8,34.4,30.8,34.4,30.8z M30.9,25.3c-6.7-1.2-11-4.6-13.3-8.9
	C15.2,20.7,11,24,4.3,25.3L1.7,20c9.2-1.6,12.5-7.5,12.5-12.2V5.2H21v2.6c0,4.9,3.2,10.7,12.5,12.2L30.9,25.3z"/>
<path class="st0" d="M35.8,6.6h18v24.7h-18V6.6z M42,26.4h5.5V11.6H42V26.4z M68.9,21.9H64V40h-6.3V3.3H64v13.4h4.9V21.9z"/>
<path class="st0" d="M101.8,31.1v5.1H68.6v-5.1H101.8z M98.4,26.7H72.2V5.8h26v5H78.7v3h18.6v4.8H78.7v3.2h19.7
	C98.4,21.8,98.4,26.7,98.4,26.7z"/>
<path class="st0" d="M135.5,22.1v5h-33.3v-5h13.4v-2.7h-10.3v-4.9h3.9v-5H105v-5h27.7v4.9h-4.2v5.1h3.8v4.9H122v2.7H135.5z
	 M112.4,34.6h19.3v5h-25.6V29h6.3V34.6z M115.5,14.5h6.6v-5h-6.6V14.5z"/>
<path class="st0" d="M169.1,20.3v4.9h-33.3v-4.9h7.1v-4c-2.5-1.3-4-3.1-4-5.4c0-4.4,5.4-7.2,13.5-7.2s13.5,2.7,13.5,7.2
	c0,2.4-1.5,4.2-4.2,5.5v3.9H169.1z M165.3,33.4c0,4.3-4.9,6.8-12.8,6.8c-8,0-12.9-2.5-12.9-6.8s4.9-6.8,12.9-6.8
	C160.4,26.6,165.3,29.1,165.3,33.4z M145.6,10.9c0,1.7,2.4,2.4,7,2.4c4.5,0,7-0.7,7-2.4s-2.4-2.4-7-2.4
	C148,8.6,145.6,9.3,145.6,10.9z M158.9,33.4c0-1.5-2-2-6.4-2c-4.5,0-6.5,0.5-6.5,2s2,2,6.5,2C156.9,35.4,158.9,34.9,158.9,33.4z
	 M149.3,20.3h6.3V18c-0.9,0.1-2,0.2-3.1,0.2s-2.2,0-3.3-0.2v2.3H149.3z"/>
<path class="st0" d="M188,22.5c-4.9,0-8.4-3.5-8.4-8.6s3.5-8.6,8.4-8.6s8.5,3.5,8.5,8.6C196.4,19,192.9,22.5,188,22.5z M188,17.5
	c1.7,0,2.8-1.1,2.8-3.6c0-2.4-1.1-3.6-2.8-3.6c-1.6,0-2.7,1.1-2.7,3.6C185.2,16.4,186.3,17.5,188,17.5z M204.8,24.7h6.3v15h-25.5
	v-15h6.3v2.8h12.9V24.7z M204.8,32.3h-12.9v2.5h12.9V32.3z M211.1,3.3v19.9h-6v-7.7h-1.8V23h-5.9V4h5.9v6.5h1.8V3.3H211.1z"/>
<path class="st0" d="M246.6,30.8v5.1h-33.3v-5.1C213.3,30.8,246.6,30.8,246.6,30.8z M243.8,15.8c0,6.6-6.1,10.9-13.9,10.9
	S216,22.4,216,15.8s6.1-10.9,13.9-10.9S243.8,9.2,243.8,15.8z M222.2,15.8c0,3.7,3.1,5.7,7.7,5.7s7.7-2,7.7-5.7s-3.1-5.8-7.7-5.8
	S222.2,12,222.2,15.8z"/>
<path class="st0" d="M280.2,31.2v5.1H247v-5.1h13.4v-4.8h-9.8V13.5h19.8v-3h-19.9v-5h26.1v12.8h-19.8v3.1h20.6v5h-10.8v4.8H280.2z"
	/>
<path class="st0" d="M320.5,17.8v4.9h-33.3v-4.9H320.5z M288.5,12.6c6.3-0.4,9.4-1.8,10.7-3.4h-9V4.3h27.3v4.8h-9
	c1.3,1.6,4.3,3,10.7,3.4l-1.9,4.7c-7-0.4-11.3-2.4-13.5-5.1c-2.1,2.7-6.3,4.7-13.4,5.1L288.5,12.6z M297.2,35.3h20.3V40H291V29.7
	h19.4v-1.2H291V24h25.7v10h-19.4v1.3H297.2z"/>
<path class="st0" d="M340.6,4.4c0,10.4-5,15.6-17,17.9l-2.2-5c8.9-1.4,11.6-4.4,12.1-7.9h-10.1v-5C323.4,4.4,340.6,4.4,340.6,4.4z
	 M352.5,34.9v4.8h-25.7V29h18.5v-1.3h-18.6V23h25v10.5h-18.5v1.4H352.5z M351.7,21.6h-6.3V3.3h6.3V21.6z"/>
<path class="st0" d="M394.5,28h-13.6v12.1h-6.3V28h-13.3v-5.1h33.3L394.5,28z M391.1,20.9c-6.6-0.9-10.9-3.8-13.2-7.4
	c-2.3,3.7-6.6,6.5-13.2,7.4l-2.4-5.1c9.4-1.3,12.3-6.2,12.3-10V4.3h6.7v1.6c0,3.8,2.9,8.8,12.3,10L391.1,20.9z"/>
<path class="st0" d="M401.9,14c0-5.2,4.4-8.9,10.2-8.9c5.8,0,10.2,3.8,10.2,8.9s-4.4,8.9-10.2,8.9S401.9,19.2,401.9,14z M428.9,26.3
	c0,3.8,1.6,7.2,6.5,8.7l-3.1,4.5c-3.3-1.1-5.5-3.1-6.7-5.8c-1.3,2.7-3.3,4.9-6.5,6.1c-3.3-1.2-5.3-3.4-6.6-6
	c-1.3,2.5-3.4,4.5-6.6,5.6l-3.1-4.5c4.9-1.6,6.5-5.1,6.5-8.7v-0.8h6.1v0.8c0,2.7,0.9,5.5,3.5,7.5c2.6-2.1,3.6-4.9,3.6-7.5v-0.8h6.3
	v0.9H428.9z M408.1,14c0,2.5,1.7,3.7,4,3.7s4-1.3,4-3.7s-1.7-3.7-4-3.7C409.8,10.3,408.1,11.5,408.1,14z M432.3,24H426V3.3h6.3V24z"
	/>
<path class="st0" d="M468.5,20.8v5h-33.3v-5H468.5z M445.1,34.4h20.1v5h-26.4v-11h6.3V34.4z M464.9,17.6h-25.8v-13h6.3v8h19.5V17.6z
	"/>
<path class="st0" d="M38.7,53.5H52v5.1h-7.7v19.8h-5.6C38.7,78.4,38.7,53.5,38.7,53.5z"/>
<path class="st0" d="M52.4,57.2h18v24.7h-18V57.2z M58.6,77h5.5V62.2h-5.5V77z M85.5,72.5h-4.9v18.1h-6.3V53.9h6.3v13.4h4.9V72.5z"
	/>
<path class="st0" d="M93.5,77.2c5.2-0.1,9.5-0.4,14.1-1.2l0.6,5.1c-5.6,1-10.9,1.2-17.8,1.2H87V66.7h11v-4.9H87v-5h17.5v14.8h-11
	V77.2z M116,53.9v36.9h-6.3V53.9H116z"/>
<path class="st0" d="M152.1,81.5v5.1h-33.3v-5.1h13.5v-5.4c-6.3-1-10.8-4.8-10.8-10.2c0-6.3,6-10.4,13.9-10.4s13.9,4.1,13.9,10.4
	c0,5.4-4.5,9.2-10.8,10.2v5.4H152.1z M135.5,71.3c4.6,0,7.7-1.9,7.7-5.4s-3.1-5.4-7.7-5.4s-7.7,1.9-7.7,5.4S130.9,71.3,135.5,71.3z"
	/>
<path class="st0" d="M164.8,90.7h-13.3v-5.1h7.7V65.8h5.6V90.7z"/>
<path class="st0" d="M191.3,61.2c0,6.9,2.1,13.6,8.8,16.4l-3.6,5.1c-4.1-1.8-6.7-5-8.3-9c-1.6,4.4-4.3,8-8.7,10l-3.7-5.2
	c6.9-2.9,9.2-10,9.2-17.2v-4.6h6.4L191.3,61.2L191.3,61.2z M207.1,53.9v36.9h-6.3V53.9H207.1z"/>
<path class="st0" d="M218.4,77.2c5.2-0.1,9.5-0.4,14.1-1.2l0.6,5.1c-5.6,1-10.9,1.2-17.8,1.2H212V66.7h11v-4.9h-11.1v-5h17.5v14.8
	h-11V77.2z M240.9,53.9v36.9h-6.3V53.9H240.9z"/>
<path class="st0" d="M277,81.4v5.1h-33.3v-5.1H277z M244.9,71.7c8.6-1.3,11.7-5.7,12.1-10.1h-10.5v-4.9h27.7v4.9h-10.5
	c0.4,4.3,3.5,8.6,12.3,9.9l-2.4,5c-6.7-1.1-11-4-13.2-7.9c-2.2,4-6.5,6.9-13.1,8.1L244.9,71.7z"/>
<path class="st0" d="M317.4,81.5v5.1h-33.3v-5.1h13.3v-7.8h6.3v7.8H317.4z M313.9,75.3c-6.7-1.1-11-4.3-13.4-8.5
	c-2.4,4.2-6.7,7.4-13.4,8.5l-2.5-5.2c9.4-1.4,12.5-7.2,12.5-11.8v-2.6h6.8v2.6c0,4.7,3.1,10.3,12.6,11.8L313.9,75.3z"/>
<path class="st0" d="M351,81.5v5.1h-33.3v-5.1H351z M324.7,61.8h-4.6v-5h28.4v5h-4.6v10.1h4.5v5h-28v-5h4.4L324.7,61.8L324.7,61.8z
	 M337.6,61.8H331v10.1h6.5V61.8H337.6z"/>
<path class="st0" d="M384.7,81.7v5.1h-33.3v-5.1H384.7z M381.3,77.3h-26.2V56.4h26v5h-19.5v3h18.6v4.8h-18.6v3.2h19.7V77.3z"/>
<path class="st0" d="M403.2,75.1c-1.9,0.4-4,0.6-6.1,0.8v11.9h-6V76.3c-2.2,0.1-4.3,0.1-6,0.1l-0.6-5.1c4.9,0,12.6-0.1,18.3-0.8
	L403.2,75.1z M385.9,62.9c0-4.1,3.5-7.1,8.2-7.1s8.2,3,8.2,7.1s-3.5,7.1-8.2,7.1S385.9,67,385.9,62.9z M391.5,62.9
	c0,1.6,1.1,2.4,2.7,2.4s2.7-0.8,2.7-2.4s-1.1-2.4-2.7-2.4S391.5,61.2,391.5,62.9z M404.3,54.4h5.9v34.7h-5.9V82h-5.2v-4.7h5.2V54.4z
	 M417.8,53.9v36.7h-6V53.9H417.8z"/>
<path class="st0" d="M450,53.8v37h-6.3v-19h-5.1c-0.7,6.9-4.5,11.2-9.6,11.2c-5.6,0-9.7-5.1-9.7-13.4c0-8.2,4.1-13.3,9.7-13.3
	c4.9,0,8.7,3.9,9.5,10.4h5.1V53.8H450z M432.6,69.6c0-5.1-1.4-7.5-3.6-7.5s-3.6,2.4-3.6,7.5c0,5.2,1.4,7.6,3.6,7.6
	S432.6,74.8,432.6,69.6z"/>
</svg>
