<?xml version="1.0" encoding="utf-8"?>
<!-- Generator: Adobe Illustrator 27.3.1, SVG Export Plug-In . SVG Version: 6.00 Build 0)  -->
<svg version="1.1" id="Layer_1" xmlns="http://www.w3.org/2000/svg" xmlns:xlink="http://www.w3.org/1999/xlink" x="0px" y="0px"
	 viewBox="0 0 592.7 22.6" style="enable-background:new 0 0 592.7 22.6;" xml:space="preserve">
<style type="text/css">
	.st0{fill:#373737;}
</style>
<path class="st0" d="M21.5,16.7v3.1H1.2v-3.1H21.5z M19.3,13.3c-4.1-0.7-6.7-2.8-8.1-5.4c-1.4,2.6-4,4.7-8.1,5.4l-1.6-3.2
	c5.7-1,7.7-4.6,7.7-7.5V1.1h4.1v1.6c0,3,1.9,6.5,7.7,7.5L19.3,13.3z"/>
<path class="st0" d="M23.8,1.9h11V17h-11V1.9z M27.6,14H31V4.9h-3.4V14z M44,11.3h-3v11.1h-3.9V-0.1H41v8.2h3V11.3z"/>
<path class="st0" d="M65.6,16.9V20H45.2v-3.1H65.6z M63.5,14.2h-16V1.4h15.9v3h-12v1.8h11.4v2.9H51.4V11h12.1
	C63.5,11,63.5,14.2,63.5,14.2z"/>
<path class="st0" d="M87.6,11.4v3H67.2v-3h8.2V9.8h-6.3v-3h2.4V3.6h-2.6v-3h16.9v3h-2.5v3.1h2.3v3h-6.3v1.7H87.6z M73.5,19h11.8v3
	H69.6v-6.4h3.9C73.5,15.6,73.5,19,73.5,19z M75.4,6.7h4V3.6h-4V6.7z"/>
<path class="st0" d="M109.6,10.3v3H89.3v-3h4.3V7.9C92,7.1,91.2,6,91.2,4.6c0-2.7,3.3-4.4,8.3-4.4s8.3,1.7,8.3,4.4
	c0,1.5-0.9,2.6-2.5,3.4v2.4L109.6,10.3L109.6,10.3z M107.3,18.3c0,2.6-3,4.1-7.9,4.1s-7.9-1.5-7.9-4.1s3-4.1,7.9-4.1
	C104.3,14.1,107.3,15.6,107.3,18.3z M95.2,4.6c0,1,1.5,1.5,4.3,1.5s4.3-0.5,4.3-1.5s-1.5-1.5-4.3-1.5S95.2,3.5,95.2,4.6z
	 M103.3,18.3c0-0.9-1.2-1.2-3.9-1.2c-2.7,0-4,0.3-4,1.2c0,0.9,1.2,1.2,4,1.2C102.1,19.5,103.3,19.2,103.3,18.3z M97.5,10.3h3.9V8.8
	c-0.6,0.1-1.2,0.1-1.9,0.1c-0.7,0-1.4,0-2-0.1V10.3z"/>
<path class="st0" d="M123.5,11.6c-3,0-5.2-2.2-5.2-5.3s2.2-5.3,5.2-5.3s5.2,2.2,5.2,5.3S126.5,11.6,123.5,11.6z M123.5,8.6
	c1,0,1.7-0.7,1.7-2.2s-0.7-2.2-1.7-2.2s-1.7,0.7-1.7,2.2S122.5,8.6,123.5,8.6z M133.8,13h3.8v9.2H122V13h3.8v1.7h7.9L133.8,13
	L133.8,13z M133.8,17.6h-7.9v1.5h7.9V17.6z M137.6-0.1v12.2h-3.7V7.4h-1.1V12h-3.6V0.3h3.6v4h1.1v-4.4
	C133.9-0.1,137.6-0.1,137.6-0.1z"/>
<path class="st0" d="M160.7,16.7v3.1h-20.4v-3.1H160.7z M159.1,7.5c0,4-3.8,6.6-8.5,6.6c-4.8,0-8.5-2.6-8.5-6.6s3.8-6.7,8.5-6.7
	C155.3,0.8,159.1,3.5,159.1,7.5z M145.8,7.5c0,2.3,1.9,3.5,4.7,3.5s4.7-1.2,4.7-3.5S153.3,4,150.5,4S145.8,5.2,145.8,7.5z"/>
<path class="st0" d="M182.8,16.9V20h-20.3v-3.1h8.2V14h-6V6.1h12.1V4.3h-12.1v-3h16v7.9h-12.1V11h12.6v3h-6.6v2.9H182.8z"/>
<path class="st0" d="M210.3,8.8v3h-20.4v-3H210.3z M190.7,5.5c3.9-0.2,5.8-1.1,6.6-2.1h-5.5V0.5h16.7v2.9H203c0.8,1,2.6,1.8,6.6,2.1
	l-1.3,2.9c-4.3-0.3-6.9-1.5-8.2-3.1c-1.3,1.7-3.9,2.9-8.2,3.1L190.7,5.5z M196,19.4h12.4v2.9h-16.2v-6.2h11.9v-0.7h-11.9v-2.8h15.7
	v6.1H196V19.4z"/>
<path class="st0" d="M224,0.6c0,6.3-3,9.6-10.4,10.9l-1.3-3c5.4-0.9,7.1-2.7,7.4-4.8h-6.2v-3L224,0.6L224,0.6z M231.3,19.2v2.9
	h-15.7v-6.5h11.3v-0.8h-11.4v-2.9h15.3v6.4h-11.3v0.8h11.8V19.2z M230.8,11.1h-3.9V-0.1h3.9V11.1z"/>
<path class="st0" d="M259.9,15h-8.3v7.4h-3.9V15h-8.1v-3.1h20.3V15z M257.8,10.7c-4-0.6-6.7-2.3-8.1-4.6c-1.4,2.3-4,4-8.1,4.6
	l-1.5-3.1c5.7-0.8,7.5-3.8,7.5-6.1v-1h4.1v1c0,2.3,1.8,5.4,7.5,6.1L257.8,10.7z"/>
<path class="st0" d="M267.2,6.4c0-3.2,2.7-5.5,6.3-5.5s6.3,2.3,6.3,5.5s-2.7,5.5-6.3,5.5S267.2,9.6,267.2,6.4z M283.7,13.9
	c0,2.3,1,4.4,4,5.3l-1.9,2.8c-2-0.7-3.4-1.9-4.1-3.5c-0.8,1.6-2,3-4,3.8c-2-0.7-3.3-2.1-4-3.7c-0.8,1.6-2.1,2.8-4,3.5l-1.9-2.8
	c3-1,4-3.1,4-5.3v-0.5h3.8V14c0,1.7,0.6,3.4,2.1,4.6c1.6-1.3,2.2-3,2.2-4.6v-0.5h3.8V13.9z M271,6.4c0,1.5,1.1,2.3,2.5,2.3
	s2.5-0.8,2.5-2.3s-1.1-2.3-2.5-2.3S271,4.9,271,6.4z M285.8,12.5h-3.9V-0.1h3.9V12.5z"/>
<path class="st0" d="M309.4,10.6v3H289v-3H309.4z M295.1,18.9h12.2v3h-16.1v-6.8h3.9V18.9z M307.2,8.6h-15.8v-8h3.9v4.9h11.9V8.6z"
	/>
<path class="st0" d="M319.3-0.4h8.1v3.1h-4.7v12.1h-3.4V-0.4z"/>
<path class="st0" d="M329.1,1.9h11V17h-11V1.9z M332.9,14h3.4V4.9h-3.4V14z M349.4,11.3h-3v11.1h-3.9V-0.1h3.9v8.2h3V11.3z"/>
<path class="st0" d="M355.7,14.2c3.2,0,5.8-0.2,8.6-0.7l0.4,3.1c-3.4,0.6-6.7,0.7-10.9,0.7h-2.1V7.7h6.8v-3h-6.8v-3h10.7v9.1h-6.8
	L355.7,14.2L355.7,14.2z M369.5-0.1v22.6h-3.9V-0.1H369.5z"/>
<path class="st0" d="M393,16.8v3.1h-20.4v-3.1h8.2v-3.3c-3.9-0.6-6.6-2.9-6.6-6.3c0-3.8,3.7-6.3,8.5-6.3s8.5,2.5,8.5,6.3
	c0,3.3-2.8,5.7-6.6,6.3v3.3H393z M382.8,10.5c2.8,0,4.7-1.1,4.7-3.3c0-2.1-1.9-3.3-4.7-3.3c-2.8,0-4.7,1.2-4.7,3.3
	C378.1,9.4,380,10.5,382.8,10.5z"/>
<path class="st0" d="M402.2,22.4h-8.1v-3.1h4.7V7.2h3.4V22.4z"/>
<path class="st0" d="M421.3,4.4c0,4.2,1.3,8.3,5.4,10l-2.2,3.1c-2.5-1.1-4.1-3-5.1-5.5c-1,2.7-2.6,4.9-5.3,6.1l-2.3-3.2
	c4.2-1.7,5.6-6.1,5.6-10.5V1.5h3.9V4.4z M430.9-0.1v22.6H427V-0.1H430.9z"/>
<path class="st0" d="M439.3,14.2c3.2,0,5.8-0.2,8.6-0.7l0.4,3.1c-3.4,0.6-6.7,0.7-10.9,0.7h-2.1V7.7h6.8v-3h-6.8v-3H446v9.1h-6.7
	V14.2z M453-0.1v22.6h-3.9V-0.1H453z"/>
<path class="st0" d="M476.5,16.7v3.1h-20.3v-3.1H476.5z M456.9,10.8c5.2-0.8,7.1-3.5,7.4-6.2h-6.4v-3h16.9v3h-6.4
	c0.3,2.7,2.2,5.3,7.5,6l-1.5,3.1c-4.1-0.7-6.7-2.4-8.1-4.8c-1.4,2.4-4,4.2-8,4.9L456.9,10.8z"/>
<path class="st0" d="M504.1,16.8v3.1h-20.4v-3.1h8.1V12h3.9v4.8H504.1z M502,13c-4.1-0.7-6.8-2.7-8.2-5.2c-1.4,2.5-4.1,4.5-8.2,5.2
	L484,9.8c5.7-0.9,7.7-4.4,7.7-7.2V1h4.1v1.6c0,2.9,1.9,6.3,7.7,7.2L502,13z"/>
<path class="st0" d="M526.1,16.8v3.1h-20.3v-3.1H526.1z M510,4.7h-2.8v-3h17.4v3h-2.8v6.2h2.7v3h-17.2v-3h2.7V4.7z M517.9,4.7h-4
	v6.2h4V4.7z"/>
<path class="st0" d="M548.2,16.9V20h-20.4v-3.1H548.2z M546.1,14.2h-16V1.4H546v3h-11.9v1.8h11.4v2.9h-11.4V11h12.1L546.1,14.2
	L546.1,14.2z"/>
<path class="st0" d="M560.9,12.9c-1.2,0.2-2.4,0.4-3.7,0.5v7.3h-3.7v-7.1c-1.4,0-2.6,0.1-3.7,0.1l-0.4-3.1c3,0,7.7,0,11.2-0.5
	L560.9,12.9z M550.3,5.4c0-2.5,2.1-4.3,5-4.3s5,1.8,5,4.3s-2.1,4.3-5,4.3C552.5,9.7,550.3,7.9,550.3,5.4z M553.7,5.4
	c0,1,0.7,1.5,1.6,1.5c1,0,1.6-0.5,1.6-1.5s-0.7-1.5-1.6-1.5C554.4,3.9,553.7,4.4,553.7,5.4z M561.6,0.2h3.6v21.2h-3.6V17h-3.2v-2.9
	h3.2V0.2z M569.8-0.1v22.5h-3.7V-0.1H569.8z"/>
<path class="st0" d="M590.9-0.2v22.6H587V10.8h-3.1c-0.4,4.2-2.8,6.8-5.9,6.8c-3.4,0-5.9-3.1-5.9-8.2c0-5,2.5-8.1,5.9-8.1
	c3,0,5.3,2.4,5.8,6.4h3.1v-7.9C586.9-0.2,590.9-0.2,590.9-0.2z M580.3,9.5c0-3.1-0.9-4.6-2.2-4.6c-1.4,0-2.2,1.5-2.2,4.6
	c0,3.2,0.9,4.6,2.2,4.6C579.5,14.1,580.3,12.7,580.3,9.5z"/>
</svg>
