<svg id="news-title.svg" xmlns="http://www.w3.org/2000/svg" width="183.594" height="19.937" viewBox="0 0 183.594 19.937">
  <defs>
    <style>
      .cls-1 {
        fill: #e60012;
        fill-rule: evenodd;
      }
    </style>
  </defs>
  <path id="INFORMATION" class="cls-1" d="M245.288,792.707V773.476h-4.912v19.231h4.912Zm19.7,0V773.476h-4.7l0.208,12.162-7.485-12.162h-4.236v19.231h4.7l-0.13-11.747,7.381,11.747h4.262Zm8.221,0v-7.329H278.8v-4.314h-5.587V777.79h5.8v-4.314h-10.5v19.231h4.7Zm17.99,0.363a9.98,9.98,0,1,0-.234-19.958c-5.848,0-10.136,4.47-10.136,10.421C280.832,789.224,285.848,793.07,291.2,793.07Zm-0.156-4.314c-3.145,0-5.3-2.546-5.3-5.717a5.349,5.349,0,0,1,5.224-5.613,5.437,5.437,0,0,1,5.249,5.691C296.217,786.184,294.086,788.756,291.046,788.756Zm27.557,3.951-5.224-6.549a5.833,5.833,0,0,0,4.782-6.056,6.362,6.362,0,0,0-3.534-5.925,11.872,11.872,0,0,0-4.548-.7H303.79v19.231h4.7V786.5h0.052l4.444,6.212H318.6Zm-10.109-9.564V777.79h1.871c1.845,0,3.092.935,3.092,2.6,0,1.845-1.195,2.755-3.144,2.755h-1.819Zm32.57,9.564V773.476h-6.341l-3.768,12.656H330.9l-3.82-12.656h-6.315v19.231h4.522l-0.156-14.58,4.158,14.58h3.248l4.106-14.45,0.052,0.052-0.155,14.4h4.521Zm21.217,0-7.64-19.231h-3.872l-7.718,19.231h5.275l1.014-2.781h6.678l0.936,2.781h5.327Zm-7.562-6.679h-4.028l1.975-6.575,0.078,0.026Zm16.771,6.679V777.79h3.769v-4.314H362.784v4.314h3.8v14.917h4.911Zm10.661,0V773.476h-4.912v19.231h4.912Zm13.024,0.363a9.98,9.98,0,1,0-.234-19.958c-5.847,0-10.135,4.47-10.135,10.421C384.806,789.224,389.821,793.07,395.175,793.07Zm-0.156-4.314c-3.144,0-5.3-2.546-5.3-5.717a5.349,5.349,0,0,1,5.223-5.613,5.437,5.437,0,0,1,5.25,5.691C400.191,786.184,398.06,788.756,395.019,788.756Zm28.961,3.951V773.476h-4.7l0.208,12.162L412,773.476h-4.236v19.231h4.7l-0.13-11.747,7.381,11.747h4.262Z" transform="translate(-240.375 -773.125)"/>
</svg>
