<?xml version="1.0" encoding="utf-8"?>
<!-- Generator: Adobe Illustrator 27.1.1, SVG Export Plug-In . SVG Version: 6.00 Build 0)  -->
<svg version="1.2" baseProfile="tiny" id="peachpc.svg"
	 xmlns="http://www.w3.org/2000/svg" xmlns:xlink="http://www.w3.org/1999/xlink" x="0px" y="0px" viewBox="0 0 389.7 147.4"
	 overflow="visible" xml:space="preserve">
<path id="PEACH" fill-rule="evenodd" fill="#373737" d="M156.6,13.1l1.6-7.6L150.3,0l-12.8,1.8l1.7,21.2l6.9-0.5l-0.1-6.1l5.7,0.6
	L156.6,13.1z M149.9,11.6l-3.8,0.5L146,5.7l4.7,1.5L149.9,11.6z M175.4,23.2l-0.8-5.9l-8.2,0.7l-0.4-2.5l6,0.9l1.1-4.9l-6.8-0.3
	l0.8-2.4l8.2,2.1l1.2-6l-16-2.3L157.7,15l2.4,7.5L175.4,23.2z M197.7,22.6l-5.6-18.2l-10.4-1.5l-5.8,18.9l7.2,1.5l0.8-4l5.2-0.5
	l0.9,4.6L197.7,22.6z M188.4,14.2l-3.3-0.4l1-4.7l1.4,0.2L188.4,14.2z M219.5,19.7l-3.7-6.1l-4.6,3.9l-5.2-1.8l-0.3-5l4.1-3.3
	l5.3,2.9l3-6.6L210,0.5l-8.1,2.3l-5.1,6.9l3.2,11.5l10.7,3.3L219.5,19.7z M241,22.5l0.2-21.3l-8.7,0.5l0.8,7.7h-5.1l-1-8.2l-8.6,1.5
	l4.5,21l6.7-1.1l-0.8-6.5l4.9-1.2l0.8,8.1L241,22.5z"/>
<g>
	<path fill="#F195BE" d="M68.3,142.5H8.6v-16.9h5.9V79.4H8.6V62.6h59.7v16.9h-5.9v46.3h5.9V142.5z M33.8,125.7h9.3V79.4h-9.3V125.7z
		 M94.1,143.5H73.8V60.6h20.3C94.1,60.6,94.1,143.5,94.1,143.5z"/>
	<path fill="#F195BE" d="M122.4,67.5v-8.6h20.3v8.6h19v16.9h-19v13.4c0,4.4-0.4,8.5-1.3,12.2l23.1,17.3l-10.1,15L134,126.7
		c-2.7,3.7-6.2,6.8-10.2,9.5c-4.1,2.6-8.9,4.7-14.5,6.1l-8.7-14.8c7.4-2.1,12.9-5.5,16.5-10.2c3.5-4.7,5.3-11.3,5.3-19.6V84.3h-18
		V67.5H122.4z M188.2,143.5h-20.3V60.6h20.3V143.5z"/>
	<path fill="#F195BE" d="M199.4,93.5h26.4v-9.4h20.3v9.4h38.1v14.9h-84.8L199.4,93.5L199.4,93.5z M241.9,147.4
		c-12.3,0-21.9-1.4-28.6-4.1c-6.7-2.7-10-7.3-10-13.8c0-6.5,3.3-11.1,10-13.8c6.7-2.7,16.2-4.1,28.6-4.1c6.1,0,11.6,0.3,16.4,1
		s8.9,1.7,12.2,3.1c3.3,1.4,5.8,3.3,7.5,5.5c1.7,2.3,2.5,5,2.5,8.2c0,6.5-3.3,11.1-10,13.8C263.7,146.1,254.2,147.4,241.9,147.4z
		 M258.1,78.4h-52.9V61.6h73.2v28.8h-20.3L258.1,78.4L258.1,78.4z M241.9,132.9c5.7,0,10.2-0.2,13.5-0.7c3.2-0.5,4.9-1.4,4.9-2.7
		c0-1.4-1.6-2.3-4.9-2.7c-3.2-0.5-7.7-0.7-13.5-0.7s-10.2,0.2-13.5,0.7c-3.2,0.5-4.9,1.4-4.9,2.7c0,1.4,1.6,2.3,4.9,2.7
		C231.6,132.7,236.1,132.9,241.9,132.9z"/>
	<path fill="#F195BE" d="M375.3,62.6v16.9h-29.5c-0.1,1-0.3,2.1-0.5,3.1s-0.5,2-0.8,2.9l35.2,8.5l-10,15L333,99.6
		c-3.9,2.7-8.6,5-14.1,6.8s-11.7,3-18.6,3.6L292,94.1c9.8-0.7,17.6-2.3,23.4-4.8s9.1-5.8,9.9-9.9h-29.1V62.6H375.3z M293.4,114.6
		h84.8v16.9H346v15.1h-20.3v-15.1h-32.2v-16.9H293.4z"/>
</g>
</svg>
