<svg enable-background="new 0 0 195.1 17.7" viewBox="0 0 195.1 17.7" xmlns="http://www.w3.org/2000/svg"><g fill="#fff"><path d="m10.7 14h-2.7l-5.3-8.6v8.6h-2.7v-13.1h2.7l5.3 8.7v-8.7h2.7z"/><path d="m13.8 1.8c0-.4.1-.7.4-1s.6-.4 1.1-.4c.4 0 .8.1 1.1.4s.4.6.4 1-.1.7-.4 1-.6.4-1.1.4c-.4 0-.8-.1-1.1-.4s-.4-.6-.4-1zm2.8 12.2h-2.6v-9.7h2.6z"/><path d="m22 4.3.1 1.1c.7-.9 1.6-1.3 2.8-1.3 1 0 1.8.3 2.3.9s.8 1.5.8 2.7v6.3h-2.6v-6.2c0-.6-.1-1-.4-1.2-.2-.2-.6-.4-1.2-.4-.7 0-1.3.3-1.7.9v6.9h-2.6v-9.7z"/><path d="m34 1.9v2.4h1.7v1.9h-1.7v4.9c0 .4.1.6.2.8s.4.2.8.2c.3 0 .5 0 .8-.1v2c-.5.2-1 .2-1.6.2-1.8 0-2.8-.9-2.8-2.8v-5.2h-1.4v-1.9h1.4v-2.4z"/><path d="m42.3 14.2c-1.4 0-2.6-.4-3.5-1.3s-1.3-2-1.3-3.5v-.3c0-1 .2-1.9.6-2.6.4-.8.9-1.4 1.6-1.8s1.5-.6 2.4-.6c1.3 0 2.4.4 3.2 1.3.8.8 1.1 2 1.1 3.6v1h-6.2c.1.6.3 1.1.8 1.5s1 .6 1.6.6c1 0 1.8-.4 2.4-1.1l1.3 1.4c-.4.6-.9 1-1.6 1.3-.8.4-1.6.5-2.4.5zm-.3-8c-.5 0-.9.2-1.3.5-.3.4-.5.9-.6 1.5h3.6v-.2c0-.6-.2-1-.5-1.3s-.6-.5-1.2-.5z"/><path d="m51.2 4.3.1 1.1c.7-.9 1.7-1.3 2.8-1.3 1 0 1.8.3 2.3.9s.8 1.5.8 2.7v6.3h-2.6v-6.2c0-.6-.1-1-.4-1.2-.2-.2-.6-.4-1.2-.4-.7 0-1.3.3-1.7.9v6.9h-2.6v-9.7z"/><path d="m59.7 9.1c0-1.5.3-2.7 1-3.6s1.6-1.4 2.8-1.4c1 0 1.7.4 2.4 1.1v-5h2.6v13.8h-2.4l-.1-1c-.6.8-1.5 1.2-2.5 1.2-1.1 0-2.1-.5-2.8-1.4-.6-.8-1-2.1-1-3.7zm2.6.2c0 .9.2 1.6.5 2.1s.8.7 1.4.7c.8 0 1.4-.3 1.7-1v-3.9c-.3-.7-.9-1-1.7-1-1.2 0-1.9 1-1.9 3.1z"/><path d="m71.1 9.1c0-1 .2-1.8.6-2.6s.9-1.3 1.6-1.8c.7-.4 1.5-.6 2.4-.6 1.3 0 2.4.4 3.2 1.2s1.3 1.9 1.4 3.3v.7c0 1.5-.4 2.7-1.3 3.6-.8.9-2 1.4-3.4 1.4s-2.5-.5-3.4-1.4c-.8-.9-1.3-2.1-1.3-3.7v-.1zm2.6.2c0 .9.2 1.6.5 2.1s.8.7 1.5.7c.6 0 1.1-.2 1.5-.7s.5-1.3.5-2.3c0-.9-.2-1.6-.5-2.1-.4-.5-.9-.7-1.5-.7s-1.1.2-1.5.7c-.4.4-.5 1.2-.5 2.3z"/><path d="m99.3 7.8c0 1.3-.2 2.4-.7 3.4s-1.1 1.7-2 2.3-1.8.8-2.9.8-2.1-.3-2.9-.8c-.9-.5-1.5-1.3-2-2.2-.5-1-.7-2.1-.7-3.4v-.7c0-1.3.2-2.4.7-3.4s1.1-1.7 2-2.3c.9-.5 1.8-.8 2.9-.8s2.1.3 2.9.8c.9.5 1.5 1.3 2 2.3s.7 2.1.7 3.4zm-2.7-.6c0-1.4-.2-2.4-.7-3.1-.6-.8-1.3-1.1-2.2-1.1s-1.6.4-2.1 1.1-.7 1.7-.7 3.1v.6c0 1.3.2 2.4.7 3.1s1.2 1.1 2.1 1.1 1.6-.4 2.1-1.1.7-1.8.7-3.1v-.6z"/><path d="m102.9 14v-7.8h-1.5v-1.9h1.5v-.8c0-1.1.3-1.9.9-2.5s1.5-.9 2.6-.9c.4 0 .8.1 1.3.2v2c-.2-.1-.5-.1-.8-.1-1 0-1.5.5-1.5 1.4v.8h1.9v1.9h-1.9v7.7z"/><path d="m110.7 14v-7.8h-1.5v-1.9h1.5v-.8c0-1.1.3-1.9.9-2.5s1.5-.9 2.6-.9c.4 0 .8.1 1.3.2v2c-.2-.1-.5-.1-.8-.1-1 0-1.5.5-1.5 1.4v.8h1.9v1.9h-1.9v7.7z"/><path d="m117.6 1.8c0-.4.1-.7.4-1s.6-.4 1.1-.4c.4 0 .8.1 1.1.4s.4.6.4 1-.1.7-.4 1-.6.4-1.1.4c-.4 0-.8-.1-1.1-.4s-.4-.6-.4-1zm2.7 12.2h-2.6v-9.7h2.6z"/><path d="m127.3 12.1c.5 0 .9-.1 1.2-.4s.5-.6.5-1.1h2.4c0 .7-.2 1.3-.5 1.8s-.8 1-1.5 1.3c-.6.3-1.3.5-2 .5-1.4 0-2.5-.4-3.3-1.3s-1.2-2.1-1.2-3.7v-.2c0-1.5.4-2.7 1.2-3.6s1.9-1.3 3.3-1.3c1.2 0 2.2.3 2.9 1s1.1 1.6 1.1 2.8h-2.4c0-.5-.2-.9-.5-1.2s-.7-.5-1.2-.5c-.6 0-1.1.2-1.4.7-.3.4-.5 1.2-.5 2.2v.3c0 1 .2 1.7.5 2.2s.8.5 1.4.5z"/><path d="m133.8 1.8c0-.4.1-.7.4-1s.6-.4 1.1-.4c.4 0 .8.1 1.1.4s.4.6.4 1-.1.7-.4 1-.6.4-1.1.4c-.4 0-.8-.1-1.1-.4s-.4-.6-.4-1zm2.7 12.2h-2.6v-9.7h2.6z"/><path d="m145.2 14c-.1-.2-.2-.5-.3-.9-.6.7-1.5 1.1-2.5 1.1s-1.7-.3-2.4-.8c-.6-.6-.9-1.2-.9-2.1 0-1 .4-1.8 1.1-2.4.8-.6 1.9-.8 3.3-.8h1.2v-.6c0-.5-.1-.8-.3-1.1s-.6-.4-1.1-.4c-.4 0-.8.1-1 .3s-.4.5-.4.9h-2.6c0-.6.2-1.1.5-1.6s.8-.9 1.5-1.1c.6-.3 1.4-.4 2.1-.4 1.2 0 2.2.3 2.9.9s1.1 1.5 1.1 2.5v4.2c0 .9.1 1.6.4 2.1v.2zm-2.2-1.8c.4 0 .7-.1 1.1-.3.3-.2.6-.4.7-.7v-1.6h-1c-1.3 0-2 .5-2.1 1.4v.2c0 .3.1.6.3.8.3.1.6.2 1 .2z"/><path d="m153 14h-2.6v-13.8h2.6z"/><path d="m168.6 10.6c0-.5-.2-.9-.5-1.2s-1-.6-1.9-.9-1.7-.6-2.2-.9c-1.5-.8-2.2-1.9-2.2-3.3 0-.7.2-1.3.6-1.9s1-1 1.7-1.3 1.6-.5 2.5-.5 1.8.2 2.5.5 1.3.8 1.7 1.4.6 1.3.6 2.1h-2.7c0-.6-.2-1.1-.6-1.4s-.9-.5-1.6-.5-1.2.1-1.5.4c-.4.3-.5.6-.5 1.1 0 .4.2.8.6 1.1s1.1.6 1.9.8c1.5.5 2.7 1 3.4 1.7s1.1 1.5 1.1 2.6-.4 2-1.3 2.7-2 1-3.5 1c-1 0-1.9-.2-2.8-.6-.8-.4-1.5-.9-1.9-1.5s-.7-1.4-.7-2.2h2.7c0 1.4.9 2.2 2.6 2.2.6 0 1.1-.1 1.5-.4.3-.2.5-.5.5-1z"/><path d="m173.9 1.8c0-.4.1-.7.4-1s.6-.4 1.1-.4c.4 0 .8.1 1.1.4s.4.6.4 1-.1.7-.4 1-.6.4-1.1.4c-.4 0-.8-.1-1.1-.4s-.4-.6-.4-1zm2.7 12.2h-2.6v-9.7h2.6z"/><path d="m182.8 1.9v2.4h1.7v1.9h-1.7v4.9c0 .4.1.6.2.8s.4.2.8.2c.3 0 .5 0 .8-.1v2c-.5.2-1 .2-1.6.2-1.8 0-2.8-.9-2.8-2.8v-5.2h-1.4v-1.9h1.4v-2.4z"/><path d="m191.1 14.2c-1.4 0-2.6-.4-3.5-1.3s-1.3-2-1.3-3.5v-.3c0-1 .2-1.9.6-2.6.4-.8.9-1.4 1.6-1.8s1.5-.6 2.4-.6c1.3 0 2.4.4 3.2 1.3s1.2 2 1.2 3.6v1h-6.2c.1.6.3 1.1.8 1.5s1 .6 1.6.6c1 0 1.8-.4 2.4-1.1l1.3 1.4c-.4.6-.9 1-1.6 1.3s-1.7.5-2.5.5zm-.3-8c-.5 0-.9.2-1.3.5-.3.4-.5.9-.6 1.5h3.6v-.2c0-.6-.2-1-.5-1.3s-.6-.5-1.2-.5z"/></g></svg>