<svg viewBox="0 0 237.96 18.67" xmlns="http://www.w3.org/2000/svg"><g fill="#fff"><path d="m11.08 10.79 1.77-9.35h2.7l-2.91 13.13h-2.72l-2.15-8.78-2.14 8.78h-2.72l-2.91-13.13h2.7l1.78 9.32 2.16-9.32h2.29l2.16 9.34z"/><path d="m21.74 14.75c-1.43 0-2.6-.44-3.49-1.32-.9-.88-1.35-2.05-1.35-3.51v-.25c0-.98.19-1.86.57-2.63s.92-1.37 1.61-1.79 1.49-.63 2.38-.63c1.33 0 2.39.42 3.15 1.26.77.84 1.15 2.03 1.15 3.58v1.06h-6.21c.08.64.34 1.15.76 1.53s.96.58 1.61.58c1 0 1.79-.36 2.35-1.09l1.28 1.43c-.39.55-.92.98-1.59 1.29s-1.41.46-2.22.46zm-.3-8.02c-.52 0-.94.18-1.26.53s-.53.85-.62 1.5h3.62v-.21c-.01-.58-.17-1.03-.47-1.35s-.73-.48-1.28-.48z"/><path d="m37.04 9.78c0 1.56-.33 2.78-1 3.66s-1.6 1.31-2.8 1.31c-1.06 0-1.9-.41-2.53-1.22l-.12 1.04h-2.34v-13.85h2.61v4.97c.6-.7 1.39-1.06 2.37-1.06 1.19 0 2.12.44 2.8 1.31.68.88 1.01 2.11 1.01 3.69v.14zm-2.61-.19c0-.99-.16-1.71-.47-2.16s-.78-.68-1.4-.68c-.83 0-1.4.34-1.71 1.02v3.85c.32.69.9 1.03 1.73 1.03s1.39-.42 1.66-1.24c.13-.4.19-1 .19-1.81z"/><path d="m44.81 11.88c0-.32-.16-.57-.47-.75-.32-.18-.82-.35-1.52-.49-2.32-.49-3.48-1.47-3.48-2.96 0-.87.36-1.59 1.08-2.17s1.66-.87 2.82-.87c1.24 0 2.23.29 2.97.88.74.58 1.11 1.34 1.11 2.27h-2.61c0-.37-.12-.68-.36-.92s-.62-.37-1.13-.37c-.44 0-.78.1-1.02.3s-.36.45-.36.76c0 .29.14.52.41.7s.73.33 1.38.46 1.2.28 1.64.44c1.38.5 2.06 1.38 2.06 2.62 0 .89-.38 1.61-1.15 2.16-.76.55-1.75.83-2.96.83-.82 0-1.54-.15-2.18-.44-.63-.29-1.13-.69-1.49-1.2s-.54-1.06-.54-1.65h2.47c.02.46.2.82.51 1.06.32.25.75.37 1.28.37.5 0 .88-.09 1.13-.28s.38-.44.38-.74z"/><path d="m49.85 2.29c0-.39.13-.71.39-.96s.62-.38 1.07-.38.8.13 1.06.38.4.57.4.96-.13.72-.4.97-.62.38-1.06.38-.79-.13-1.06-.38-.4-.58-.4-.97zm2.77 12.28h-2.62v-9.75h2.62z"/><path d="m58.77 2.42v2.4h1.67v1.91h-1.67v4.87c0 .36.07.62.21.78s.4.23.79.23c.29 0 .54-.02.77-.06v1.98c-.51.16-1.04.23-1.58.23-1.83 0-2.76-.92-2.8-2.77v-5.26h-1.42v-1.91h1.42v-2.4z"/><path d="m67.09 14.75c-1.43 0-2.6-.44-3.49-1.32-.9-.88-1.35-2.05-1.35-3.51v-.25c0-.98.19-1.86.57-2.63s.92-1.37 1.61-1.79 1.49-.63 2.38-.63c1.33 0 2.39.42 3.15 1.26.77.84 1.15 2.03 1.15 3.58v1.06h-6.21c.08.64.34 1.15.76 1.53s.96.58 1.61.58c1 0 1.79-.36 2.35-1.09l1.28 1.43c-.39.55-.92.98-1.59 1.29s-1.41.46-2.22.46zm-.3-8.02c-.52 0-.94.18-1.26.53s-.53.85-.62 1.5h3.62v-.21c-.01-.58-.17-1.03-.47-1.35s-.73-.48-1.28-.48z"/><path d="m81.91 9.95v4.63h-2.71v-13.14h5.12c.99 0 1.85.18 2.6.54s1.32.87 1.73 1.54c.4.66.6 1.42.6 2.27 0 1.29-.44 2.3-1.32 3.04s-2.1 1.11-3.66 1.11h-2.37zm0-2.19h2.42c.72 0 1.26-.17 1.64-.5.38-.34.56-.82.56-1.44s-.19-1.16-.57-1.56-.9-.6-1.57-.61h-2.48v4.1z"/><path d="m91.21 9.6c0-.97.19-1.83.56-2.59s.91-1.34 1.61-1.76 1.51-.62 2.44-.62c1.32 0 2.39.4 3.22 1.21s1.3 1.9 1.39 3.28l.02.67c0 1.5-.42 2.7-1.25 3.6-.84.91-1.96 1.36-3.36 1.36s-2.53-.45-3.37-1.35-1.26-2.13-1.26-3.68zm2.61.19c0 .93.17 1.64.52 2.13s.85.74 1.5.74 1.12-.24 1.48-.73c.35-.49.53-1.26.53-2.33 0-.91-.18-1.61-.53-2.11s-.85-.75-1.5-.75-1.13.25-1.48.75-.52 1.27-.52 2.31z"/><path d="m105.66 14.57h-2.62v-13.85h2.62z"/><path d="m108.59 2.29c0-.39.13-.71.39-.96s.62-.38 1.07-.38.8.13 1.06.38.4.57.4.96-.13.72-.4.97-.62.38-1.06.38-.79-.13-1.06-.38-.4-.58-.4-.97zm2.77 12.28h-2.62v-9.75h2.62z"/><path d="m118.37 12.65c.48 0 .87-.13 1.17-.4.3-.26.46-.62.47-1.06h2.44c0 .66-.19 1.27-.54 1.82s-.84.98-1.46 1.28-1.3.46-2.04.46c-1.4 0-2.5-.44-3.3-1.33-.81-.89-1.21-2.11-1.21-3.67v-.17c0-1.5.4-2.7 1.2-3.6s1.9-1.34 3.29-1.34c1.22 0 2.2.35 2.94 1.04s1.11 1.62 1.12 2.77h-2.44c-.01-.51-.17-.92-.47-1.24s-.7-.48-1.19-.48c-.61 0-1.07.22-1.38.66s-.46 1.16-.46 2.15v.27c0 1.01.15 1.73.46 2.17s.77.66 1.4.66z"/><path d="m128.39 10.88 1.8-6.07h2.8l-3.92 11.27-.22.51c-.58 1.27-1.54 1.91-2.88 1.91-.38 0-.76-.06-1.15-.17v-1.97h.4c.49 0 .86-.07 1.1-.22s.43-.4.57-.75l.31-.8-3.42-9.78h2.8z"/><path d="m140.58 9.23c0-1.38.18-2.69.55-3.93s.91-2.35 1.62-3.31c.72-.96 1.49-1.62 2.33-2l.5 1.41c-.88.65-1.56 1.65-2.06 3.01-.49 1.36-.74 2.95-.74 4.76v.28c0 1.82.24 3.42.73 4.78.49 1.37 1.18 2.38 2.07 3.06l-.5 1.38c-.82-.37-1.58-1.01-2.29-1.94s-1.25-2-1.62-3.21-.57-2.48-.59-3.81z"/><path d="m152.36 1.44h2.71v9.09c0 .84-.18 1.57-.55 2.21s-.89 1.13-1.56 1.48-1.43.52-2.28.52c-1.39 0-2.47-.35-3.25-1.06s-1.16-1.71-1.16-3h2.72c0 .64.14 1.12.41 1.42s.7.46 1.28.46c.52 0 .93-.18 1.24-.53s.46-.86.46-1.51v-9.08z"/><path d="m163.74 14.57c-.12-.23-.21-.53-.26-.88-.63.7-1.45 1.06-2.46 1.06-.96 0-1.75-.28-2.38-.83s-.94-1.25-.94-2.09c0-1.03.38-1.83 1.15-2.38s1.87-.83 3.32-.84h1.2v-.56c0-.45-.12-.81-.35-1.08s-.6-.41-1.1-.41c-.44 0-.78.11-1.03.32s-.37.5-.37.87h-2.61c0-.56.17-1.09.52-1.57s.84-.86 1.48-1.13 1.35-.41 2.15-.41c1.2 0 2.16.3 2.86.91.71.6 1.06 1.45 1.06 2.55v4.23c0 .93.13 1.63.39 2.1v.15h-2.63zm-2.16-1.81c.38 0 .74-.09 1.06-.26.33-.17.57-.4.72-.69v-1.68h-.97c-1.3 0-2 .45-2.08 1.35v.15c0 .32.1.59.33.8s.54.32.94.32z"/><path d="m177.7 9.78c0 1.5-.34 2.71-1.02 3.61-.68.91-1.6 1.36-2.76 1.36-.99 0-1.78-.34-2.39-1.03v4.6h-2.61v-13.5h2.42l.09.96c.63-.76 1.46-1.14 2.47-1.14 1.2 0 2.14.45 2.8 1.33s1 2.12 1 3.68v.14zm-2.61-.19c0-.91-.16-1.61-.48-2.1s-.79-.74-1.4-.74c-.82 0-1.38.31-1.69.94v3.99c.32.64.89.96 1.7.96 1.24 0 1.87-1.02 1.87-3.06z"/><path d="m185.84 14.57c-.12-.23-.21-.53-.26-.88-.63.7-1.45 1.06-2.46 1.06-.96 0-1.75-.28-2.38-.83s-.94-1.25-.94-2.09c0-1.03.38-1.83 1.15-2.38s1.87-.83 3.32-.84h1.2v-.56c0-.45-.12-.81-.35-1.08s-.6-.41-1.1-.41c-.44 0-.78.11-1.03.32s-.37.5-.37.87h-2.61c0-.56.17-1.09.52-1.57s.84-.86 1.48-1.13 1.35-.41 2.15-.41c1.2 0 2.16.3 2.86.91.71.6 1.06 1.45 1.06 2.55v4.23c0 .93.13 1.63.39 2.1v.15h-2.63zm-2.16-1.81c.38 0 .74-.09 1.06-.26.33-.17.57-.4.72-.69v-1.68h-.97c-1.3 0-2 .45-2.08 1.35v.15c0 .32.1.59.33.8s.54.32.94.32z"/><path d="m193.43 4.82.08 1.13c.7-.87 1.63-1.31 2.8-1.31 1.03 0 1.8.3 2.31.91.5.61.76 1.51.78 2.72v6.3h-2.61v-6.24c0-.55-.12-.95-.36-1.2s-.64-.37-1.2-.37c-.73 0-1.28.31-1.65.94v6.88h-2.61v-9.76h2.45z"/><path d="m206.73 14.75c-1.43 0-2.6-.44-3.5-1.32s-1.35-2.05-1.35-3.51v-.25c0-.98.19-1.86.57-2.63s.92-1.37 1.61-1.79 1.49-.63 2.38-.63c1.33 0 2.38.42 3.15 1.26s1.15 2.03 1.15 3.58v1.06h-6.21c.08.64.34 1.15.76 1.53s.96.58 1.61.58c1 0 1.79-.36 2.35-1.09l1.28 1.43c-.39.55-.92.98-1.59 1.29s-1.41.46-2.22.46zm-.3-8.02c-.52 0-.94.18-1.26.53s-.53.85-.62 1.5h3.62v-.21c-.01-.58-.17-1.03-.47-1.35s-.73-.48-1.28-.48z"/><path d="m218.37 11.88c0-.32-.16-.57-.47-.75-.32-.18-.82-.35-1.52-.49-2.32-.49-3.48-1.47-3.48-2.96 0-.87.36-1.59 1.08-2.17s1.66-.87 2.82-.87c1.24 0 2.23.29 2.97.88.74.58 1.11 1.34 1.11 2.27h-2.61c0-.37-.12-.68-.36-.92s-.62-.37-1.13-.37c-.44 0-.78.1-1.02.3s-.36.45-.36.76c0 .29.14.52.41.7s.74.33 1.38.46c.65.13 1.2.28 1.64.44 1.38.5 2.07 1.38 2.07 2.62 0 .89-.38 1.61-1.15 2.16-.76.55-1.75.83-2.96.83-.82 0-1.54-.15-2.18-.44-.63-.29-1.13-.69-1.49-1.2s-.54-1.06-.54-1.65h2.47c.02.46.2.82.51 1.06.32.25.75.37 1.28.37.5 0 .88-.09 1.13-.28s.38-.44.38-.74z"/><path d="m227.86 14.75c-1.43 0-2.6-.44-3.5-1.32s-1.35-2.05-1.35-3.51v-.25c0-.98.19-1.86.57-2.63s.92-1.37 1.61-1.79 1.49-.63 2.38-.63c1.33 0 2.38.42 3.15 1.26s1.15 2.03 1.15 3.58v1.06h-6.21c.08.64.34 1.15.76 1.53s.96.58 1.61.58c1 0 1.79-.36 2.35-1.09l1.28 1.43c-.39.55-.92.98-1.59 1.29s-1.41.46-2.22.46zm-.3-8.02c-.52 0-.94.18-1.26.53s-.53.85-.62 1.5h3.62v-.21c-.01-.58-.17-1.03-.47-1.35s-.73-.48-1.28-.48z"/><path d="m237.96 9.44c0 1.36-.2 2.67-.59 3.92-.39 1.26-.95 2.37-1.69 3.33-.73.96-1.52 1.62-2.35 1.98l-.5-1.38c.85-.64 1.53-1.64 2.02-2.98s.75-2.88.77-4.63v-.48c0-1.8-.25-3.38-.74-4.75s-1.17-2.4-2.05-3.08l.5-1.38c.82.35 1.59 1 2.31 1.93s1.29 2.02 1.69 3.26.61 2.52.63 3.85z"/></g></svg>