<?xml version="1.0" encoding="utf-8"?>
<!-- Generator: Adobe Illustrator 27.1.1, SVG Export Plug-In . SVG Version: 6.00 Build 0)  -->
<svg version="1.2" baseProfile="tiny" id="Layer_1" xmlns="http://www.w3.org/2000/svg" xmlns:xlink="http://www.w3.org/1999/xlink"
	 x="0px" y="0px" viewBox="0 0 51 22.7" overflow="visible" xml:space="preserve">
<g>
	<path fill="#E51E26" d="M6.1,6.1H1.2V2.5h14v3.6h-4.8v14.3H6.1V6.1z"/>
	<path fill="#E51E26" d="M16.4,11.3c0-5.9,3.3-9.2,8.2-9.2c4.9,0,8.2,3.3,8.2,9.2c0,5.9-3.3,9.4-8.2,9.4
		C19.7,20.7,16.4,17.2,16.4,11.3z M28.4,11.3c0-3.5-1.5-5.5-3.8-5.5c-2.4,0-3.8,2-3.8,5.5c0,3.5,1.4,5.7,3.8,5.7
		C26.9,17,28.4,14.8,28.4,11.3z"/>
	<path fill="#E51E26" d="M36,2.5h6.3c3.9,0,7.2,1.4,7.2,5.8c0,4.2-3.3,6.1-7.1,6.1h-2.1v5.9H36V2.5z M42.2,11c2.1,0,3.1-1,3.1-2.7
		c0-1.8-1.2-2.4-3.2-2.4h-1.8V11H42.2z"/>
</g>
</svg>
