<?xml version="1.0" encoding="utf-8"?>
<!-- Generator: Adobe Illustrator 27.1.1, SVG Export Plug-In . SVG Version: 6.00 Build 0)  -->
<svg version="1.2" baseProfile="tiny" id="Layer_1" xmlns="http://www.w3.org/2000/svg" xmlns:xlink="http://www.w3.org/1999/xlink"
	 x="0px" y="0px" viewBox="0 0 68 22.7" overflow="visible" xml:space="preserve">
<g>
	<path fill="#373737" d="M7.9,13.7c2.7,0,5.1-0.2,7.6-0.6l0.3,3c-3.2,0.6-6.2,0.7-9.8,0.7H4.2V7.5h6.3V4.7H4.2V1.7h10v8.7H7.9V13.7z
		 M23.3,11h-2.9v10.7h-3.7V0h3.7v7.9h2.9V11z"/>
	<path fill="#373737" d="M30.7,12.5c-3.4,0-6-2.4-6-5.6c0-3.2,2.6-5.6,6-5.6c3.4,0,6,2.3,6,5.6C36.7,10.1,34.1,12.5,30.7,12.5z
		 M43,18.4v2.9H27.9v-7.4h3.7v4.5H43z M30.7,9.3c1.3,0,2.4-0.8,2.4-2.4c0-1.6-1-2.4-2.4-2.4c-1.3,0-2.4,0.8-2.4,2.4
		C28.3,8.5,29.4,9.3,30.7,9.3z M42.5,15.4h-3.7V0h3.7V15.4z"/>
	<path fill="#373737" d="M63.9,0v11.6h-3.7V7.5h-2.9c-0.6,2.3-2.8,3.8-5.6,3.8c-3.3,0-5.8-2.2-5.8-5.2c0-3,2.5-5.2,5.8-5.2
		c2.7,0,4.9,1.5,5.5,3.7h3V0H63.9z M60.2,12.5h3.7v8.9H49.3v-8.9h3.7v1.7h7.2V12.5z M53.9,6.1c0-1.4-0.9-2.2-2.2-2.2
		c-1.3,0-2.2,0.7-2.2,2.2s0.9,2.2,2.2,2.2C52.9,8.3,53.9,7.5,53.9,6.1z M60.2,17h-7.2v1.5h7.2V17z"/>
</g>
</svg>
