<?xml version="1.0" encoding="utf-8"?>
<!-- Generator: Adobe Illustrator 27.1.1, SVG Export Plug-In . SVG Version: 6.00 Build 0)  -->
<svg version="1.2" baseProfile="tiny" id="chara_ワルイージ1.svg"
	 xmlns="http://www.w3.org/2000/svg" xmlns:xlink="http://www.w3.org/1999/xlink" x="0px" y="0px" viewBox="0 0 405.4 147.4"
	 overflow="visible" xml:space="preserve">
<path id="WALUIGI" fill-rule="evenodd" fill="#373737" d="M155.6,22.8L161,6.3l-8.1-2.1l-2.5,10.2l-3.2-5.5l-4.2,4.9l-1-13.1
	l-9.8,1.6l4.1,19.6l7.3,0.8l2.9-5l2.1,5.5L155.6,22.8z M181.6,22.6L176,4.4l-10.4-1.5l-5.8,18.9l7.2,1.5l0.8-4l5.2-0.5l0.9,4.6
	L181.6,22.6z M172.3,14.2l-3.3-0.4l1-4.7l1.4,0.2L172.3,14.2z M199.7,22.1l0.2-8.8l-9.8,2.9l-0.3-14.8l-9,1.1l3,20.7L199.7,22.1z
	 M216.7,22.7l4.1-5l1.6-10.4l-8.1-1.5L213.9,16l-4.9,0.8l1.8-13L201.6,3l-0.9,15.4l4.9,4.3H216.7L216.7,22.7z M229.7,22.5l3.4-17.3
	l-8.5-1.8L223.5,23L229.7,22.5z M256.3,20.1l-0.4-10.5l-10.8,0.9l0.1,5.8l4.6-1.7l0.6,1.5l-4.1,1.6l-4.2-2.1l0.2-5.9l3.3-3.1
	l5.9,2.6l2.8-6.5L246.4,0l-8.8,2.3l-4.7,7.6l3.1,11l9.4,3.2L256.3,20.1z M263.9,22.5l3.3-17.3l-8.5-1.8l-1,19.6L263.9,22.5z"/>
<g>
	<path fill="#5E2D8F" d="M37.7,125.5v-7.8c-5.6-1.8-9.9-5.1-12.9-9.9c-3.1-4.8-4.6-10.7-4.6-17.8c0-4.5,0.6-8.6,1.9-12.2
		s3.1-6.7,5.4-9.3c2.4-2.5,5.2-4.5,8.6-5.9c3.4-1.4,7.2-2.1,11.5-2.1c4.2,0,8.1,0.7,11.5,2.1s6.3,3.3,8.7,5.9
		c2.4,2.5,4.2,5.6,5.5,9.3c1.3,3.6,2,7.7,2,12.2c0,6.9-1.5,12.8-4.6,17.5c-3.1,4.8-7.3,8.1-12.7,10v8h19.9v16.8H18.7v-16.8H37.7z
		 M47.6,102.4c2.3,0,4.1-1.1,5.4-3.2c1.3-2.1,2-5.2,2-9.3c0-4.2-0.7-7.3-2-9.4s-3.2-3.1-5.4-3.1c-4.8,0-7.2,4.2-7.2,12.5
		C40.5,98.2,42.9,102.4,47.6,102.4z M102,90.1h8.5V107H102v37.3H81.7V61.4H102V90.1z"/>
	<path fill="#5E2D8F" d="M115.3,117.4H200v16.9h-32.2v13.1h-20.3v-13.1h-32.2V117.4z M120.1,77.3V63.4h75.2v31.4h-54.9v3.6h55.9
		v13.9h-76.1V80.8H175v-3.5H120.1z"/>
	<path fill="#5E2D8F" d="M265.5,103.3c0,7.9-0.8,14.5-2.5,19.7c-1.7,5.3-3.9,9.5-6.6,12.6c-2.7,3.1-5.8,5.4-9.3,6.7s-7,2-10.6,2
		c-3.7,0-7.2-0.7-10.7-2s-6.6-3.5-9.3-6.7c-2.7-3.1-4.9-7.3-6.5-12.6s-2.4-11.8-2.4-19.7s0.8-14.5,2.4-19.7
		c1.6-5.3,3.8-9.5,6.5-12.6s5.8-5.4,9.3-6.7c3.5-1.3,7-2,10.7-2c3.6,0,7.1,0.7,10.6,2c3.5,1.3,6.5,3.5,9.3,6.7
		c2.7,3.1,4.9,7.3,6.6,12.6S265.5,95.4,265.5,103.3z M227.9,103.3c0,5,0.2,9.1,0.7,12.2s1.1,5.6,1.9,7.3c0.8,1.8,1.7,3,2.8,3.6
		c1,0.6,2.2,0.9,3.3,0.9s2.2-0.3,3.2-0.9s2-1.8,2.7-3.5c0.8-1.7,1.4-4.2,1.9-7.3c0.5-3.2,0.7-7.3,0.7-12.4c0-5-0.2-9.1-0.7-12.2
		s-1.1-5.6-1.9-7.3c-0.8-1.7-1.7-2.9-2.7-3.5s-2.1-0.9-3.2-0.9c-1.2,0-2.3,0.3-3.3,0.9s-2,1.8-2.8,3.6c-0.8,1.8-1.5,4.2-1.9,7.4
		C228.1,94.2,227.9,98.3,227.9,103.3z M292.1,144.3h-20.3V61.4h20.3V144.3z"/>
	<path fill="#5E2D8F" d="M359.8,63.4v16.9h-19v18.3c0,4.4-0.4,8.5-1.3,12.2l23.1,17.3l-10.1,15l-20.4-15.6
		c-2.7,3.7-6.2,6.8-10.2,9.5c-4.1,2.6-8.9,4.7-14.5,6.1l-8.7-14.8c7.4-2.1,12.9-5.5,16.5-10.2c3.5-4.7,5.3-11.3,5.3-19.6V80.2h-18
		V63.4H359.8z M386.2,144.3h-20.3V61.4h20.3V144.3z"/>
</g>
</svg>
